<svg width="250" height="60" viewBox="0 0 250 60" fill="none" xmlns="http://www.w3.org/2000/svg">
<path d="M20.0698 32.2994C19.9783 32.6437 19.8484 33.1141 19.6531 33.6338C19.2737 34.6428 18.6377 35.8694 17.5283 36.7435C18.1474 37.6389 18.5178 38.465 18.7209 39.3149C18.9425 40.2417 18.9611 41.1798 18.9066 42.2351C18.8617 43.1042 18.7358 44.1199 18.5924 45.1945C18.4483 46.2738 18.2864 47.4149 18.1664 48.5507C17.9249 50.8367 17.8629 53.0278 18.4202 54.5658C18.9431 56.0088 19.7986 57.3264 20.844 58.2017C21.8859 59.0741 23.0955 59.4936 24.3625 59.206C24.8483 59.0957 25.2443 58.7655 25.569 58.2842C25.8945 57.8016 26.131 57.1918 26.2999 56.5792C26.4681 55.9693 26.5652 55.3727 26.62 54.9271C26.6474 54.705 26.6639 54.5215 26.6738 54.3942C26.6787 54.3306 26.6824 54.2809 26.6843 54.2477C26.6853 54.2312 26.6856 54.2188 26.686 54.2106C26.6862 54.2065 26.6863 54.2033 26.6864 54.2014V43.3489L26.6898 43.326C27.0983 40.5409 27.4495 38.9289 28.5852 36.3255C28.7123 36.0339 28.8613 35.726 29.0225 35.4128C27.9101 36.0912 26.8658 36.3671 25.8992 36.3542C24.6027 36.3369 23.4941 35.8018 22.5974 35.1189C21.7017 34.4368 21.0016 33.5952 20.5147 32.9335C20.3391 32.6948 20.1902 32.4775 20.0698 32.2994ZM30.055 32.5829C30.0538 32.5833 30.052 32.5843 30.05 32.585C30.0383 32.5887 30.0283 32.5914 30.018 32.5941L30.0147 32.5821C30.0071 32.5821 29.9952 32.5823 29.9836 32.5821C29.9806 32.582 29.944 32.5817 29.905 32.5729C29.8933 32.5703 29.8669 32.5638 29.8361 32.5492C29.8154 32.5393 29.7318 32.4985 29.6832 32.3976C29.6677 32.3654 29.6589 32.3338 29.6547 32.3035C29.6404 32.2947 29.6257 32.2863 29.6114 32.2769L29.6332 32.2436C29.6173 32.2423 29.5957 32.2392 29.5707 32.2327C29.5631 32.2315 29.5571 32.2306 29.5534 32.2298C29.5298 32.2247 29.5113 32.218 29.5051 32.2157C29.5043 32.2154 29.5039 32.2152 29.5005 32.214C29.4978 32.213 29.4937 32.2116 29.4892 32.2098C29.4877 32.2093 29.4862 32.2084 29.4845 32.2078C29.4668 32.2031 29.432 32.194 29.3963 32.1803C29.3924 32.1788 29.3903 32.178 29.382 32.1749C29.3754 32.1724 29.3658 32.1691 29.3556 32.1649C29.3364 32.157 29.3047 32.143 29.2711 32.1216C29.2323 32.0968 29.1615 32.0495 29.1073 31.9759C29.0927 31.956 29.0692 31.9242 29.0426 31.8747C29.0452 31.8795 29.0475 31.8833 29.0481 31.8843C29.0474 31.8832 29.0474 31.8834 29.0456 31.8805C29.0442 31.8784 29.0423 31.8754 29.0401 31.8718C29.0301 31.8555 29.0179 31.8334 29.0057 31.8052C28.9824 31.7513 28.9657 31.6892 28.9523 31.6128C28.9505 31.6027 28.9488 31.5937 28.9468 31.5845C28.9455 31.578 28.9421 31.5618 28.9397 31.5491C28.9367 31.533 28.9155 31.4376 28.9594 31.3334C28.9875 31.267 29.0378 31.203 29.1107 31.1594C29.145 31.1389 29.2502 31.0843 29.3833 31.119C29.427 31.1257 29.47 31.1404 29.5089 31.1652C29.5564 31.1956 29.5866 31.2329 29.6055 31.2622C29.6155 31.2709 29.6253 31.2791 29.6337 31.2864C29.647 31.2981 29.6584 31.3083 29.6652 31.3143C29.6668 31.3158 29.669 31.3174 29.6706 31.3189C29.6714 31.3196 29.6729 31.3208 29.6744 31.3222C29.6752 31.3229 29.6767 31.3245 29.6786 31.3264C29.6796 31.3273 29.6815 31.3288 29.6837 31.3309C29.6848 31.3321 29.6906 31.3381 29.6975 31.3459C29.6998 31.3485 29.7099 31.3601 29.721 31.3763C29.7245 31.3816 29.7298 31.3926 29.7362 31.4042C29.7581 31.4205 29.7737 31.4354 29.782 31.4433C29.8025 31.4631 29.8217 31.4851 29.8378 31.5062L29.8634 31.5266L29.916 31.5803C29.9267 31.5922 29.938 31.6055 29.9491 31.6195L29.9819 31.6636L29.9928 31.6827C30.0238 31.6701 30.0583 31.6612 30.0962 31.659C30.1825 31.654 30.2473 31.6841 30.2797 31.7031C30.3381 31.7374 30.3699 31.7816 30.3751 31.7885C30.3861 31.8033 30.3935 31.8161 30.3969 31.8222C30.403 31.8329 30.4073 31.8423 30.4095 31.8472C30.3919 31.8296 30.3772 31.8186 30.3713 31.8147C30.3687 31.813 30.3664 31.8113 30.3646 31.8102L30.3575 31.8222C30.3597 31.8234 30.3624 31.8248 30.3654 31.8264C30.3694 31.8285 30.375 31.8316 30.3814 31.8355C30.3797 31.8345 30.3703 31.8296 30.357 31.8231C30.3558 31.8223 30.3543 31.8216 30.3533 31.821C30.352 31.8204 30.3508 31.8195 30.3495 31.8189L30.3415 31.8389C30.3408 31.8388 30.3401 31.8386 30.3394 31.8385L30.3318 31.8643L30.3293 31.8705L30.3222 31.883C30.3229 31.8831 30.3236 31.8833 30.3243 31.8834L30.3087 31.9226L30.3142 31.9221L30.3096 31.9401L30.3075 31.9421L30.3087 31.9417L30.3037 31.9592H30.3339L30.4314 31.9292L30.431 31.9267L30.4272 31.9172L30.4511 31.9159C30.4486 31.91 30.4451 31.9028 30.4406 31.8947C30.4426 31.8947 30.4446 31.8946 30.4465 31.8947C30.4411 31.8851 30.435 31.8774 30.4297 31.8705C30.4341 31.8746 30.4417 31.8815 30.4486 31.8888C30.4495 31.8898 30.4509 31.8921 30.4532 31.8947C30.5356 31.8958 30.6136 31.8866 30.6851 31.8709C30.7573 31.8551 30.821 31.8322 30.8737 31.811C31.0558 30.6948 30.7324 29.6023 30.152 28.4923C29.7915 27.8027 29.3373 27.1171 28.8553 26.4247C28.3773 25.7382 27.8659 25.037 27.4123 24.3417C27.3156 24.1934 27.3585 23.9954 27.5081 23.8995C27.6577 23.8036 27.8575 23.8461 27.9542 23.9944C28.4009 24.6793 28.897 25.3584 29.3862 26.0612C29.8715 26.7582 30.345 27.471 30.725 28.1979C31.2281 29.1602 31.5767 30.166 31.5698 31.2131C31.6534 31.0882 31.7696 30.9115 31.9071 30.6918C32.1975 30.2279 32.5833 29.5743 32.9653 28.817C33.7361 27.2889 34.4642 25.389 34.4095 23.7767C34.3612 22.3524 34.4952 21.4717 33.9655 20.1973C33.6037 19.3271 32.9235 18.7641 32.0142 18.382C31.0961 17.9963 29.9647 17.8038 28.7402 17.6717C28.1298 17.6059 27.5044 17.5561 26.8759 17.5031C26.2495 17.4503 25.6208 17.3945 25.0128 17.3178C23.8025 17.1653 22.6409 16.9263 21.7098 16.4368C20.2459 15.6673 19.432 14.7511 18.9024 13.5998C18.3852 12.4754 18.1417 11.125 17.7955 9.53252C17.4528 7.95648 16.8 6.44792 15.7216 5.25661C14.6473 4.06981 13.1369 3.18232 11.0461 2.86176C10.034 2.70661 9.20165 2.88629 8.5198 3.27187C7.83327 3.66013 7.28067 4.26814 6.8542 4.99514C5.99694 6.45656 5.68257 8.34314 5.79477 9.6695C6.01234 12.2412 6.81707 16.0184 8.40512 19.5695C9.17295 19.0472 9.93501 18.5206 10.6685 17.9732C13.6746 15.7296 16.0051 13.2805 15.8938 9.87767C15.888 9.70123 16.0275 9.55333 16.2055 9.54751C16.3836 9.54178 16.5329 9.68035 16.5386 9.85686C16.6613 13.6043 14.0768 16.2299 11.0566 18.484C10.2914 19.0552 9.48518 19.6111 8.67901 20.159C9.20193 21.2485 9.89921 22.4645 10.4841 23.4332C10.7954 23.9489 11.0734 24.3926 11.2734 24.7072C11.3733 24.8644 11.4537 24.9894 11.5091 25.0749C11.5367 25.1175 11.558 25.1506 11.5725 25.1727C11.5797 25.1837 11.5852 25.1921 11.5889 25.1977C11.5907 25.2004 11.5922 25.2026 11.5931 25.2039C11.5935 25.2046 11.5937 25.2053 11.5939 25.2056L11.5943 25.206C11.6916 25.354 11.6495 25.5522 11.5002 25.6486C11.351 25.745 11.151 25.7032 11.0537 25.5553L11.0533 25.5545C11.053 25.5541 11.0525 25.5535 11.052 25.5528C11.051 25.5513 11.0497 25.549 11.0478 25.5462C11.044 25.5403 11.0384 25.5317 11.031 25.5204C11.0162 25.4976 10.994 25.4639 10.9659 25.4204C10.9097 25.3336 10.8283 25.2071 10.7273 25.0482C10.5253 24.7303 10.2445 24.2821 9.93 23.7613C9.35801 22.814 8.67063 21.6182 8.13963 20.5246C7.53717 20.9325 6.94003 21.3371 6.36481 21.7403C4.83617 22.8118 3.44467 23.8889 2.41862 25.0686C0.399184 27.3904 0.317513 29.771 1.11722 31.9405C1.92545 34.133 3.63758 36.11 5.20162 37.5416C8.44071 40.5065 11.0954 42.3354 12.7647 45.9469C13.791 48.1674 13.1593 50.3558 12.311 51.9494C11.8851 52.7494 11.3982 53.4127 11.0184 53.8759C10.8283 54.1078 10.6643 54.2905 10.5471 54.4159C10.4885 54.4785 10.4416 54.5272 10.4089 54.5603L10.3572 54.6115C10.3568 54.6119 10.3562 54.6121 10.356 54.6124C10.3558 54.6125 10.3557 54.6129 10.1308 54.3838L10.3555 54.6128C10.2279 54.736 10.0236 54.7335 9.89933 54.607C9.77508 54.4804 9.77801 54.278 9.90563 54.1548C9.90592 54.1545 9.90661 54.1538 9.90731 54.1531C9.90891 54.1516 9.91174 54.1487 9.9153 54.1452C9.92241 54.1382 9.93329 54.1273 9.94764 54.1128C9.97655 54.0835 10.0197 54.0394 10.0741 53.9812C10.183 53.8648 10.3375 53.6926 10.5177 53.4728C10.8788 53.0324 11.3396 52.404 11.7405 51.6509C12.5458 50.138 13.0846 48.1742 12.1782 46.2134C10.5789 42.7531 8.07647 41.0438 4.7639 38.0117C3.16909 36.5519 1.37069 34.4919 0.511054 32.1599C-0.357021 29.8049 -0.263742 27.1729 1.92965 24.651C3.01006 23.4088 4.45647 22.2947 5.99221 21.2182C6.60873 20.7861 7.23657 20.3616 7.86407 19.9367C6.21147 16.282 5.37716 12.3837 5.15205 9.72279C5.03011 8.28133 5.36511 6.26125 6.29634 4.67372C6.76413 3.87627 7.39056 3.17384 8.20013 2.71604C9.01434 2.25564 9.99508 2.05347 11.1449 2.22974C13.3784 2.5722 15.025 3.52984 16.2017 4.82985C17.3743 6.12528 18.0671 7.74503 18.4265 9.39804C18.7823 11.0346 19.0095 12.2909 19.4897 13.3346C19.9575 14.3515 20.6678 15.1652 22.0122 15.8719C22.8363 16.305 23.9016 16.533 25.0943 16.6833C25.6877 16.7581 26.3046 16.8129 26.9309 16.8657C27.5551 16.9183 28.19 16.9691 28.8099 17.036C30.0458 17.1692 31.2565 17.369 32.2663 17.7933C33.285 18.2214 34.1189 18.8868 34.5624 19.9538C35.15 21.3674 35.0092 22.4256 35.0543 23.7554C35.1148 25.5368 34.3216 27.5584 33.5425 29.103C33.1496 29.8819 32.7533 30.5525 32.4553 31.0287C32.3062 31.2669 32.1814 31.457 32.0936 31.5878C32.0497 31.6532 32.015 31.704 31.9911 31.7385C31.9792 31.7557 31.9702 31.7691 31.9638 31.7781C31.9611 31.782 31.9587 31.7849 31.9571 31.7873L31.9567 31.7877L31.9563 31.7885C31.9557 31.7893 31.9549 31.7906 31.9537 31.7922C31.9515 31.7956 31.9478 31.8005 31.9432 31.8072C31.9341 31.8207 31.9206 31.8409 31.9029 31.8672C31.8676 31.9198 31.8159 31.9974 31.7508 32.0958C31.6237 32.2881 31.4457 32.5605 31.2392 32.8856C31.0265 33.4201 30.7056 33.9558 30.2604 34.4948C29.8527 35.1995 29.4576 35.9368 29.1775 36.579C28.0746 39.1073 27.7337 40.6586 27.3316 43.3955V54.2193L27.3312 54.226V54.231C27.3311 54.2337 27.3306 54.2374 27.3304 54.2422C27.3299 54.2521 27.3294 54.2667 27.3283 54.2851C27.3261 54.322 27.3226 54.3753 27.3174 54.4429C27.3069 54.5784 27.2893 54.7716 27.2607 55.0046C27.2034 55.4696 27.1015 56.0988 26.9225 56.7478C26.7443 57.3941 26.4849 58.0768 26.1054 58.6393C25.7252 59.203 25.2066 59.6708 24.5066 59.8297C22.9914 60.1736 21.5799 59.6556 20.4273 58.6905C19.2782 57.7283 18.3657 56.3081 17.8127 54.7823C17.1999 53.0911 17.2837 50.7638 17.5246 48.4841C17.6457 47.337 17.8095 46.183 17.9526 45.1109C18.0963 44.0343 18.2188 43.0423 18.2622 42.2022C18.3155 41.1701 18.2941 40.3024 18.0933 39.4622C17.9112 38.7002 17.5776 37.9469 16.999 37.109C16.2285 37.5729 15.2784 37.8655 14.1098 37.8655C12.5655 37.8655 10.8028 37.1224 9.62712 36.0586C9.03693 35.5245 8.57393 34.8909 8.37194 34.2042C8.16679 33.5066 8.23656 32.7692 8.68909 32.0683C8.92292 31.7062 9.21492 31.4482 9.55697 31.2943C9.89756 31.1411 10.2673 31.1004 10.6445 31.1402C11.3884 31.2189 12.1956 31.6134 12.9768 32.1445C14.5337 33.2029 16.1235 34.8993 17.1486 36.2255C18.1119 35.4569 18.6891 34.3657 19.0482 33.4106C19.2415 32.8962 19.3685 32.4303 19.4594 32.0866C19.5037 31.919 19.5425 31.7689 19.5754 31.6636C19.5913 31.6127 19.611 31.555 19.6354 31.5058C19.647 31.4825 19.6684 31.443 19.7026 31.405C19.732 31.3725 19.8184 31.2885 19.9602 31.2885C20.0656 31.2885 20.1385 31.3381 20.1588 31.3522C20.1885 31.3727 20.2113 31.3945 20.2252 31.4088C20.2539 31.4384 20.2812 31.4734 20.3042 31.5041C20.3517 31.5676 20.4114 31.656 20.4785 31.7556C20.6159 31.9597 20.8014 32.2379 21.036 32.5567C21.5061 33.1956 22.1643 33.9825 22.9906 34.6118C23.8158 35.2402 24.7928 35.6998 25.908 35.7147C27.0088 35.7293 28.2904 35.3104 29.742 34.1055C30.0622 33.5548 30.3848 33.0315 30.6603 32.5966C30.6702 32.5708 30.68 32.545 30.6893 32.5192C30.5454 32.5389 30.384 32.5418 30.2134 32.5138C30.1977 32.523 30.184 32.5292 30.1751 32.5329V32.5558C30.1786 32.5547 30.1809 32.5544 30.1814 32.5542C30.1811 32.5543 30.1805 32.5546 30.1793 32.555C30.1784 32.5554 30.1769 32.5552 30.1751 32.5558V32.5866C30.1569 32.5866 30.1005 32.5859 30.068 32.5825C30.07 32.5827 30.0712 32.5829 30.0714 32.5829H30.0567C30.0561 32.583 30.0555 32.5828 30.055 32.5829ZM10.5765 31.7764C10.2893 31.7461 10.0389 31.7794 9.8233 31.8763C9.60915 31.9727 9.40836 32.141 9.23267 32.413C8.88549 32.9507 8.83542 33.4962 8.99113 34.0255C9.15007 34.5658 9.52907 35.1035 10.0623 35.586C11.1337 36.5554 12.7452 37.226 14.1098 37.226C15.1373 37.226 15.9574 36.9774 16.618 36.5907C15.6156 35.2982 14.0832 33.6719 12.6118 32.6716C11.8618 32.1618 11.1616 31.8383 10.5765 31.7764ZM30.0038 32.5471C30.0041 32.5472 30.0049 32.5472 30.0054 32.5475L30.0046 32.545L30.0038 32.5471ZM29.7513 32.3585C29.768 32.3993 29.7902 32.4323 29.8122 32.4559C29.8717 32.5197 29.9403 32.5399 29.9512 32.5433C29.9559 32.5448 29.9607 32.5451 29.9651 32.5463C29.9696 32.5465 29.975 32.5471 29.9811 32.5471V32.4567L29.9806 32.4563C29.9049 32.4311 29.8283 32.3989 29.7513 32.3585ZM30.1751 32.5088C30.1755 32.5085 30.1756 32.5078 30.176 32.5075H30.1751V32.5088ZM29.5211 32.2178C29.5217 32.2179 29.5222 32.2181 29.5223 32.2182C29.5221 32.2181 29.5214 32.2176 29.5202 32.2173L29.5211 32.2178ZM30.4335 31.9401L30.3629 31.9592H30.4364C30.4361 31.9563 30.4358 31.9526 30.4352 31.9484C30.4348 31.946 30.4341 31.9432 30.4335 31.9401ZM30.3587 31.8243C30.3625 31.8267 30.3673 31.8297 30.3726 31.8335C30.3778 31.8373 30.3842 31.8421 30.3911 31.848C30.3852 31.843 30.3899 31.8467 30.3957 31.8526C30.3988 31.8558 30.4044 31.8618 30.4112 31.8705L30.4171 31.8651C30.4152 31.8604 30.4132 31.8547 30.4108 31.8493C30.4105 31.8487 30.4099 31.8481 30.4095 31.8472C30.4133 31.851 30.4178 31.8544 30.4217 31.8589C30.4245 31.862 30.4266 31.8665 30.4297 31.8705C30.4274 31.8683 30.426 31.8668 30.4259 31.8668C30.4139 31.8557 30.4167 31.8583 30.4205 31.8622V31.863L30.4301 31.8763L30.4406 31.8947C30.4366 31.8946 30.4325 31.8944 30.4284 31.8943C30.4283 31.8939 30.4282 31.8934 30.428 31.893L30.4268 31.8934L30.4272 31.8943C30.4265 31.8942 30.4258 31.8939 30.4251 31.8938L30.4179 31.8968C30.4203 31.9012 30.4229 31.9052 30.4247 31.9092C30.4258 31.912 30.4263 31.9148 30.4272 31.9172L30.3617 31.9201L30.3575 31.9217L30.3591 31.9201L30.3142 31.9221L30.326 31.8838C30.3254 31.8838 30.3248 31.8835 30.3243 31.8834L30.3293 31.8705L30.3306 31.8684L30.3318 31.8643L30.3415 31.8389C30.343 31.8391 30.3445 31.8395 30.3457 31.8397H30.347L30.357 31.8231C30.3577 31.8235 30.358 31.8239 30.3587 31.8243ZM30.3108 31.955L30.3133 31.953L30.3125 31.9546L30.3108 31.955ZM30.3108 31.955L30.3125 31.9546L30.3133 31.953L30.3108 31.955ZM30.3591 31.9201L30.3575 31.9217L30.3617 31.9201H30.3591ZM30.4284 31.8943C30.4292 31.8961 30.4303 31.8978 30.431 31.8992C30.4298 31.8973 30.4283 31.8961 30.4272 31.8943H30.4284ZM30.4179 31.8968L30.4251 31.8938C30.422 31.8937 30.4189 31.8932 30.4158 31.893C30.4166 31.8943 30.4173 31.8955 30.4179 31.8968ZM30.4112 31.8705C30.4161 31.8767 30.4212 31.8845 30.4268 31.8934L30.428 31.893C30.4279 31.8926 30.4274 31.8915 30.4268 31.8897C30.4252 31.8856 30.4244 31.8842 30.4221 31.878C30.422 31.8776 30.42 31.8723 30.4171 31.8651L30.4112 31.8705ZM30.247 31.7906C30.2223 31.788 30.1626 31.7844 30.0936 31.8118H30.0928C30.163 31.8444 30.232 31.866 30.2995 31.8788L30.302 31.8684V31.8793C30.3047 31.8798 30.3073 31.8805 30.31 31.8809L30.3323 31.8376H30.3314C30.3276 31.8372 30.3205 31.8364 30.3112 31.836L30.3192 31.8068C30.3024 31.8011 30.2772 31.7937 30.247 31.7906ZM30.3965 31.8651C30.3982 31.8665 30.3998 31.8676 30.4011 31.8689C30.4023 31.8699 30.4032 31.871 30.4041 31.8718C30.4037 31.8713 30.4033 31.8707 30.4028 31.8701C30.4013 31.8685 30.3995 31.8666 30.3974 31.8643C30.3951 31.8618 30.3926 31.859 30.3898 31.8559C30.3924 31.8588 30.3942 31.8623 30.3965 31.8651ZM30.3112 31.836L30.302 31.8684L30.3033 31.8355C30.3061 31.8356 30.3087 31.8358 30.3112 31.836ZM29.3997 31.4629L29.3904 31.4779L29.4064 31.465L29.3997 31.4629ZM29.4064 31.465L29.3904 31.4779L29.3997 31.4629L29.4064 31.465Z" fill="#7D562D"/>
<path d="M42.9484 26.7879V25.2122H43.4405C44.0209 25.2122 44.5383 25.1496 44.9925 25.0246C45.472 24.8995 45.8505 24.6494 46.1281 24.2742C46.4057 23.874 46.5445 23.2862 46.5445 22.5109V4.12699C46.5445 3.37663 46.3931 2.82637 46.0903 2.4762C45.8127 2.10102 45.4341 1.8634 44.9546 1.76335C44.5004 1.63829 43.9957 1.57576 43.4405 1.57576H42.9484V0H53.0932C56.3739 0 58.8092 0.550266 60.399 1.6508C62.0141 2.72632 62.8217 4.41463 62.8217 6.71574C62.8217 7.81628 62.6198 8.75423 62.216 9.5296C61.8122 10.305 61.2571 10.9428 60.5505 11.443C59.8438 11.9183 59.0363 12.3059 58.1278 12.6061V12.7562C59.2887 12.9563 60.2981 13.3439 61.1561 13.9192C62.0394 14.4695 62.7207 15.2199 63.2002 16.1703C63.7049 17.0958 63.9573 18.2213 63.9573 19.5469C63.9573 21.9731 63.1498 23.7865 61.5347 24.9871C59.9448 26.1876 57.5095 26.7879 54.2289 26.7879H42.9484ZM54.0396 24.912C56.1846 24.912 57.6988 24.4993 58.582 23.6739C59.4653 22.8485 59.9069 21.4354 59.9069 19.4344C59.9069 18.1338 59.7303 17.0582 59.377 16.2078C59.0237 15.3574 58.4306 14.7321 57.5978 14.3319C56.7651 13.9067 55.6042 13.6941 54.1153 13.6941H50.3678V24.912H54.0396ZM52.9797 11.8182C54.4686 11.8182 55.6294 11.6431 56.4622 11.293C57.295 10.9428 57.8881 10.3925 58.2414 9.64216C58.5947 8.8918 58.7713 7.91632 58.7713 6.71574C58.7713 4.86485 58.3297 3.60174 57.4464 2.92641C56.5632 2.22608 55.049 1.87591 52.904 1.87591H50.3678V11.8182H52.9797Z" fill="#7D562D"/>
<path d="M67.5268 26.7879V25.2122H67.6404C68.2208 25.2122 68.7381 25.1496 69.1924 25.0246C69.6719 24.8995 70.0504 24.6494 70.328 24.2742C70.6056 23.874 70.7444 23.2862 70.7444 22.5109V10.8052C70.7444 10.0549 70.593 9.50459 70.2901 9.15442C70.0125 8.77924 69.634 8.54163 69.1545 8.44158C68.7003 8.31652 68.1956 8.25399 67.6404 8.25399H67.5268V6.67823H73.3563L74.0755 10.3925H74.2648C74.5929 9.64216 74.9462 8.95433 75.3247 8.32902C75.7032 7.70372 76.208 7.21599 76.8389 6.86582C77.4698 6.49064 78.3404 6.30305 79.4508 6.30305C80.8388 6.30305 81.8608 6.54066 82.5169 7.01589C83.1983 7.49112 83.539 8.16644 83.539 9.04187C83.539 9.81724 83.2614 10.455 82.7062 10.9553C82.1763 11.4555 81.2804 11.7057 80.0186 11.7057C80.0186 11.0053 79.9555 10.4425 79.8293 10.0173C79.7031 9.59213 79.4886 9.27948 79.1858 9.07939C78.9082 8.87929 78.517 8.77924 78.0123 8.77924C77.3057 8.77924 76.7127 9.05437 76.2332 9.60464C75.7537 10.1549 75.3752 10.8552 75.0976 11.7057C74.82 12.5561 74.6181 13.444 74.4919 14.3694C74.3657 15.2699 74.3027 16.0828 74.3027 16.8081V22.6985C74.3027 23.4238 74.4414 23.9741 74.719 24.3493C75.0219 24.6994 75.4004 24.937 75.8547 25.0621C76.3341 25.1622 76.8515 25.2122 77.4067 25.2122H78.4666V26.7879H67.5268Z" fill="#7D562D"/>
<path d="M85.534 34.0289C86.821 34.0289 87.9314 33.8413 88.8652 33.4662C89.7989 33.091 90.5938 32.5657 91.25 31.8904C91.9061 31.2401 92.4613 30.4647 92.9155 29.5643C93.3698 28.6638 93.7483 27.6884 94.0511 26.6379L87.0482 10.2424C86.821 9.71719 86.5939 9.317 86.3668 9.04187C86.1397 8.74172 85.8747 8.54163 85.5719 8.44158C85.269 8.31652 84.8653 8.25399 84.3605 8.25399H84.247V6.67823H93.3319V8.25399H93.2184C92.4613 8.25399 91.8935 8.40406 91.5149 8.7042C91.1364 8.97934 90.9471 9.42955 90.9471 10.0549C90.9471 10.255 90.9724 10.4676 91.0228 10.6927C91.0733 10.9178 91.149 11.1679 91.25 11.443L94.0133 18.1213C94.2656 18.6965 94.5054 19.3343 94.7325 20.0347C94.9849 20.71 95.212 21.3603 95.4139 21.9856C95.6158 22.6109 95.7546 23.1362 95.8303 23.5614C96.0069 22.836 96.234 22.0857 96.5116 21.3103C96.8145 20.5349 97.0921 19.772 97.3444 19.0217L99.8806 11.7057C100.007 11.4055 100.095 11.1179 100.146 10.8427C100.196 10.5426 100.221 10.2925 100.221 10.0924C100.221 9.44206 100.007 8.97934 99.5778 8.7042C99.174 8.40406 98.5558 8.25399 97.723 8.25399H97.6094V6.67823H105.483V8.25399H105.369C104.89 8.25399 104.486 8.32902 104.158 8.47909C103.83 8.62917 103.54 8.91681 103.287 9.34201C103.06 9.76722 102.795 10.38 102.493 11.1804L96.7388 26.938C96.0826 28.7639 95.4517 30.2521 94.8461 31.4027C94.2404 32.5532 93.559 33.4412 92.802 34.0665C92.0701 34.7168 91.149 35.167 90.0386 35.4171C88.9282 35.6672 87.5403 35.7923 85.8747 35.7923H85.534V34.0289Z" fill="#7D562D"/>
<path d="M113.449 27.1631C112.187 27.1631 111.089 27.013 110.155 26.7129C109.222 26.4128 108.49 25.975 107.96 25.3998C107.455 24.7995 107.203 24.0616 107.203 23.1862C107.203 22.5109 107.342 21.9856 107.619 21.6104C107.897 21.2353 108.212 20.9726 108.565 20.8226C108.944 20.6725 109.285 20.5974 109.588 20.5974C109.588 21.8981 109.878 23.0236 110.458 23.9741C111.064 24.8995 112.136 25.3622 113.676 25.3622C115.013 25.3622 116.035 25.0496 116.742 24.4243C117.474 23.774 117.84 22.9486 117.84 21.9481C117.84 21.3228 117.701 20.8101 117.423 20.4099C117.171 20.0097 116.704 19.622 116.023 19.2468C115.367 18.8466 114.42 18.3839 113.184 17.8586C111.897 17.2833 110.824 16.7331 109.966 16.2078C109.133 15.6576 108.502 15.0323 108.073 14.3319C107.67 13.6066 107.468 12.7061 107.468 11.6306C107.468 9.9298 108.111 8.62917 109.398 7.72873C110.71 6.80329 112.439 6.34056 114.584 6.34056C115.796 6.34056 116.805 6.50314 117.613 6.8283C118.445 7.12844 119.064 7.54114 119.467 8.0664C119.896 8.59165 120.111 9.16693 120.111 9.79223C120.111 10.4676 119.871 11.0178 119.392 11.443C118.937 11.8432 118.269 12.0433 117.385 12.0433C117.385 10.7927 117.12 9.81724 116.59 9.1169C116.061 8.41657 115.24 8.0664 114.13 8.0664C112.843 8.0664 111.922 8.35404 111.367 8.92931C110.811 9.47958 110.534 10.1924 110.534 11.0678C110.534 12.0183 110.887 12.7562 111.594 13.2814C112.326 13.7817 113.537 14.3694 115.228 15.0448C116.565 15.595 117.65 16.1453 118.483 16.6956C119.316 17.2458 119.922 17.8836 120.3 18.609C120.704 19.3343 120.906 20.2223 120.906 21.2728C120.906 23.2237 120.224 24.6994 118.862 25.6999C117.499 26.6754 115.695 27.1631 113.449 27.1631Z" fill="#7D562D"/>
<path d="M131.663 27.1631C129.745 27.1631 128.344 26.7379 127.461 25.8875C126.603 25.0121 126.174 23.4988 126.174 21.3478V8.81676H123.297V7.31603C123.751 7.31603 124.256 7.22849 124.811 7.05341C125.366 6.85331 125.846 6.54066 126.25 6.11545C126.679 5.66524 127.032 5.11497 127.31 4.46466C127.587 3.81434 127.814 3.01396 127.991 2.0635H129.732V6.67823H134.691V8.81676H129.732V21.4604C129.732 22.736 129.997 23.6739 130.527 24.2742C131.057 24.8745 131.751 25.1747 132.609 25.1747C133.063 25.1747 133.48 25.1496 133.858 25.0996C134.237 25.0496 134.628 24.9871 135.032 24.912V26.5628C134.704 26.7129 134.212 26.8505 133.556 26.9755C132.899 27.1006 132.268 27.1631 131.663 27.1631Z" fill="#7D562D"/>
<path d="M146.599 27.1631C144.933 27.1631 143.444 26.813 142.132 26.1126C140.845 25.4123 139.823 24.3117 139.066 22.811C138.334 21.2853 137.968 19.2968 137.968 16.8456C137.968 14.1693 138.334 12.0683 139.066 10.5426C139.823 8.99184 140.832 7.90382 142.094 7.27852C143.381 6.6282 144.819 6.30305 146.409 6.30305C147.469 6.30305 148.504 6.44061 149.513 6.71574C150.523 6.99088 151.356 7.41608 152.012 7.99136C152.668 8.54162 152.996 9.25447 152.996 10.1299C152.996 10.7052 152.87 11.1679 152.617 11.5181C152.365 11.8682 151.986 12.1184 151.482 12.2684C151.002 12.4185 150.384 12.4935 149.627 12.4935C149.627 11.6931 149.526 10.9678 149.324 10.3175C149.147 9.66717 148.832 9.15442 148.378 8.77924C147.923 8.37905 147.267 8.17895 146.409 8.17895C145.45 8.17895 144.605 8.42907 143.873 8.92931C143.166 9.42955 142.611 10.305 142.208 11.5556C141.829 12.8062 141.64 14.557 141.64 16.8081C141.64 18.584 141.829 20.0597 142.208 21.2353C142.611 22.4108 143.23 23.2862 144.062 23.8615C144.895 24.4368 145.993 24.7244 147.356 24.7244C148.138 24.7244 148.857 24.6119 149.513 24.3868C150.169 24.1617 150.737 23.849 151.217 23.4488C151.721 23.0486 152.113 22.5984 152.39 22.0982C152.592 22.2482 152.744 22.4483 152.844 22.6985C152.971 22.9236 153.034 23.2112 153.034 23.5614C153.034 24.1367 152.794 24.6994 152.314 25.2497C151.835 25.8 151.116 26.2627 150.157 26.6379C149.223 26.988 148.037 27.1631 146.599 27.1631Z" fill="#2C3E50"/>
<path d="M165.381 27.1631C162.63 27.1631 160.473 26.2627 158.908 24.4618C157.369 22.6609 156.599 20.1347 156.599 16.8832C156.599 13.3815 157.331 10.7427 158.795 8.96683C160.258 7.19097 162.328 6.30305 165.003 6.30305C167.451 6.30305 169.368 7.05341 170.756 8.55413C172.17 10.0549 172.876 12.2934 172.876 15.2699V16.9957H160.271C160.321 19.722 160.813 21.7105 161.747 22.9611C162.706 24.1867 164.094 24.7995 165.911 24.7995C167.223 24.7995 168.334 24.5369 169.242 24.0116C170.176 23.4613 170.87 22.8485 171.324 22.1732C171.501 22.2482 171.665 22.3983 171.816 22.6234C171.968 22.8485 172.043 23.1237 172.043 23.4488C172.043 23.9491 171.804 24.4868 171.324 25.0621C170.845 25.6374 170.113 26.1376 169.129 26.5628C168.145 26.963 166.895 27.1631 165.381 27.1631ZM169.053 14.9697C169.053 12.9688 168.738 11.368 168.107 10.1674C167.501 8.94182 166.441 8.32902 164.927 8.32902C163.539 8.32902 162.454 8.9043 161.671 10.0549C160.914 11.1804 160.473 12.8187 160.347 14.9697H169.053Z" fill="#2C3E50"/>
<path d="M175.835 26.7879V25.2122H176.138C176.718 25.2122 177.235 25.1496 177.69 25.0246C178.169 24.8995 178.548 24.6494 178.825 24.2742C179.103 23.874 179.242 23.2862 179.242 22.5109V10.8052C179.242 10.0549 179.103 9.50459 178.825 9.15442C178.548 8.77924 178.182 8.54163 177.727 8.44158C177.273 8.31652 176.768 8.25399 176.213 8.25399H176.024V6.67823H182.156L182.648 9.71719H182.838C183.62 8.31652 184.491 7.40358 185.45 6.97837C186.434 6.52815 187.532 6.30305 188.743 6.30305C190.737 6.30305 192.289 6.89083 193.399 8.0664C194.535 9.21695 195.102 11.0804 195.102 13.6566V22.5109C195.102 23.2862 195.216 23.874 195.443 24.2742C195.695 24.6494 196.036 24.8995 196.465 25.0246C196.894 25.1496 197.386 25.2122 197.941 25.2122H198.131V26.7879H191.544V13.8442C191.544 12.2184 191.229 10.9553 190.598 10.0549C189.992 9.15442 188.92 8.7042 187.38 8.7042C186.245 8.7042 185.336 8.99184 184.655 9.56712C183.999 10.1174 183.519 10.8552 183.216 11.7807C182.939 12.7061 182.8 13.7066 182.8 14.7821V22.6985C182.8 23.4238 182.939 23.9741 183.216 24.3493C183.494 24.6994 183.86 24.937 184.314 25.0621C184.768 25.1622 185.273 25.2122 185.828 25.2122H186.017V26.7879H175.835Z" fill="#2C3E50"/>
<path d="M208.258 27.1631C206.34 27.1631 204.939 26.7379 204.056 25.8875C203.198 25.0121 202.769 23.4988 202.769 21.3478V8.81676H199.892V7.31603C200.346 7.31603 200.851 7.22849 201.406 7.05341C201.961 6.85331 202.441 6.54066 202.845 6.11545C203.274 5.66524 203.627 5.11497 203.905 4.46466C204.182 3.81434 204.409 3.01396 204.586 2.0635H206.327V6.67823H211.286V8.81676H206.327V21.4604C206.327 22.736 206.592 23.6739 207.122 24.2742C207.652 24.8745 208.346 25.1747 209.204 25.1747C209.658 25.1747 210.075 25.1496 210.453 25.0996C210.832 25.0496 211.223 24.9871 211.627 24.912V26.5628C211.299 26.7129 210.807 26.8505 210.15 26.9755C209.494 27.1006 208.863 27.1631 208.258 27.1631Z" fill="#2C3E50"/>
<path d="M223.345 27.1631C220.594 27.1631 218.437 26.2627 216.872 24.4618C215.333 22.6609 214.563 20.1347 214.563 16.8832C214.563 13.3815 215.295 10.7427 216.758 8.96683C218.222 7.19097 220.291 6.30305 222.966 6.30305C225.414 6.30305 227.332 7.05341 228.72 8.55413C230.133 10.0549 230.84 12.2934 230.84 15.2699V16.9957H218.235C218.285 19.722 218.777 21.7105 219.711 22.9611C220.67 24.1867 222.058 24.7995 223.875 24.7995C225.187 24.7995 226.298 24.5369 227.206 24.0116C228.14 23.4613 228.834 22.8485 229.288 22.1732C229.465 22.2482 229.629 22.3983 229.78 22.6234C229.932 22.8485 230.007 23.1237 230.007 23.4488C230.007 23.9491 229.768 24.4868 229.288 25.0621C228.809 25.6374 228.077 26.1376 227.092 26.5628C226.108 26.963 224.859 27.1631 223.345 27.1631ZM227.017 14.9697C227.017 12.9688 226.701 11.368 226.07 10.1674C225.465 8.94182 224.405 8.32902 222.891 8.32902C221.503 8.32902 220.418 8.9043 219.635 10.0549C218.878 11.1804 218.437 12.8187 218.31 14.9697H227.017Z" fill="#2C3E50"/>
<path d="M233.988 26.7879V25.2122H234.101C234.682 25.2122 235.199 25.1496 235.653 25.0246C236.133 24.8995 236.511 24.6494 236.789 24.2742C237.067 23.874 237.205 23.2862 237.205 22.5109V10.8052C237.205 10.0549 237.054 9.50459 236.751 9.15442C236.474 8.77924 236.095 8.54163 235.616 8.44158C235.161 8.31652 234.657 8.25399 234.101 8.25399H233.988V6.67823H239.817L240.537 10.3925H240.726C241.054 9.64216 241.407 8.95433 241.786 8.32902C242.164 7.70372 242.669 7.21599 243.3 6.86582C243.931 6.49064 244.801 6.30305 245.912 6.30305C247.3 6.30305 248.322 6.54066 248.978 7.01589C249.659 7.49112 250 8.16644 250 9.04187C250 9.81724 249.722 10.455 249.167 10.9553C248.637 11.4555 247.741 11.7057 246.48 11.7057C246.48 11.0053 246.417 10.4425 246.29 10.0173C246.164 9.59213 245.95 9.27948 245.647 9.07939C245.369 8.87929 244.978 8.77924 244.473 8.77924C243.767 8.77924 243.174 9.05437 242.694 9.60464C242.215 10.1549 241.836 10.8552 241.559 11.7057C241.281 12.5561 241.079 13.444 240.953 14.3694C240.827 15.2699 240.764 16.0828 240.764 16.8081V22.6985C240.764 23.4238 240.902 23.9741 241.18 24.3493C241.483 24.6994 241.861 24.937 242.316 25.0621C242.795 25.1622 243.312 25.2122 243.868 25.2122H244.928V26.7879H233.988Z" fill="#2C3E50"/>
<path d="M44.392 59.6163V41.1983H55.7482V42.2727H45.476V49.8701H54.1996V50.9445H45.476V58.5419H55.7482V59.6163H44.392Z" fill="#7D562D"/>
<path d="M81.1756 60C79.9195 60 78.7882 59.7996 77.7817 59.3989C76.7837 58.9896 75.9535 58.414 75.291 57.6722C74.6372 56.9303 74.1984 56.0521 73.9748 55.0374L75.0588 54.8327C75.3943 56.0947 76.1083 57.0923 77.2009 57.8257C78.2935 58.559 79.6184 58.9256 81.1756 58.9256C82.2596 58.9256 83.2059 58.7551 84.0146 58.414C84.8233 58.0729 85.4514 57.5954 85.8987 56.9815C86.3461 56.359 86.5698 55.6343 86.5698 54.8071C86.5698 54.1847 86.4536 53.6646 86.2214 53.2467C85.9891 52.8289 85.6923 52.4921 85.3309 52.2363C84.9782 51.972 84.6083 51.7631 84.2211 51.6096C83.834 51.4561 83.4899 51.3367 83.1887 51.2515L78.543 49.8701C77.872 49.674 77.2913 49.4352 76.8009 49.1539C76.3191 48.8725 75.9234 48.5527 75.6137 48.1946C75.3039 47.8365 75.0717 47.4442 74.9168 47.0179C74.7706 46.5915 74.6974 46.1353 74.6974 45.6493C74.6974 44.7114 74.9512 43.88 75.4588 43.1552C75.975 42.4219 76.6891 41.8506 77.601 41.4413C78.5129 41.0235 79.5668 40.8146 80.7627 40.8146C81.9757 40.8146 83.064 41.0363 84.0275 41.4797C84.9911 41.9231 85.7783 42.5498 86.3891 43.3599C87.0085 44.1614 87.3957 45.1036 87.5505 46.1865L86.4665 46.3912C86.3461 45.4958 86.0278 44.7114 85.5116 44.0377C84.9954 43.3556 84.3287 42.8269 83.5114 42.4518C82.6941 42.0766 81.7778 41.889 80.7627 41.889C79.7905 41.889 78.9345 42.0553 78.1946 42.3878C77.4633 42.7203 76.8912 43.168 76.4783 43.7308C76.0653 44.2935 75.8589 44.9245 75.8589 45.6237C75.8589 46.357 76.0567 46.9454 76.4525 47.3888C76.8568 47.8237 77.3472 48.1647 77.9236 48.412C78.5 48.6508 79.0506 48.8469 79.5754 49.0004L83.421 50.1515C83.7479 50.2453 84.148 50.386 84.6212 50.5736C85.0943 50.7526 85.5589 51.0127 86.0149 51.3538C86.4794 51.6949 86.8623 52.1468 87.1634 52.7095C87.4731 53.2638 87.628 53.963 87.628 54.8071C87.628 55.6001 87.4774 56.3164 87.1763 56.9559C86.8752 57.5954 86.4407 58.1411 85.8729 58.5931C85.3051 59.045 84.6255 59.3903 83.834 59.6291C83.0425 59.8764 82.1564 60 81.1756 60Z" fill="#7D562D"/>
<path d="M107.412 59.6163V41.1983H114.458C115.353 41.1983 116.178 41.3902 116.935 41.7739C117.693 42.149 118.299 42.6777 118.755 43.3599C119.211 44.042 119.439 44.8307 119.439 45.7261C119.439 46.6981 119.155 47.5934 118.587 48.412C118.019 49.2221 117.271 49.7934 116.342 50.1259L116.29 49.512C117.521 49.9042 118.506 50.5352 119.245 51.4049C119.994 52.2662 120.368 53.3491 120.368 54.6537C120.368 55.7025 120.127 56.5978 119.645 57.3396C119.164 58.0729 118.51 58.6357 117.684 59.0279C116.867 59.4202 115.955 59.6163 114.948 59.6163H107.412ZM108.496 58.5419H114.432C115.327 58.5419 116.131 58.3927 116.845 58.0943C117.568 57.7958 118.136 57.3652 118.549 56.8024C118.97 56.2397 119.181 55.5575 119.181 54.756C119.181 53.9545 118.987 53.2297 118.6 52.5816C118.222 51.9251 117.71 51.4049 117.065 51.0212C116.428 50.629 115.722 50.4329 114.948 50.4329H108.496V58.5419ZM108.496 49.3841H114.458C115.155 49.3841 115.791 49.2178 116.368 48.8853C116.953 48.5527 117.417 48.105 117.761 47.5423C118.106 46.9795 118.278 46.3485 118.278 45.6493C118.278 44.6261 117.908 43.8033 117.168 43.1808C116.437 42.5583 115.533 42.2471 114.458 42.2471H108.496V49.3841Z" fill="#7D562D"/>
<path d="M142.932 59.9744C141.814 59.9744 140.829 59.6504 139.977 59.0024C139.125 58.3543 138.57 57.4931 138.312 56.4187L139.422 56.1629C139.62 56.9389 140.037 57.5912 140.674 58.1198C141.31 58.64 142.08 58.9 142.984 58.9C143.543 58.9 144.102 58.7721 144.661 58.5163C145.221 58.2605 145.668 57.8342 146.003 57.2373C146.236 56.811 146.369 56.3633 146.404 55.8943C146.447 55.4253 146.468 54.8583 146.468 54.1932V41.1983H147.552V54.1932C147.552 54.6622 147.548 55.1013 147.539 55.5106C147.531 55.9114 147.483 56.2993 147.397 56.6745C147.32 57.0497 147.174 57.4249 146.958 57.8001C146.545 58.5163 145.982 59.0578 145.268 59.4244C144.562 59.7911 143.784 59.9744 142.932 59.9744Z" fill="#7D562D"/>
<path d="M168.667 59.6163V41.1983H180.023V42.2727H169.751V49.8701H178.475V50.9445H169.751V58.5419H180.023V59.6163H168.667Z" fill="#7D562D"/>
<path d="M200.316 59.6163V41.1983H207.155C207.336 41.1983 207.521 41.2068 207.71 41.2239C207.9 41.2324 208.11 41.258 208.343 41.3006C209.237 41.4371 210.012 41.7611 210.665 42.2727C211.328 42.7758 211.835 43.4153 212.188 44.1912C212.549 44.9586 212.73 45.8028 212.73 46.7237C212.73 48.0368 212.369 49.188 211.646 50.1771C210.924 51.1662 209.943 51.7972 208.704 52.07L208.497 52.2491H201.4V59.6163H200.316ZM211.956 59.6163L208.291 52.1212L209.22 51.4305L213.246 59.6163H211.956ZM201.4 51.1747H207.155C207.302 51.1747 207.474 51.1662 207.672 51.1491C207.878 51.1321 208.084 51.1065 208.291 51.0724C209.005 50.936 209.603 50.6546 210.085 50.2282C210.575 49.8019 210.945 49.286 211.195 48.6806C211.444 48.0667 211.569 47.4144 211.569 46.7237C211.569 46.033 211.444 45.385 211.195 44.7796C210.945 44.1656 210.575 43.6455 210.085 43.2192C209.603 42.7928 209.005 42.5114 208.291 42.375C208.084 42.3324 207.878 42.3068 207.672 42.2983C207.474 42.2812 207.302 42.2727 207.155 42.2727H201.4V51.1747Z" fill="#7D562D"/>
<path d="M240.604 60C239.219 60 238.006 59.7655 236.965 59.2965C235.924 58.8276 235.055 58.1667 234.358 57.314C233.662 56.4614 233.137 55.4509 232.784 54.2828C232.44 53.106 232.268 51.8142 232.268 50.4073C232.268 48.5314 232.578 46.8772 233.197 45.4447C233.816 44.0036 234.741 42.8781 235.971 42.068C237.21 41.2495 238.755 40.8402 240.604 40.8402C242.377 40.8402 243.852 41.2537 245.031 42.0808C246.209 42.8994 247.048 43.961 247.547 45.2656L246.489 45.7005C246.041 44.5494 245.314 43.6327 244.308 42.9506C243.301 42.2599 242.067 41.9146 240.604 41.9146C239.013 41.9146 237.688 42.2769 236.63 43.0017C235.58 43.718 234.789 44.7156 234.255 45.9947C233.722 47.2737 233.446 48.7446 233.429 50.4073C233.412 52.07 233.67 53.5409 234.204 54.8199C234.737 56.099 235.537 57.1051 236.604 57.8384C237.679 58.5632 239.013 58.9256 240.604 58.9256C242.196 58.9256 243.482 58.6144 244.463 57.9919C245.444 57.3609 246.158 56.4869 246.605 55.3699C247.061 54.2529 247.289 52.9568 247.289 51.4817H242.334V50.4073H248.399C248.425 50.646 248.437 50.8592 248.437 51.0468C248.446 51.2344 248.45 51.3879 248.45 51.5073C248.45 53.1103 248.179 54.5556 247.637 55.8432C247.095 57.1222 246.244 58.1369 245.082 58.8872C243.929 59.6291 242.437 60 240.604 60Z" fill="#7D562D"/>
</svg>
