<svg width="729" height="284" viewBox="0 0 729 284" fill="none" xmlns="http://www.w3.org/2000/svg">
<path d="M111.698 92.288C111.685 91.8741 111.338 91.5493 110.924 91.5628C110.51 91.5762 110.186 91.9227 110.199 92.3367L110.949 92.3124L111.698 92.288ZM84.8343 157.775L85.3431 157.224V157.224L84.8343 157.775ZM102.243 177.251L101.561 177.564V177.564L102.243 177.251ZM96.2783 196.19C95.9814 196.479 95.975 196.954 96.2639 197.251C96.5528 197.547 97.0276 197.554 97.3244 197.265L96.8014 196.728L96.2783 196.19ZM146.182 144.875C146.527 144.646 146.621 144.18 146.392 143.835C146.164 143.49 145.698 143.395 145.353 143.624L145.767 144.249L146.182 144.875ZM141.772 143.758L141.049 143.956V143.956L141.772 143.758ZM141.869 143.874L142.433 143.38V143.38L141.869 143.874ZM141.983 143.972L141.55 144.583H141.55L141.983 143.972ZM142.104 144.029L141.841 144.731H141.842L142.104 144.029ZM141.912 143.873L141.309 144.318V144.318L141.912 143.873ZM141.905 143.849L141.431 143.268V143.268L141.905 143.849ZM142.173 144.043L141.856 144.723V144.723L142.173 144.043ZM142.337 144.006L143.052 144.234V144.234L142.337 144.006ZM142.325 143.851L141.7 144.265V144.265L142.325 143.851ZM142.16 143.662L141.646 144.208V144.208L142.16 143.662ZM142.003 143.589L141.732 144.289V144.289L142.003 143.589ZM141.805 143.531L141.616 144.257V144.257L141.805 143.531ZM141.643 143.487L141.194 144.088V144.088L141.643 143.487ZM141.545 143.342L140.892 143.712V143.712L141.545 143.342ZM141.54 143.308L142.262 143.512V143.512L141.54 143.308ZM141.63 143.263L141.785 143.997V143.997L141.63 143.263ZM141.772 143.379L141.278 143.943V143.943L141.772 143.379ZM141.856 143.427L141.545 144.109L143.914 145.187L142.482 143.014L141.856 143.427ZM141.852 143.414L142.502 143.788V143.788L141.852 143.414ZM142.021 143.523L142.623 143.076V143.076L142.021 143.523ZM142.036 143.564L142.753 143.783V143.783L142.036 143.564ZM141.88 143.389L142.446 142.896V142.896L141.88 143.389ZM141.72 143.24L141.23 143.807V143.807L141.72 143.24ZM141.488 143.146L141.1 143.788V143.788L141.488 143.146ZM141.448 143.108L140.871 143.586V143.586L141.448 143.108ZM141.445 142.917L140.699 142.833V142.833L141.445 142.917ZM141.437 142.909L140.729 142.659V142.659L141.437 142.909ZM141.433 142.945L140.7 143.104V143.104L141.433 142.945ZM141.623 143.099L141.164 143.692V143.692L141.623 143.099ZM141.714 143.176L141.222 143.742V143.742L141.714 143.176ZM141.375 142.885L141.629 142.179V142.179L141.375 142.885ZM141.313 142.896L141.7 143.538V143.538L141.313 142.896ZM141.265 142.952L141.957 143.242V143.242L141.265 142.952ZM141.296 143.189L142.035 143.061V143.061L141.296 143.189ZM141.429 143.58L140.767 143.932V143.932L141.429 143.58ZM141.523 143.727L142.129 143.285V143.285L141.523 143.727ZM141.705 143.88L141.298 144.511V144.511L141.705 143.88ZM141.859 143.949L142.13 143.25V143.25L141.859 143.949ZM141.993 143.99L141.799 144.714L141.8 144.715L141.993 143.99ZM141.996 143.991L142.201 143.269L142.188 143.266L141.996 143.991ZM142.102 144.02L142.338 143.308L142.333 143.307L142.102 144.02ZM143.032 144.777L142.835 145.501V145.501L143.032 144.777ZM143.103 144.784L143.046 145.532L143.103 144.784ZM142.98 144.814L143.194 145.533V145.533L142.98 144.814ZM142.936 144.831L143.332 145.468V145.468L142.936 144.831ZM143.079 144.841L143.074 145.591V145.591L143.079 144.841ZM143.177 144.815L143.352 145.544V145.544L143.177 144.815ZM143.278 144.824L143.081 145.548L143.117 145.558L143.155 145.564L143.278 144.824ZM143.229 144.846L143.308 144.1V144.1L143.229 144.846ZM142.989 144.853L142.783 144.132L142.989 144.853ZM142.903 144.876L142.716 144.15L142.702 144.153L142.689 144.157L142.903 144.876ZM143.531 144.544L143.227 145.229V145.229L143.531 144.544ZM143.44 144.49L142.99 145.09V145.09L143.44 144.49ZM143.342 144.39L143.899 143.888V143.888L143.342 144.39ZM143.265 144.229L142.536 144.404V144.404L143.265 144.229ZM143.26 144.177L144.006 144.095V144.095L143.26 144.177ZM143.295 144.262L142.602 144.55V144.55L143.295 144.262ZM143.343 144.363L142.69 144.732V144.732L143.343 144.363ZM143.407 144.433L143.902 143.87L143.901 143.869L143.407 144.433ZM143.408 144.434L142.913 144.997L142.914 144.998L143.408 144.434ZM143.486 144.479L143.879 143.84V143.84L143.486 144.479ZM143.428 144.422L143.97 143.903V143.903L143.428 144.422ZM143.366 144.348L143.992 143.935V143.935L143.366 144.348ZM143.333 144.264L142.609 144.459L142.612 144.473L142.616 144.486L143.333 144.264ZM143.325 144.181L142.575 144.198L142.575 144.204L143.325 144.181ZM143.347 144.225L142.6 144.287L143.347 144.225ZM143.355 144.29L142.618 144.432V144.432L143.355 144.29ZM143.377 144.345L144.036 143.985V143.985L143.377 144.345ZM143.409 144.39L143.973 143.895V143.895L143.409 144.39ZM143.465 144.43L143.838 143.779L143.838 143.779L143.465 144.43ZM143.466 144.43L143.094 145.081L143.108 145.09L143.123 145.097L143.466 144.43ZM143.468 144.431L143.125 145.098L143.125 145.099L143.468 144.431ZM143.546 144.469L143.274 145.168L143.311 145.182L143.35 145.192L143.546 144.469ZM136.039 170.899L135.297 170.791L135.289 170.844V170.899H136.039ZM140.391 154.668L139.703 154.371H139.703L140.391 154.668ZM146.92 143.307L146.307 142.876L146.303 142.882L146.298 142.888L146.92 143.307ZM153.993 124.913L153.243 124.938V124.938L153.993 124.913ZM152.905 116.257L152.211 116.542V116.542L152.905 116.257ZM136.039 196.326L136.788 196.358L136.789 196.342V196.326H136.039ZM130.054 208.769L130.222 209.501V209.501L130.054 208.769ZM115.366 197.408L114.661 197.662V197.662L115.366 197.408ZM116.455 168.194L117.204 168.232L116.455 168.194ZM112.58 154.668L113.176 154.214V154.214L112.58 154.668ZM124.071 107.059L124.423 106.397V106.397L124.071 107.059ZM115.353 91.3698L114.62 91.5278V91.5278L115.353 91.3698ZM85.9747 91.9108L86.7221 91.8482L85.9747 91.9108ZM92.5031 116.257L91.822 116.57L92.5031 116.257ZM98.9475 129.109C99.1737 129.456 99.6383 129.554 99.9853 129.328C100.332 129.102 100.43 128.637 100.204 128.29L99.5758 128.7L98.9475 129.109ZM94.0821 144.79L94.7139 145.195V145.195L94.0821 144.79ZM138.236 125.448C138.011 125.1 137.547 125 137.199 125.225C136.851 125.45 136.752 125.914 136.977 126.262L137.606 125.855L138.236 125.448ZM110.949 92.3124L110.199 92.3367C110.458 100.318 105.041 106.062 98.0522 111.325C94.5563 113.957 90.7838 116.388 87.1806 118.937C83.6104 121.461 80.2483 124.075 77.7366 126.988L78.3047 127.478L78.8728 127.968C81.2581 125.201 84.4929 122.675 88.0467 120.161C91.5674 117.671 95.4457 115.165 98.9545 112.523C105.976 107.236 111.983 101.078 111.698 92.288L110.949 92.3124ZM78.3047 127.478L77.7366 126.988C72.6374 132.904 72.4203 139.077 74.4385 144.601C76.4369 150.071 80.6179 154.902 84.3254 158.326L84.8343 157.775L85.3431 157.224C81.7071 153.866 77.7263 149.229 75.8474 144.086C73.9882 138.998 74.1781 133.414 78.8728 127.968L78.3047 127.478ZM102.243 177.251L102.925 176.939C99.0444 168.468 92.8732 164.178 85.3431 157.224L84.8343 157.775L84.3254 158.326C92.0263 165.438 97.8434 169.447 101.561 177.564L102.243 177.251ZM96.8014 196.728C97.3244 197.265 97.3247 197.265 97.3249 197.265C97.3251 197.264 97.3254 197.264 97.3257 197.264C97.3262 197.263 97.3269 197.263 97.3278 197.262C97.3295 197.26 97.3318 197.258 97.3347 197.255C97.3405 197.249 97.3487 197.241 97.3591 197.231C97.3799 197.21 97.4097 197.18 97.4478 197.141C97.5239 197.063 97.6331 196.95 97.7694 196.803C98.042 196.509 98.4234 196.081 98.8655 195.537C99.7484 194.45 100.88 192.894 101.87 191.017C103.843 187.279 105.311 182.147 102.925 176.939L102.243 177.251L101.561 177.564C103.668 182.163 102.416 186.769 100.544 190.317C99.6118 192.084 98.5409 193.558 97.7014 194.591C97.2824 195.106 96.9227 195.51 96.6695 195.783C96.5429 195.92 96.4431 196.023 96.3759 196.092C96.3423 196.126 96.3169 196.152 96.3003 196.168C96.2921 196.176 96.286 196.182 96.2823 196.186C96.2805 196.188 96.2792 196.189 96.2785 196.19C96.2782 196.19 96.278 196.19 96.2779 196.19C96.2779 196.19 96.278 196.19 96.278 196.19C96.2781 196.19 96.2783 196.19 96.8014 196.728ZM145.767 144.249C145.353 143.624 145.353 143.624 145.353 143.624C145.354 143.624 145.354 143.624 145.354 143.624C145.354 143.623 145.355 143.623 145.355 143.623C145.355 143.623 145.356 143.622 145.356 143.622C145.357 143.622 145.357 143.621 145.357 143.621C145.357 143.621 145.356 143.622 145.353 143.624C145.348 143.627 145.337 143.634 145.32 143.644C145.288 143.662 145.235 143.691 145.166 143.724C145.026 143.79 144.824 143.87 144.585 143.923C144.113 144.027 143.52 144.024 142.917 143.624L142.503 144.249L142.089 144.875C143.119 145.557 144.157 145.554 144.909 145.388C145.282 145.305 145.591 145.182 145.808 145.079C145.917 145.028 146.005 144.98 146.068 144.944C146.099 144.926 146.125 144.911 146.144 144.899C146.153 144.893 146.161 144.888 146.168 144.884C146.171 144.882 146.174 144.88 146.176 144.878C146.177 144.878 146.178 144.877 146.179 144.876C146.18 144.876 146.18 144.876 146.181 144.875C146.181 144.875 146.181 144.875 146.181 144.875C146.181 144.875 146.182 144.875 145.767 144.249ZM136.039 170.899H135.289V196.326H136.039H136.789V170.899H136.039ZM136.039 196.326C135.29 196.295 135.29 196.294 135.29 196.294C135.29 196.294 135.29 196.294 135.29 196.294C135.29 196.294 135.29 196.295 135.29 196.295C135.29 196.296 135.29 196.298 135.289 196.3C135.289 196.304 135.289 196.311 135.288 196.321C135.288 196.34 135.286 196.369 135.284 196.408C135.279 196.486 135.272 196.602 135.26 196.752C135.237 197.05 135.198 197.481 135.135 198.002C135.007 199.047 134.782 200.446 134.391 201.877C133.998 203.313 133.449 204.744 132.692 205.876C131.937 207.005 131.016 207.78 129.887 208.038L130.054 208.769L130.222 209.501C131.849 209.128 133.055 208.031 133.939 206.709C134.821 205.39 135.423 203.788 135.838 202.272C136.254 200.75 136.491 199.274 136.624 198.184C136.69 197.637 136.731 197.184 136.756 196.867C136.768 196.708 136.776 196.582 136.781 196.496C136.784 196.453 136.785 196.419 136.787 196.396C136.787 196.384 136.788 196.375 136.788 196.369C136.788 196.366 136.788 196.363 136.788 196.361C136.788 196.36 136.788 196.36 136.788 196.359C136.788 196.359 136.788 196.358 136.788 196.358C136.788 196.358 136.788 196.358 136.039 196.326ZM130.054 208.769L129.887 208.038C126.941 208.713 124.129 207.729 121.707 205.683C119.277 203.63 117.288 200.54 116.072 197.155L115.366 197.408L114.661 197.662C115.946 201.241 118.067 204.572 120.739 206.829C123.418 209.093 126.699 210.307 130.222 209.501L130.054 208.769ZM115.366 197.408L116.072 197.155C114.777 193.547 114.921 188.408 115.482 183.046C115.761 180.381 116.137 177.706 116.472 175.174C116.806 172.653 117.099 170.271 117.204 168.232L116.455 168.194L115.706 168.155C115.605 170.126 115.319 172.452 114.985 174.978C114.653 177.492 114.272 180.199 113.99 182.889C113.431 188.236 113.236 193.695 114.661 197.662L115.366 197.408ZM116.455 168.194L117.204 168.232C117.33 165.757 117.287 163.557 116.772 161.383C116.255 159.2 115.272 157.083 113.574 154.747L112.967 155.188L112.36 155.629C113.961 157.83 114.847 159.768 115.312 161.729C115.779 163.699 115.83 165.734 115.706 168.155L116.455 168.194ZM112.967 155.188L113.574 154.747C113.445 154.57 113.313 154.393 113.176 154.214L112.58 154.668L111.984 155.123C112.113 155.293 112.239 155.462 112.36 155.629L112.967 155.188ZM152.905 116.257L153.598 115.971C152.567 113.468 150.629 111.908 148.26 110.904C145.913 109.908 143.099 109.44 140.225 109.127C138.784 108.971 137.308 108.851 135.857 108.728C134.401 108.604 132.967 108.476 131.587 108.3C128.815 107.948 126.338 107.413 124.423 106.397L124.071 107.059L123.72 107.722C125.885 108.87 128.585 109.431 131.398 109.788C132.812 109.968 134.274 110.099 135.73 110.222C137.191 110.347 138.644 110.464 140.063 110.619C142.91 110.928 145.54 111.38 147.675 112.285C149.789 113.181 151.37 114.501 152.211 116.542L152.905 116.257ZM124.071 107.059L124.423 106.397C121.297 104.739 119.646 102.831 118.559 100.445C117.442 97.9972 116.914 95.0506 116.087 91.2118L115.353 91.3698L114.62 91.5278C115.425 95.2631 115.991 98.4301 117.194 101.068C118.425 103.768 120.317 105.917 123.72 107.722L124.071 107.059ZM99.0448 75.1394L98.9302 75.8806C103.791 76.6325 107.301 78.7147 109.799 81.4983C112.306 84.2927 113.824 87.831 114.62 91.5278L115.353 91.3698L116.087 91.2118C115.251 87.3346 113.641 83.5352 110.915 80.4966C108.179 77.4474 104.352 75.2015 99.1595 74.3982L99.0448 75.1394ZM99.0448 75.1394L99.1595 74.3982C96.4863 73.9847 94.2063 74.4594 92.3134 75.5395C90.4314 76.6132 88.975 78.26 87.8875 80.1304C85.7225 83.8541 84.9439 88.5924 85.2273 91.9735L85.9747 91.9108L86.7221 91.8482C86.4613 88.7371 87.1913 84.3122 89.1842 80.8843C90.1757 79.179 91.4606 77.753 93.0567 76.8423C94.6419 75.9379 96.5769 75.5165 98.9302 75.8806L99.0448 75.1394ZM85.9747 91.9108L85.2273 91.9735C85.7637 98.3702 87.7869 107.816 91.822 116.57L92.5031 116.257L93.1842 115.943C89.2304 107.364 87.2455 98.0913 86.7221 91.8482L85.9747 91.9108ZM92.5031 116.257L91.822 116.57C93.0918 119.326 94.8765 122.464 96.3354 124.902C97.0665 126.123 97.7188 127.174 98.1884 127.92C98.4233 128.292 98.6127 128.589 98.7435 128.793C98.8089 128.895 98.8597 128.974 98.8942 129.027C98.9115 129.054 98.9247 129.074 98.9336 129.088C98.9381 129.095 98.9415 129.1 98.9438 129.104C98.945 129.105 98.9459 129.107 98.9465 129.108C98.9468 129.108 98.947 129.108 98.9472 129.109C98.9473 129.109 98.9474 129.109 98.9474 129.109C98.9475 129.109 98.9475 129.109 99.5758 128.7C100.204 128.29 100.204 128.29 100.204 128.29C100.204 128.29 100.204 128.29 100.204 128.29C100.204 128.29 100.204 128.289 100.203 128.289C100.203 128.288 100.202 128.287 100.201 128.285C100.199 128.282 100.196 128.277 100.192 128.271C100.183 128.258 100.17 128.238 100.154 128.212C100.12 128.16 100.07 128.083 100.006 127.983C99.8771 127.782 99.6901 127.489 99.4576 127.12C98.9927 126.382 98.3465 125.341 97.6226 124.131C96.1715 121.707 94.4198 118.623 93.1842 115.943L92.5031 116.257ZM112.58 154.668L113.176 154.214C110.795 151.092 107.067 147.067 103.418 144.564C101.602 143.318 99.7259 142.394 97.9965 142.209C97.1192 142.116 96.2593 142.211 95.4673 142.57C94.6721 142.931 93.994 143.537 93.4504 144.386L94.0821 144.79L94.7139 145.195C95.1224 144.556 95.5893 144.162 96.0872 143.936C96.5884 143.709 97.1699 143.63 97.8374 143.701C99.1978 143.846 100.826 144.605 102.569 145.801C106.039 148.181 109.656 152.071 111.984 155.123L112.58 154.668ZM94.0821 144.79L93.4504 144.386C92.3983 146.03 92.2356 147.76 92.7126 149.396C93.1822 151.007 94.2587 152.492 95.6308 153.745C98.3638 156.24 102.461 157.984 106.051 157.984V157.234V156.484C102.879 156.484 99.1327 154.911 96.6421 152.637C95.4024 151.505 94.5221 150.243 94.1527 148.976C93.7907 147.735 93.9068 146.456 94.7139 145.195L94.0821 144.79ZM106.051 157.234V157.984C109.094 157.984 111.501 157.125 113.396 155.803L112.967 155.188L112.538 154.573C110.899 155.716 108.792 156.484 106.051 156.484V157.234ZM112.967 155.188L113.396 155.803C116.352 153.74 117.99 150.604 118.938 148.058C119.415 146.778 119.726 145.626 119.94 144.809C120.049 144.391 120.127 144.087 120.191 143.881C120.206 143.832 120.219 143.794 120.229 143.766C120.24 143.737 120.245 143.727 120.244 143.729C120.243 143.731 120.238 143.741 120.228 143.756C120.22 143.77 120.202 143.797 120.172 143.83C120.132 143.875 119.957 144.057 119.653 144.057V143.307V142.557C119.323 142.557 119.122 142.754 119.054 142.831C118.974 142.92 118.925 143.012 118.898 143.067C118.841 143.182 118.795 143.317 118.758 143.437C118.682 143.684 118.592 144.036 118.489 144.429C118.277 145.235 117.982 146.328 117.533 147.534C116.628 149.961 115.129 152.765 112.538 154.573L112.967 155.188ZM140.391 154.668L141.08 154.966C141.737 153.446 142.666 151.699 143.623 150.033L142.973 149.66L142.322 149.286C141.354 150.972 140.393 152.775 139.703 154.371L140.391 154.668ZM142.973 149.66L143.623 150.033C144.394 148.691 145.177 147.41 145.839 146.357L145.204 145.958L144.569 145.559C143.9 146.624 143.106 147.922 142.322 149.286L142.973 149.66ZM145.204 145.958L145.839 146.357C146.334 145.57 146.76 144.912 147.063 144.45C147.214 144.219 147.334 144.038 147.416 143.914C147.457 143.853 147.489 143.805 147.51 143.774C147.521 143.758 147.529 143.746 147.534 143.738C147.537 143.734 147.539 143.731 147.54 143.729C147.541 143.728 147.541 143.728 147.541 143.727C147.542 143.727 147.542 143.727 147.542 143.727C147.542 143.727 147.542 143.727 147.542 143.727C147.542 143.727 147.542 143.727 146.92 143.307C146.298 142.888 146.298 142.888 146.298 142.888C146.298 142.888 146.298 142.888 146.298 142.888C146.298 142.888 146.298 142.888 146.298 142.888C146.298 142.888 146.298 142.888 146.298 142.889C146.297 142.889 146.297 142.89 146.296 142.891C146.295 142.893 146.292 142.897 146.289 142.901C146.284 142.909 146.275 142.922 146.264 142.938C146.242 142.971 146.21 143.02 146.168 143.083C146.084 143.209 145.961 143.394 145.808 143.628C145.501 144.096 145.07 144.763 144.569 145.559L145.204 145.958ZM119.653 143.307V144.057C119.425 144.057 119.276 143.95 119.254 143.935C119.23 143.918 119.213 143.903 119.204 143.895C119.194 143.887 119.189 143.881 119.187 143.879C119.186 143.878 119.204 143.898 119.247 143.956C119.331 144.069 119.448 144.242 119.61 144.485C119.926 144.958 120.374 145.638 120.941 146.415C122.073 147.968 123.701 149.941 125.783 151.541C127.868 153.143 130.445 154.398 133.459 154.438C136.483 154.479 139.835 153.296 143.457 150.232L142.973 149.66L142.488 149.087C139.075 151.974 136.062 152.973 133.479 152.938C130.887 152.904 128.616 151.826 126.697 150.352C124.776 148.876 123.246 147.03 122.153 145.531C121.608 144.784 121.177 144.131 120.858 143.652C120.702 143.418 120.562 143.211 120.452 143.062C120.398 142.99 120.335 142.909 120.268 142.839C120.236 142.806 120.183 142.754 120.114 142.706C120.067 142.673 119.898 142.557 119.653 142.557V143.307ZM153.993 124.913L154.742 124.887C154.637 121.768 154.964 119.287 153.598 115.971L152.905 116.257L152.211 116.542C153.443 119.531 153.131 121.597 153.243 124.938L153.993 124.913ZM146.92 143.307C147.534 143.739 147.534 143.738 147.534 143.738C147.534 143.738 147.534 143.738 147.534 143.738C147.535 143.737 147.535 143.737 147.536 143.736C147.537 143.734 147.538 143.732 147.54 143.729C147.544 143.724 147.55 143.715 147.557 143.705C147.572 143.683 147.593 143.652 147.621 143.612C147.677 143.531 147.757 143.412 147.859 143.259C148.064 142.952 148.354 142.506 148.7 141.948C149.393 140.831 150.314 139.257 151.228 137.43C153.039 133.807 154.883 129.066 154.742 124.887L153.993 124.913L153.243 124.938C153.37 128.72 151.678 133.175 149.886 136.759C148.998 138.536 148.101 140.069 147.426 141.157C147.088 141.701 146.807 142.133 146.611 142.428C146.513 142.575 146.436 142.688 146.384 142.764C146.358 142.802 146.338 142.83 146.325 142.849C146.319 142.858 146.314 142.865 146.311 142.87C146.309 142.872 146.308 142.874 146.307 142.875C146.307 142.875 146.307 142.875 146.307 142.876C146.307 142.876 146.307 142.876 146.307 142.876C146.307 142.876 146.307 142.876 146.92 143.307Z" fill="#7D562D"/>
<path d="M172.344 132V128.304H173.488C174.837 128.304 176.04 128.157 177.096 127.864C178.211 127.571 179.091 126.984 179.736 126.104C180.381 125.165 180.704 123.787 180.704 121.968V78.848C180.704 77.088 180.352 75.7973 179.648 74.976C179.003 74.096 178.123 73.5387 177.008 73.304C175.952 73.0107 174.779 72.864 173.488 72.864H172.344V69.168H195.928C203.555 69.168 209.216 70.4587 212.912 73.04C216.667 75.5627 218.544 79.5227 218.544 84.92C218.544 87.5013 218.075 89.7013 217.136 91.52C216.197 93.3387 214.907 94.8347 213.264 96.008C211.621 97.1227 209.744 98.032 207.632 98.736V99.088C210.331 99.5573 212.677 100.467 214.672 101.816C216.725 103.107 218.309 104.867 219.424 107.096C220.597 109.267 221.184 111.907 221.184 115.016C221.184 120.707 219.307 124.96 215.552 127.776C211.856 130.592 206.195 132 198.568 132H172.344ZM198.128 127.6C203.115 127.6 206.635 126.632 208.688 124.696C210.741 122.76 211.768 119.445 211.768 114.752C211.768 111.701 211.357 109.179 210.536 107.184C209.715 105.189 208.336 103.723 206.4 102.784C204.464 101.787 201.765 101.288 198.304 101.288H189.592V127.6H198.128ZM195.664 96.888C199.125 96.888 201.824 96.4773 203.76 95.656C205.696 94.8347 207.075 93.544 207.896 91.784C208.717 90.024 209.128 87.736 209.128 84.92C209.128 80.5787 208.101 77.616 206.048 76.032C203.995 74.3893 200.475 73.568 195.488 73.568H189.592V96.888H195.664ZM229.482 132V128.304H229.746C231.095 128.304 232.298 128.157 233.354 127.864C234.469 127.571 235.349 126.984 235.994 126.104C236.639 125.165 236.962 123.787 236.962 121.968V94.512C236.962 92.752 236.61 91.4613 235.906 90.64C235.261 89.76 234.381 89.2027 233.266 88.968C232.21 88.6747 231.037 88.528 229.746 88.528H229.482V84.832H243.034L244.706 93.544H245.146C245.909 91.784 246.73 90.1707 247.61 88.704C248.49 87.2373 249.663 86.0933 251.13 85.272C252.597 84.392 254.621 83.952 257.202 83.952C260.429 83.952 262.805 84.5093 264.33 85.624C265.914 86.7387 266.706 88.3227 266.706 90.376C266.706 92.1947 266.061 93.6907 264.77 94.864C263.538 96.0373 261.455 96.624 258.522 96.624C258.522 94.9813 258.375 93.6613 258.082 92.664C257.789 91.6667 257.29 90.9333 256.586 90.464C255.941 89.9947 255.031 89.76 253.858 89.76C252.215 89.76 250.837 90.4053 249.722 91.696C248.607 92.9867 247.727 94.6293 247.082 96.624C246.437 98.6187 245.967 100.701 245.674 102.872C245.381 104.984 245.234 106.891 245.234 108.592V122.408C245.234 124.109 245.557 125.4 246.202 126.28C246.906 127.101 247.786 127.659 248.842 127.952C249.957 128.187 251.159 128.304 252.45 128.304H254.914V132H229.482ZM271.344 148.984C274.336 148.984 276.917 148.544 279.088 147.664C281.259 146.784 283.107 145.552 284.632 143.968C286.157 142.443 287.448 140.624 288.504 138.512C289.56 136.4 290.44 134.112 291.144 131.648L274.864 93.192C274.336 91.96 273.808 91.0213 273.28 90.376C272.752 89.672 272.136 89.2027 271.432 88.968C270.728 88.6747 269.789 88.528 268.616 88.528H268.352V84.832H289.472V88.528H289.208C287.448 88.528 286.128 88.88 285.248 89.584C284.368 90.2293 283.928 91.2853 283.928 92.752C283.928 93.2213 283.987 93.72 284.104 94.248C284.221 94.776 284.397 95.3627 284.632 96.008L291.056 111.672C291.643 113.021 292.2 114.517 292.728 116.16C293.315 117.744 293.843 119.269 294.312 120.736C294.781 122.203 295.104 123.435 295.28 124.432C295.691 122.731 296.219 120.971 296.864 119.152C297.568 117.333 298.213 115.544 298.8 113.784L304.696 96.624C304.989 95.92 305.195 95.2453 305.312 94.6C305.429 93.896 305.488 93.3093 305.488 92.84C305.488 91.3147 304.989 90.2293 303.992 89.584C303.053 88.88 301.616 88.528 299.68 88.528H299.416V84.832H317.72V88.528H317.456C316.341 88.528 315.403 88.704 314.64 89.056C313.877 89.408 313.203 90.0827 312.616 91.08C312.088 92.0773 311.472 93.5147 310.768 95.392L297.392 132.352C295.867 136.635 294.4 140.125 292.992 142.824C291.584 145.523 290 147.605 288.24 149.072C286.539 150.597 284.397 151.653 281.816 152.24C279.235 152.827 276.008 153.12 272.136 153.12H271.344V148.984ZM336.238 132.88C333.304 132.88 330.752 132.528 328.582 131.824C326.411 131.12 324.71 130.093 323.478 128.744C322.304 127.336 321.718 125.605 321.718 123.552C321.718 121.968 322.04 120.736 322.686 119.856C323.331 118.976 324.064 118.36 324.886 118.008C325.766 117.656 326.558 117.48 327.262 117.48C327.262 120.531 327.936 123.171 329.286 125.4C330.694 127.571 333.187 128.656 336.766 128.656C339.875 128.656 342.251 127.923 343.894 126.456C345.595 124.931 346.446 122.995 346.446 120.648C346.446 119.181 346.123 117.979 345.478 117.04C344.891 116.101 343.806 115.192 342.222 114.312C340.696 113.373 338.496 112.288 335.622 111.056C332.63 109.707 330.136 108.416 328.142 107.184C326.206 105.893 324.739 104.427 323.742 102.784C322.803 101.083 322.334 98.9707 322.334 96.448C322.334 92.4587 323.83 89.408 326.822 87.296C329.872 85.1253 333.891 84.04 338.878 84.04C341.694 84.04 344.04 84.4213 345.918 85.184C347.854 85.888 349.291 86.856 350.23 88.088C351.227 89.32 351.726 90.6693 351.726 92.136C351.726 93.72 351.168 95.0107 350.054 96.008C348.998 96.9467 347.443 97.416 345.39 97.416C345.39 94.4827 344.774 92.1947 343.542 90.552C342.31 88.9093 340.403 88.088 337.822 88.088C334.83 88.088 332.688 88.7627 331.398 90.112C330.107 91.4027 329.462 93.0747 329.462 95.128C329.462 97.3573 330.283 99.088 331.926 100.32C333.627 101.493 336.443 102.872 340.374 104.456C343.483 105.747 346.006 107.037 347.942 108.328C349.878 109.619 351.286 111.115 352.166 112.816C353.104 114.517 353.574 116.6 353.574 119.064C353.574 123.64 351.99 127.101 348.822 129.448C345.654 131.736 341.459 132.88 336.238 132.88ZM378.581 132.88C374.122 132.88 370.866 131.883 368.813 129.888C366.818 127.835 365.821 124.285 365.821 119.24V89.848H359.133V86.328C360.189 86.328 361.362 86.1227 362.653 85.712C363.944 85.2427 365.058 84.5093 365.997 83.512C366.994 82.456 367.816 81.1653 368.461 79.64C369.106 78.1147 369.634 76.2373 370.045 74.008H374.093V84.832H385.621V89.848H374.093V119.504C374.093 122.496 374.709 124.696 375.941 126.104C377.173 127.512 378.786 128.216 380.781 128.216C381.837 128.216 382.805 128.157 383.685 128.04C384.565 127.923 385.474 127.776 386.413 127.6V131.472C385.65 131.824 384.506 132.147 382.981 132.44C381.456 132.733 379.989 132.88 378.581 132.88Z" fill="#7D562D"/>
<path d="M413.302 132.88C409.43 132.88 405.969 132.059 402.918 130.416C399.926 128.773 397.55 126.192 395.79 122.672C394.089 119.093 393.238 114.429 393.238 108.68C393.238 102.403 394.089 97.4747 395.79 93.896C397.55 90.2587 399.897 87.7067 402.83 86.24C405.822 84.7147 409.166 83.952 412.862 83.952C415.326 83.952 417.732 84.2747 420.078 84.92C422.425 85.5653 424.361 86.5627 425.886 87.912C427.412 89.2027 428.174 90.8747 428.174 92.928C428.174 94.2773 427.881 95.3627 427.294 96.184C426.708 97.0053 425.828 97.592 424.654 97.944C423.54 98.296 422.102 98.472 420.342 98.472C420.342 96.5947 420.108 94.8933 419.638 93.368C419.228 91.8427 418.494 90.64 417.438 89.76C416.382 88.8213 414.857 88.352 412.862 88.352C410.633 88.352 408.668 88.9387 406.966 90.112C405.324 91.2853 404.033 93.3387 403.094 96.272C402.214 99.2053 401.774 103.312 401.774 108.592C401.774 112.757 402.214 116.219 403.094 118.976C404.033 121.733 405.47 123.787 407.406 125.136C409.342 126.485 411.894 127.16 415.062 127.16C416.881 127.16 418.553 126.896 420.078 126.368C421.604 125.84 422.924 125.107 424.038 124.168C425.212 123.229 426.121 122.173 426.766 121C427.236 121.352 427.588 121.821 427.822 122.408C428.116 122.936 428.262 123.611 428.262 124.432C428.262 125.781 427.705 127.101 426.59 128.392C425.476 129.683 423.804 130.768 421.574 131.648C419.404 132.469 416.646 132.88 413.302 132.88ZM456.967 132.88C450.572 132.88 445.556 130.768 441.919 126.544C438.34 122.32 436.551 116.395 436.551 108.768C436.551 100.555 438.252 94.3653 441.655 90.2C445.058 86.0347 449.868 83.952 456.087 83.952C461.778 83.952 466.236 85.712 469.463 89.232C472.748 92.752 474.391 98.0027 474.391 104.984V109.032H445.087C445.204 115.427 446.348 120.091 448.519 123.024C450.748 125.899 453.975 127.336 458.199 127.336C461.25 127.336 463.831 126.72 465.943 125.488C468.114 124.197 469.727 122.76 470.783 121.176C471.194 121.352 471.575 121.704 471.927 122.232C472.279 122.76 472.455 123.405 472.455 124.168C472.455 125.341 471.898 126.603 470.783 127.952C469.668 129.301 467.967 130.475 465.679 131.472C463.391 132.411 460.487 132.88 456.967 132.88ZM465.503 104.28C465.503 99.5867 464.77 95.832 463.303 93.016C461.895 90.1413 459.431 88.704 455.911 88.704C452.684 88.704 450.162 90.0533 448.343 92.752C446.583 95.392 445.556 99.2347 445.263 104.28H465.503ZM481.269 132V128.304H481.973C483.322 128.304 484.525 128.157 485.581 127.864C486.695 127.571 487.575 126.984 488.221 126.104C488.866 125.165 489.189 123.787 489.189 121.968V94.512C489.189 92.752 488.866 91.4613 488.221 90.64C487.575 89.76 486.725 89.2027 485.669 88.968C484.613 88.6747 483.439 88.528 482.149 88.528H481.709V84.832H495.965L497.109 91.96H497.549C499.367 88.6747 501.391 86.5333 503.621 85.536C505.909 84.48 508.461 83.952 511.277 83.952C515.911 83.952 519.519 85.3307 522.101 88.088C524.741 90.7867 526.061 95.1573 526.061 101.2V121.968C526.061 123.787 526.325 125.165 526.853 126.104C527.439 126.984 528.231 127.571 529.229 127.864C530.226 128.157 531.37 128.304 532.661 128.304H533.101V132H517.789V101.64C517.789 97.8267 517.055 94.864 515.589 92.752C514.181 90.64 511.687 89.584 508.109 89.584C505.469 89.584 503.357 90.2587 501.773 91.608C500.247 92.8987 499.133 94.6293 498.429 96.8C497.783 98.9707 497.461 101.317 497.461 103.84V122.408C497.461 124.109 497.783 125.4 498.429 126.28C499.074 127.101 499.925 127.659 500.981 127.952C502.037 128.187 503.21 128.304 504.501 128.304H504.941V132H481.269ZM556.643 132.88C552.185 132.88 548.929 131.883 546.875 129.888C544.881 127.835 543.883 124.285 543.883 119.24V89.848H537.195V86.328C538.251 86.328 539.425 86.1227 540.715 85.712C542.006 85.2427 543.121 84.5093 544.059 83.512C545.057 82.456 545.878 81.1653 546.523 79.64C547.169 78.1147 547.697 76.2373 548.107 74.008H552.155V84.832H563.683V89.848H552.155V119.504C552.155 122.496 552.771 124.696 554.003 126.104C555.235 127.512 556.849 128.216 558.843 128.216C559.899 128.216 560.867 128.157 561.747 128.04C562.627 127.923 563.537 127.776 564.475 127.6V131.472C563.713 131.824 562.569 132.147 561.043 132.44C559.518 132.733 558.051 132.88 556.643 132.88ZM591.717 132.88C585.322 132.88 580.306 130.768 576.669 126.544C573.09 122.32 571.301 116.395 571.301 108.768C571.301 100.555 573.002 94.3653 576.405 90.2C579.808 86.0347 584.618 83.952 590.837 83.952C596.528 83.952 600.986 85.712 604.213 89.232C607.498 92.752 609.141 98.0027 609.141 104.984V109.032H579.837C579.954 115.427 581.098 120.091 583.269 123.024C585.498 125.899 588.725 127.336 592.949 127.336C596 127.336 598.581 126.72 600.693 125.488C602.864 124.197 604.477 122.76 605.533 121.176C605.944 121.352 606.325 121.704 606.677 122.232C607.029 122.76 607.205 123.405 607.205 124.168C607.205 125.341 606.648 126.603 605.533 127.952C604.418 129.301 602.717 130.475 600.429 131.472C598.141 132.411 595.237 132.88 591.717 132.88ZM600.253 104.28C600.253 99.5867 599.52 95.832 598.053 93.016C596.645 90.1413 594.181 88.704 590.661 88.704C587.434 88.704 584.912 90.0533 583.093 92.752C581.333 95.392 580.306 99.2347 580.013 104.28H600.253ZM616.459 132V128.304H616.723C618.072 128.304 619.275 128.157 620.331 127.864C621.445 127.571 622.325 126.984 622.971 126.104C623.616 125.165 623.939 123.787 623.939 121.968V94.512C623.939 92.752 623.587 91.4613 622.883 90.64C622.237 89.76 621.357 89.2027 620.243 88.968C619.187 88.6747 618.013 88.528 616.723 88.528H616.459V84.832H630.011L631.683 93.544H632.123C632.885 91.784 633.707 90.1707 634.587 88.704C635.467 87.2373 636.64 86.0933 638.107 85.272C639.573 84.392 641.597 83.952 644.179 83.952C647.405 83.952 649.781 84.5093 651.307 85.624C652.891 86.7387 653.683 88.3227 653.683 90.376C653.683 92.1947 653.037 93.6907 651.747 94.864C650.515 96.0373 648.432 96.624 645.499 96.624C645.499 94.9813 645.352 93.6613 645.059 92.664C644.765 91.6667 644.267 90.9333 643.563 90.464C642.917 89.9947 642.008 89.76 640.835 89.76C639.192 89.76 637.813 90.4053 636.699 91.696C635.584 92.9867 634.704 94.6293 634.059 96.624C633.413 98.6187 632.944 100.701 632.651 102.872C632.357 104.984 632.211 106.891 632.211 108.592V122.408C632.211 124.109 632.533 125.4 633.179 126.28C633.883 127.101 634.763 127.659 635.819 127.952C636.933 128.187 638.136 128.304 639.427 128.304H641.891V132H616.459Z" fill="#2C3E50"/>
<path d="M175.7 209V165.8H202.1V168.32H178.22V186.14H198.5V188.66H178.22V206.48H202.1V209H175.7ZM261.212 209.9C258.292 209.9 255.662 209.43 253.322 208.49C251.002 207.53 249.072 206.18 247.532 204.44C246.012 202.7 244.992 200.64 244.472 198.26L246.992 197.78C247.772 200.74 249.432 203.08 251.972 204.8C254.512 206.52 257.592 207.38 261.212 207.38C263.732 207.38 265.932 206.98 267.812 206.18C269.692 205.38 271.152 204.26 272.192 202.82C273.232 201.36 273.752 199.66 273.752 197.72C273.752 196.26 273.482 195.04 272.942 194.06C272.402 193.08 271.712 192.29 270.872 191.69C270.052 191.07 269.192 190.58 268.292 190.22C267.392 189.86 266.592 189.58 265.892 189.38L255.092 186.14C253.532 185.68 252.182 185.12 251.042 184.46C249.922 183.8 249.002 183.05 248.282 182.21C247.562 181.37 247.022 180.45 246.662 179.45C246.322 178.45 246.152 177.38 246.152 176.24C246.152 174.04 246.742 172.09 247.922 170.39C249.122 168.67 250.782 167.33 252.902 166.37C255.022 165.39 257.472 164.9 260.252 164.9C263.072 164.9 265.602 165.42 267.842 166.46C270.082 167.5 271.912 168.97 273.332 170.87C274.772 172.75 275.672 174.96 276.032 177.5L273.512 177.98C273.232 175.88 272.492 174.04 271.292 172.46C270.092 170.86 268.542 169.62 266.642 168.74C264.742 167.86 262.612 167.42 260.252 167.42C257.992 167.42 256.002 167.81 254.282 168.59C252.582 169.37 251.252 170.42 250.292 171.74C249.332 173.06 248.852 174.54 248.852 176.18C248.852 177.9 249.312 179.28 250.232 180.32C251.172 181.34 252.312 182.14 253.652 182.72C254.992 183.28 256.272 183.74 257.492 184.1L266.432 186.8C267.192 187.02 268.122 187.35 269.222 187.79C270.322 188.21 271.402 188.82 272.462 189.62C273.542 190.42 274.432 191.48 275.132 192.8C275.852 194.1 276.212 195.74 276.212 197.72C276.212 199.58 275.862 201.26 275.162 202.76C274.462 204.26 273.452 205.54 272.132 206.6C270.812 207.66 269.232 208.47 267.392 209.03C265.552 209.61 263.492 209.9 261.212 209.9ZM322.204 209V165.8H338.584C340.664 165.8 342.584 166.25 344.344 167.15C346.104 168.03 347.514 169.27 348.574 170.87C349.634 172.47 350.164 174.32 350.164 176.42C350.164 178.7 349.504 180.8 348.184 182.72C346.864 184.62 345.124 185.96 342.964 186.74L342.844 185.3C345.704 186.22 347.994 187.7 349.714 189.74C351.454 191.76 352.324 194.3 352.324 197.36C352.324 199.82 351.764 201.92 350.644 203.66C349.524 205.38 348.004 206.7 346.084 207.62C344.184 208.54 342.064 209 339.724 209H322.204ZM324.724 206.48H338.524C340.604 206.48 342.474 206.13 344.134 205.43C345.814 204.73 347.134 203.72 348.094 202.4C349.074 201.08 349.564 199.48 349.564 197.6C349.564 195.72 349.114 194.02 348.214 192.5C347.334 190.96 346.144 189.74 344.644 188.84C343.164 187.92 341.524 187.46 339.724 187.46H324.724V206.48ZM324.724 185H338.584C340.204 185 341.684 184.61 343.024 183.83C344.384 183.05 345.464 182 346.264 180.68C347.064 179.36 347.464 177.88 347.464 176.24C347.464 173.84 346.604 171.91 344.884 170.45C343.184 168.99 341.084 168.26 338.584 168.26H324.724V185ZM404.779 209.84C402.179 209.84 399.889 209.08 397.909 207.56C395.929 206.04 394.639 204.02 394.039 201.5L396.619 200.9C397.079 202.72 398.049 204.25 399.529 205.49C401.009 206.71 402.799 207.32 404.899 207.32C406.199 207.32 407.499 207.02 408.799 206.42C410.099 205.82 411.139 204.82 411.919 203.42C412.459 202.42 412.769 201.37 412.849 200.27C412.949 199.17 412.999 197.84 412.999 196.28V165.8H415.519V196.28C415.519 197.38 415.509 198.41 415.489 199.37C415.469 200.31 415.359 201.22 415.159 202.1C414.979 202.98 414.639 203.86 414.139 204.74C413.179 206.42 411.869 207.69 410.209 208.55C408.569 209.41 406.759 209.84 404.779 209.84ZM464.606 209V165.8H491.006V168.32H467.126V186.14H487.406V188.66H467.126V206.48H491.006V209H464.606ZM538.18 209V165.8H554.08C554.5 165.8 554.93 165.82 555.37 165.86C555.81 165.88 556.3 165.94 556.84 166.04C558.92 166.36 560.72 167.12 562.24 168.32C563.78 169.5 564.96 171 565.78 172.82C566.62 174.62 567.04 176.6 567.04 178.76C567.04 181.84 566.2 184.54 564.52 186.86C562.84 189.18 560.56 190.66 557.68 191.3L557.2 191.72H540.7V209H538.18ZM565.24 209L556.72 191.42L558.88 189.8L568.24 209H565.24ZM540.7 189.2H554.08C554.42 189.2 554.82 189.18 555.28 189.14C555.76 189.1 556.24 189.04 556.72 188.96C558.38 188.64 559.77 187.98 560.89 186.98C562.03 185.98 562.89 184.77 563.47 183.35C564.05 181.91 564.34 180.38 564.34 178.76C564.34 177.14 564.05 175.62 563.47 174.2C562.89 172.76 562.03 171.54 560.89 170.54C559.77 169.54 558.38 168.88 556.72 168.56C556.24 168.46 555.76 168.4 555.28 168.38C554.82 168.34 554.42 168.32 554.08 168.32H540.7V189.2ZM631.84 209.9C628.62 209.9 625.8 209.35 623.38 208.25C620.96 207.15 618.94 205.6 617.32 203.6C615.7 201.6 614.48 199.23 613.66 196.49C612.86 193.73 612.46 190.7 612.46 187.4C612.46 183 613.18 179.12 614.62 175.76C616.06 172.38 618.21 169.74 621.07 167.84C623.95 165.92 627.54 164.96 631.84 164.96C635.96 164.96 639.39 165.93 642.13 167.87C644.87 169.79 646.82 172.28 647.98 175.34L645.52 176.36C644.48 173.66 642.79 171.51 640.45 169.91C638.11 168.29 635.24 167.48 631.84 167.48C628.14 167.48 625.06 168.33 622.6 170.03C620.16 171.71 618.32 174.05 617.08 177.05C615.84 180.05 615.2 183.5 615.16 187.4C615.12 191.3 615.72 194.75 616.96 197.75C618.2 200.75 620.06 203.11 622.54 204.83C625.04 206.53 628.14 207.38 631.84 207.38C635.54 207.38 638.53 206.65 640.81 205.19C643.09 203.71 644.75 201.66 645.79 199.04C646.85 196.42 647.38 193.38 647.38 189.92H635.86V187.4H649.96C650.02 187.96 650.05 188.46 650.05 188.9C650.07 189.34 650.08 189.7 650.08 189.98C650.08 193.74 649.45 197.13 648.19 200.15C646.93 203.15 644.95 205.53 642.25 207.29C639.57 209.03 636.1 209.9 631.84 209.9Z" fill="#7D562D"/>
</svg>
