<svg width="250" height="59" viewBox="0 0 250 59" fill="none" xmlns="http://www.w3.org/2000/svg">
<path d="M20.2133 30.7746C20.1211 31.1263 19.9903 31.6067 19.7936 32.1374C19.4115 33.168 18.7709 34.4206 17.6536 35.3134C18.2771 36.2279 18.6502 37.0715 18.8547 37.9395C19.0779 38.8861 19.0967 39.8441 19.0417 40.922C18.9965 41.8095 18.8697 42.8469 18.7253 43.9444C18.5802 45.0466 18.4171 46.2121 18.2963 47.3721C18.053 49.7067 17.9906 51.9445 18.5518 53.5152C19.0785 54.989 19.9401 56.3346 20.993 57.2286C22.0423 58.1196 23.2606 58.548 24.5367 58.2543C25.0259 58.1416 25.4247 57.8044 25.7518 57.3128C26.0796 56.82 26.3178 56.1972 26.4879 55.5716C26.6573 54.9487 26.7551 54.3393 26.8103 53.8843C26.8379 53.6574 26.8545 53.47 26.8645 53.34C26.8694 53.275 26.8731 53.2243 26.8751 53.1903C26.876 53.1736 26.8763 53.1608 26.8767 53.1525C26.877 53.1483 26.8771 53.1451 26.8772 53.1431V42.0594L26.8806 42.036C27.292 39.1917 27.6458 37.5454 28.7895 34.8864C28.9176 34.5886 29.0676 34.2742 29.2299 33.9544C28.1096 34.6471 27.0579 34.9289 26.0843 34.9158C24.7785 34.8981 23.662 34.3516 22.7589 33.6542C21.8569 32.9575 21.1517 32.0981 20.6613 31.4222C20.4844 31.1785 20.3346 30.9565 20.2133 30.7746ZM30.2698 31.0642C30.2687 31.0645 30.2668 31.0656 30.2648 31.0663C30.253 31.07 30.2429 31.0729 30.2326 31.0756L30.2292 31.0633C30.2216 31.0634 30.2096 31.0636 30.1979 31.0633C30.1949 31.0633 30.1581 31.063 30.1188 31.054C30.107 31.0512 30.0804 31.0446 30.0494 31.0297C30.0285 31.0197 29.9443 30.9779 29.8954 30.8749C29.8798 30.8421 29.8709 30.8098 29.8666 30.7788C29.8522 30.7699 29.8375 30.7612 29.8231 30.7516L29.8451 30.7176C29.829 30.7163 29.8072 30.7132 29.782 30.7065C29.7744 30.7053 29.7683 30.7044 29.7647 30.7036C29.7409 30.6983 29.7222 30.6914 29.716 30.6891C29.7152 30.6888 29.7148 30.6887 29.7114 30.6874C29.7087 30.6864 29.7045 30.6849 29.7 30.6832C29.6985 30.6826 29.697 30.6817 29.6953 30.681C29.6774 30.6762 29.6424 30.6669 29.6065 30.653C29.6025 30.6514 29.6004 30.6506 29.5921 30.6474C29.5854 30.6449 29.5757 30.6415 29.5654 30.6372C29.5461 30.6292 29.5141 30.6149 29.4804 30.593C29.4413 30.5677 29.37 30.5194 29.3154 30.4442C29.3007 30.4239 29.277 30.3915 29.2502 30.3409C29.2528 30.3458 29.2551 30.3496 29.2557 30.3506C29.2551 30.3496 29.255 30.3497 29.2532 30.3468C29.2519 30.3447 29.2499 30.3415 29.2477 30.3379C29.2377 30.3212 29.2253 30.2987 29.213 30.2698C29.1895 30.2148 29.1727 30.1515 29.1593 30.0734C29.1575 30.0631 29.1557 30.0539 29.1538 30.0445C29.1524 30.0378 29.1489 30.0213 29.1466 30.0083C29.1435 29.9919 29.1222 29.8944 29.1664 29.7881C29.1947 29.7202 29.2454 29.6549 29.3188 29.6103C29.3533 29.5894 29.4592 29.5336 29.5933 29.5691C29.6374 29.576 29.6807 29.5909 29.7198 29.6163C29.7677 29.6473 29.7981 29.6854 29.8171 29.7154C29.8272 29.7242 29.8371 29.7325 29.8455 29.74C29.8589 29.7519 29.8704 29.7624 29.8772 29.7685C29.8789 29.77 29.881 29.7717 29.8827 29.7732C29.8835 29.7739 29.885 29.7752 29.8865 29.7766C29.8873 29.7773 29.8889 29.779 29.8908 29.7809C29.8918 29.7818 29.8937 29.7834 29.8958 29.7855C29.897 29.7867 29.9028 29.7928 29.9098 29.8008C29.9121 29.8035 29.9223 29.8154 29.9335 29.8319C29.937 29.8372 29.9423 29.8485 29.9487 29.8604C29.9708 29.877 29.9866 29.8923 29.9948 29.9003C30.0156 29.9205 30.0349 29.943 30.0511 29.9645L30.0769 29.9854L30.1298 30.0402C30.1407 30.0524 30.1519 30.0659 30.1632 30.0802L30.1962 30.1253L30.2072 30.1448C30.2384 30.1319 30.2732 30.1229 30.3113 30.1206C30.3983 30.1154 30.4635 30.1462 30.4962 30.1657C30.555 30.2007 30.587 30.2457 30.5922 30.2528C30.6033 30.268 30.6107 30.281 30.6142 30.2873C30.6203 30.2982 30.6247 30.3078 30.6269 30.3128C30.6091 30.2948 30.5943 30.2836 30.5884 30.2796C30.5858 30.2779 30.5835 30.2761 30.5816 30.275L30.5745 30.2873C30.5767 30.2884 30.5794 30.2899 30.5825 30.2915C30.5865 30.2937 30.5921 30.2969 30.5986 30.3009C30.5968 30.2998 30.5874 30.2949 30.574 30.2881C30.5728 30.2874 30.5713 30.2866 30.5702 30.286C30.5689 30.2854 30.5678 30.2845 30.5664 30.2839L30.5584 30.3043L30.5563 30.3039L30.5486 30.3302L30.5461 30.3366L30.5389 30.3494L30.541 30.3498L30.5254 30.3898L30.5309 30.3893L30.5262 30.4076L30.5241 30.4097L30.5254 30.4093L30.5203 30.4272H30.5508L30.6489 30.3966L30.6485 30.394L30.6447 30.3842L30.6688 30.383C30.6662 30.3769 30.6627 30.3696 30.6582 30.3613C30.6602 30.3613 30.6622 30.3612 30.6641 30.3613C30.6587 30.3515 30.6526 30.3436 30.6472 30.3366C30.6516 30.3408 30.6593 30.3479 30.6663 30.3553C30.6672 30.3563 30.6685 30.3586 30.6709 30.3613C30.7539 30.3624 30.8324 30.353 30.9045 30.337C30.9772 30.3209 31.0414 30.2975 31.0944 30.2758C31.2778 29.1358 30.9521 28.0201 30.3676 26.8864C30.0045 26.1822 29.547 25.4819 29.0615 24.7748C28.5801 24.0736 28.0651 23.3576 27.6082 22.6474C27.5108 22.496 27.5541 22.2938 27.7047 22.1958C27.8554 22.0979 28.0566 22.1413 28.154 22.2928C28.6039 22.9923 29.1035 23.6858 29.5963 24.4036C30.085 25.1154 30.5619 25.8434 30.9446 26.5858C31.4514 27.5686 31.8024 28.5958 31.7955 29.6652C31.8797 29.5376 31.9967 29.3572 32.1352 29.1328C32.4277 28.659 32.8162 27.9915 33.2009 27.2181C33.9773 25.6574 34.7106 23.717 34.6555 22.0704C34.6068 20.6158 34.7418 19.7163 34.2083 18.4148C33.8439 17.526 33.1588 16.951 32.2431 16.5608C31.3184 16.1668 30.1789 15.9703 28.9456 15.8354C28.3309 15.7682 27.701 15.7173 27.068 15.6632C26.4371 15.6093 25.804 15.5522 25.1916 15.474C23.9727 15.3182 22.8028 15.0741 21.865 14.5742C20.3906 13.7883 19.5709 12.8526 19.0375 11.6768C18.5166 10.5284 18.2714 9.14922 17.9227 7.52285C17.5776 5.91324 16.92 4.37255 15.834 3.15586C14.752 1.94379 13.2308 1.0374 11.1251 0.710013C10.1057 0.551551 9.26742 0.735063 8.5807 1.12885C7.88926 1.52538 7.33271 2.14634 6.9032 2.88883C6.03981 4.38137 5.72319 6.30814 5.83619 7.66274C6.05532 10.2892 6.8658 14.1469 8.4652 17.7736C9.23852 17.2401 10.006 16.7024 10.7448 16.1433C13.7723 13.8519 16.1195 11.3506 16.0074 7.87535C16.0016 7.69515 16.1421 7.5441 16.3214 7.53815C16.5007 7.53231 16.651 7.67383 16.6569 7.85409C16.7804 11.6814 14.1775 14.3629 11.1357 16.665C10.365 17.2483 9.55298 17.8161 8.74105 18.3757C9.26771 19.4884 9.96997 20.7303 10.559 21.7196C10.8726 22.2462 11.1526 22.6994 11.354 23.0207C11.4546 23.1813 11.5356 23.3089 11.5913 23.3962C11.6192 23.4398 11.6407 23.4735 11.6552 23.4961C11.6624 23.5073 11.668 23.516 11.6717 23.5217C11.6735 23.5244 11.675 23.5266 11.6759 23.528L11.6768 23.5297L11.6772 23.5302C11.7752 23.6813 11.7328 23.8837 11.5824 23.9822C11.4321 24.0806 11.2307 24.038 11.1327 23.8869L11.1323 23.8861L11.131 23.8844C11.13 23.8828 11.1287 23.8805 11.1268 23.8776C11.1229 23.8716 11.1173 23.8627 11.1099 23.8512C11.0949 23.8279 11.0726 23.7935 11.0443 23.7491C10.9876 23.6604 10.9057 23.5313 10.804 23.369C10.6005 23.0443 10.3177 22.5865 10.001 22.0546C9.42491 21.0872 8.73261 19.8659 8.19782 18.749C7.59105 19.1657 6.98964 19.5789 6.41031 19.9906C4.87074 21.085 3.46929 22.185 2.43591 23.3898C0.402038 25.7611 0.319782 28.1924 1.12521 30.408C1.93921 32.6473 3.66358 34.6664 5.2388 36.1285C8.50105 39.1565 11.1747 41.0243 12.8559 44.7128C13.8896 46.9806 13.2533 49.2156 12.399 50.8431C11.9701 51.6601 11.4796 52.3376 11.0972 52.8106C10.9057 53.0475 10.7406 53.2341 10.6225 53.3621C10.5634 53.4261 10.5163 53.4758 10.4833 53.5097L10.4313 53.562L10.43 53.5628C10.43 53.5628 10.4297 53.5633 10.2032 53.3294L10.4296 53.5633C10.301 53.689 10.0953 53.6865 9.97009 53.5573C9.84496 53.4281 9.8479 53.2213 9.97644 53.0955C9.97644 53.0955 9.97742 53.0945 9.97813 53.0938C9.97974 53.0922 9.98259 53.0893 9.98617 53.0857C9.99333 53.0786 10.0043 53.0674 10.0187 53.0526C10.0479 53.0227 10.0913 52.9776 10.1461 52.9182C10.2558 52.7993 10.4114 52.6235 10.5929 52.399C10.9566 51.9492 11.4207 51.3074 11.8244 50.5383C12.6355 48.9932 13.1781 46.9876 12.2653 44.9849C10.6545 41.451 8.1342 39.7053 4.79796 36.6086C3.19174 35.1177 1.38049 33.0138 0.514707 30.6321C-0.359573 28.227 -0.265627 25.5389 1.94344 22.9633C3.03158 21.6947 4.48833 20.5568 6.03504 19.4574C6.65597 19.0161 7.2883 18.5825 7.92028 18.1486C6.25587 14.416 5.41559 10.4347 5.18888 7.71717C5.06607 6.24501 5.40346 4.1819 6.34135 2.56056C6.81248 1.74613 7.44339 1.02874 8.25874 0.561187C9.07878 0.0909789 10.0665 -0.115491 11.2245 0.0645334C13.474 0.414289 15.1324 1.39231 16.3175 2.72002C17.4985 4.04304 18.1962 5.69729 18.5582 7.3855C18.9165 9.05696 19.1454 10.34 19.629 11.4059C20.1001 12.4445 20.8156 13.2755 22.1696 13.9972C22.9995 14.4396 24.0725 14.6725 25.2737 14.826C25.8713 14.9023 26.4926 14.9583 27.1234 15.0122C27.7521 15.066 28.3915 15.1179 29.0158 15.1861C30.2606 15.3222 31.4799 15.5262 32.4969 15.9596C33.5229 16.3968 34.3628 17.0764 34.8095 18.166C35.4013 19.6098 35.2594 20.6905 35.3049 22.0487C35.3658 23.868 34.567 25.9327 33.7822 27.5102C33.3865 28.3056 32.9874 28.9906 32.6873 29.4768C32.5371 29.7201 32.4115 29.9143 32.323 30.0479C32.2788 30.1147 32.2439 30.1665 32.2198 30.2018C32.2078 30.2194 32.1987 30.233 32.1923 30.2422C32.1896 30.2462 32.1872 30.2492 32.1855 30.2516L32.1851 30.252L32.1847 30.2528C32.1841 30.2537 32.1833 30.255 32.1822 30.2567C32.1799 30.2601 32.1761 30.2651 32.1716 30.272C32.1624 30.2858 32.1488 30.3063 32.131 30.3332C32.0954 30.387 32.0433 30.4662 31.9778 30.5667C31.8498 30.763 31.6705 31.0412 31.4625 31.3733C31.2483 31.9192 30.9251 32.4663 30.4767 33.0168C30.0661 33.7364 29.6682 34.4895 29.386 35.1454C28.2753 37.7275 27.9319 39.3118 27.527 42.107V53.1614L27.5266 53.1682V53.1733C27.5265 53.1761 27.526 53.1799 27.5257 53.1848C27.5252 53.1949 27.5247 53.2098 27.5236 53.2286C27.5214 53.2662 27.5179 53.3207 27.5126 53.3898C27.5021 53.5281 27.4844 53.7254 27.4555 53.9634C27.3978 54.4383 27.2952 55.0809 27.1149 55.7438C26.9354 56.4038 26.6742 57.101 26.292 57.6755C25.9091 58.2512 25.3867 58.7289 24.6818 58.8912C23.1557 59.2425 21.7341 58.7135 20.5733 57.7278C19.416 56.7451 18.4969 55.2947 17.9401 53.7363C17.3229 52.0091 17.4072 49.6323 17.6498 47.3041C17.7719 46.1325 17.9368 44.9539 18.0809 43.8589C18.2257 42.7595 18.349 41.7463 18.3927 40.8884C18.4465 39.8343 18.4249 38.9481 18.2227 38.09C18.0392 37.3118 17.7033 36.5424 17.1205 35.6867C16.3445 36.1604 15.3876 36.4593 14.2106 36.4593C12.6553 36.4593 10.88 35.7003 9.69594 34.6139C9.10152 34.0684 8.63522 33.4213 8.43178 32.72C8.22516 32.0075 8.29543 31.2544 8.7512 30.5386C8.9867 30.1688 9.28079 29.9053 9.62529 29.7481C9.96831 29.5917 10.3407 29.5501 10.7206 29.5908C11.4699 29.6711 12.2828 30.074 13.0696 30.6164C14.6376 31.6974 16.2387 33.4299 17.2712 34.7844C18.2413 33.9994 18.8227 32.8849 19.1843 31.9095C19.3791 31.3841 19.507 30.9083 19.5985 30.5573C19.6432 30.3862 19.6821 30.2328 19.7153 30.1253C19.7313 30.0733 19.7512 30.0143 19.7758 29.9641C19.7875 29.9403 19.809 29.9 19.8435 29.8612C19.873 29.828 19.9601 29.7422 20.1028 29.7422C20.209 29.7422 20.2825 29.7928 20.3029 29.8072C20.3328 29.8282 20.3558 29.8504 20.3698 29.865C20.3987 29.8953 20.4261 29.931 20.4493 29.9624C20.4972 30.0272 20.5573 30.1175 20.6249 30.2192C20.7633 30.4277 20.9501 30.7118 21.1863 31.0374C21.6598 31.6899 22.3227 32.4936 23.1549 33.1362C23.9861 33.7781 24.97 34.2475 26.0932 34.2626C27.2019 34.2776 28.4927 33.8498 29.9546 32.6192C30.2771 32.0568 30.602 31.5224 30.8795 31.0782C30.8894 31.0518 30.8993 31.0255 30.9087 30.9991C30.7637 31.0192 30.6012 31.0222 30.4293 30.9936C30.4136 31.003 30.3998 31.0093 30.3908 31.0131V31.0365C30.3943 31.0354 30.3972 31.0348 30.3972 31.0348C30.3972 31.0348 30.3962 31.0352 30.3951 31.0357C30.3941 31.036 30.3926 31.0359 30.3908 31.0365V31.068C30.3724 31.068 30.3157 31.0672 30.283 31.0637C30.2849 31.0639 30.2863 31.0642 30.2863 31.0642H30.2698ZM10.6521 30.2405C10.3629 30.2095 10.1106 30.2435 9.89352 30.3426C9.67784 30.441 9.47561 30.6128 9.29867 30.8907C8.949 31.4398 8.89858 31.9969 9.0554 32.5375C9.21547 33.0892 9.59718 33.6384 10.1342 34.1312C11.2132 35.1213 12.8363 35.8062 14.2106 35.8062C15.2455 35.8062 16.0715 35.5522 16.7368 35.1573C15.7272 33.8373 14.1839 32.1763 12.7019 31.1547C11.9466 30.6341 11.2414 30.3037 10.6521 30.2405ZM30.2182 31.0276L30.2199 31.028L30.2191 31.0255L30.2182 31.0276ZM29.964 30.835C29.9808 30.8766 30.0031 30.9103 30.0253 30.9345C30.0852 30.9996 30.1543 31.0202 30.1653 31.0238C30.17 31.0252 30.1749 31.0255 30.1793 31.0267C30.1839 31.027 30.1893 31.0276 30.1954 31.0276V30.9353L30.195 30.9349C30.1187 30.9091 30.0415 30.8762 29.964 30.835ZM30.3908 30.9885L30.3917 30.9872H30.3908V30.9885ZM29.7321 30.6912L29.7334 30.6917C29.7334 30.6917 29.7324 30.6911 29.7313 30.6908L29.7321 30.6912ZM30.651 30.4076L30.58 30.4272H30.654C30.6537 30.4242 30.6534 30.4204 30.6527 30.4161C30.6523 30.4137 30.6517 30.4109 30.651 30.4076ZM30.5757 30.2894C30.5796 30.2918 30.5843 30.2949 30.5897 30.2988C30.595 30.3026 30.6014 30.3076 30.6083 30.3136C30.6024 30.3085 30.6072 30.3123 30.613 30.3183C30.6161 30.3216 30.6217 30.3277 30.6286 30.3366L30.6345 30.3311C30.6326 30.3263 30.6306 30.3204 30.6282 30.3149C30.6282 30.3149 30.6273 30.3137 30.6269 30.3128C30.6307 30.3166 30.6352 30.3202 30.6392 30.3247C30.642 30.3279 30.6441 30.3325 30.6472 30.3366C30.6449 30.3344 30.6434 30.3328 30.6434 30.3328C30.6313 30.3214 30.6341 30.3241 30.6379 30.3281V30.329L30.6476 30.3426L30.6582 30.3613C30.6541 30.3612 30.6501 30.361 30.646 30.3608L30.6455 30.3596L30.6443 30.36L30.6447 30.3608L30.6426 30.3604L30.6354 30.3634C30.6377 30.3679 30.6404 30.372 30.6421 30.3762C30.6433 30.3789 30.6438 30.3819 30.6447 30.3842L30.5787 30.3872L30.5745 30.3889L30.5761 30.3872L30.5309 30.3893L30.5427 30.3502L30.541 30.3498L30.5461 30.3366L30.5474 30.3345L30.5486 30.3302L30.5584 30.3043C30.5599 30.3045 30.5614 30.3049 30.5626 30.3051H30.5639L30.574 30.2881L30.5757 30.2894ZM30.5275 30.4229L30.53 30.4208L30.5292 30.4225L30.5275 30.4229ZM30.5275 30.4229L30.5292 30.4225L30.53 30.4208L30.5275 30.4229ZM30.5761 30.3872L30.5745 30.3889L30.5787 30.3872H30.5761ZM30.646 30.3608C30.6468 30.3627 30.6478 30.3645 30.6485 30.3659C30.6474 30.364 30.6458 30.3627 30.6447 30.3608H30.646ZM30.6354 30.3634L30.6426 30.3604C30.6395 30.3603 30.6364 30.3597 30.6333 30.3596C30.634 30.3609 30.6347 30.3621 30.6354 30.3634ZM30.6286 30.3366C30.6335 30.3429 30.6387 30.3509 30.6443 30.36L30.6455 30.3596C30.6455 30.3596 30.6449 30.358 30.6443 30.3562C30.6427 30.352 30.6419 30.3506 30.6396 30.3443C30.6396 30.3443 30.6374 30.3384 30.6345 30.3311L30.6286 30.3366ZM30.4632 30.255C30.4383 30.2524 30.3782 30.2487 30.3088 30.2767H30.3079C30.3786 30.31 30.4481 30.332 30.5161 30.3451L30.5186 30.3345V30.3455C30.5213 30.346 30.524 30.3468 30.5266 30.3472L30.5491 30.303H30.5482C30.5444 30.3025 30.5372 30.3018 30.5279 30.3013L30.536 30.2715C30.519 30.2657 30.4936 30.2581 30.4632 30.255ZM30.6138 30.3311C30.6155 30.3325 30.6171 30.3337 30.6185 30.3349C30.6196 30.336 30.6206 30.3371 30.6214 30.3379L30.6201 30.3362C30.6186 30.3345 30.6168 30.3326 30.6146 30.3302C30.6124 30.3277 30.6099 30.3249 30.607 30.3217C30.6096 30.3246 30.6115 30.3282 30.6138 30.3311ZM30.5279 30.3013L30.5186 30.3345L30.5199 30.3009C30.5227 30.301 30.5254 30.3012 30.5279 30.3013ZM29.6098 29.9203L29.6005 29.9356L29.6166 29.9224L29.6098 29.9203ZM29.6166 29.9224L29.6005 29.9356L29.6098 29.9203L29.6166 29.9224Z" fill="#FAF6F1"/>
<path d="M45.2387 27.3623V25.7821H45.7254C46.2994 25.7821 46.811 25.7194 47.2602 25.594C47.7344 25.4686 48.1087 25.2178 48.3833 24.8416C48.6578 24.4403 48.795 23.8508 48.795 23.0733V4.63791C48.795 3.88545 48.6453 3.33364 48.3458 2.98249C48.0713 2.60626 47.6969 2.36798 47.2228 2.26765C46.7735 2.14224 46.2744 2.07953 45.7254 2.07953H45.2387V0.499361H55.2713C58.5157 0.499361 60.924 1.05117 62.4963 2.15478C64.0935 3.23331 64.8922 4.92636 64.8922 7.23391C64.8922 8.33753 64.6925 9.2781 64.2932 10.0557C63.8939 10.8332 63.3448 11.4728 62.6461 11.9744C61.9473 12.451 61.1486 12.8398 60.2502 13.1408V13.2912C61.3982 13.4919 62.3965 13.8807 63.245 14.4576C64.1185 15.0094 64.7923 15.7618 65.2665 16.715C65.7656 17.643 66.0152 18.7717 66.0152 20.101C66.0152 22.534 65.2166 24.3525 63.6194 25.5564C62.0471 26.7603 59.6388 27.3623 56.3944 27.3623H45.2387ZM56.2072 25.4812C58.3285 25.4812 59.8259 25.0673 60.6994 24.2396C61.5729 23.4119 62.0097 21.9947 62.0097 19.9882C62.0097 18.6839 61.835 17.6054 61.4856 16.7526C61.1362 15.8998 60.5497 15.2727 59.7261 14.8714C58.9025 14.445 57.7545 14.2318 56.2821 14.2318H52.576V25.4812H56.2072ZM55.159 12.3507C56.6315 12.3507 57.7795 12.1751 58.6031 11.8239C59.4266 11.4728 60.0131 10.921 60.3625 10.1685C60.7119 9.41606 60.8866 8.43785 60.8866 7.23391C60.8866 5.37783 60.4499 4.11119 59.5764 3.43397C58.7029 2.73167 57.2055 2.38052 55.0842 2.38052H52.576V12.3507H55.159Z" fill="#FAF6F1"/>
<path d="M69.5452 27.3623V25.7821H69.6575C70.2315 25.7821 70.7432 25.7194 71.1924 25.594C71.6666 25.4686 72.0409 25.2178 72.3154 24.8416C72.59 24.4403 72.7272 23.8508 72.7272 23.0733V11.3348C72.7272 10.5824 72.5775 10.0306 72.278 9.67942C72.0035 9.30319 71.6291 9.06491 71.1549 8.96458C70.7057 8.83917 70.2066 8.77646 69.6575 8.77646H69.5452V7.19629H75.3102L76.0215 10.921H76.2087C76.5331 10.1685 76.8825 9.47876 77.2569 8.85171C77.6312 8.22466 78.1304 7.73555 78.7543 7.3844C79.3782 7.00817 80.2392 6.82006 81.3373 6.82006C82.7099 6.82006 83.7207 7.05834 84.3696 7.5349C85.0434 8.01146 85.3803 8.68868 85.3803 9.56655C85.3803 10.3441 85.1058 10.9837 84.5567 11.4853C84.0326 11.987 83.1467 12.2378 81.8988 12.2378C81.8988 11.5355 81.8364 10.9711 81.7117 10.5448C81.5869 10.1184 81.3747 9.80483 81.0753 9.60417C80.8007 9.40352 80.4139 9.30319 79.9148 9.30319C79.216 9.30319 78.6295 9.57909 78.1553 10.1309C77.6811 10.6827 77.3068 11.385 77.0323 12.2378C76.7577 13.0906 76.5581 13.981 76.4333 14.909C76.3085 15.812 76.2461 16.6272 76.2461 17.3545V23.2614C76.2461 23.9888 76.3834 24.5406 76.6579 24.9168C76.9574 25.268 77.3318 25.5062 77.781 25.6317C78.2552 25.732 78.7668 25.7821 79.3158 25.7821H80.364V27.3623H69.5452Z" fill="#FAF6F1"/>
<path d="M87.3533 34.6236C88.6261 34.6236 89.7242 34.4355 90.6476 34.0592C91.571 33.683 92.3571 33.1563 93.006 32.4791C93.6548 31.8269 94.2039 31.0494 94.6531 30.1464C95.1023 29.2435 95.4767 28.2653 95.7762 27.2118L88.8507 10.7705C88.6261 10.2438 88.4014 9.84245 88.1768 9.56655C87.9522 9.26556 87.6902 9.06491 87.3907 8.96458C87.0912 8.83917 86.6919 8.77646 86.1928 8.77646H86.0805V7.19629H95.0649V8.77646H94.9526C94.2039 8.77646 93.6424 8.92696 93.268 9.22794C92.8937 9.50384 92.7065 9.95532 92.7065 10.5824C92.7065 10.783 92.7314 10.9962 92.7814 11.222C92.8313 11.4477 92.9061 11.6985 93.006 11.9744L95.7387 18.6714C95.9883 19.2483 96.2254 19.8878 96.45 20.5901C96.6996 21.2674 96.9242 21.9195 97.1238 22.5466C97.3235 23.1736 97.4608 23.7003 97.5356 24.1267C97.7103 23.3993 97.9349 22.6469 98.2095 21.8693C98.5089 21.0918 98.7835 20.3268 99.033 19.5743L101.541 12.2378C101.666 11.9368 101.753 11.6484 101.803 11.3725C101.853 11.0715 101.878 10.8207 101.878 10.62C101.878 9.96786 101.666 9.50384 101.242 9.22794C100.842 8.92696 100.231 8.77646 99.4074 8.77646H99.2951V7.19629H107.082V8.77646H106.969C106.495 8.77646 106.096 8.85171 105.771 9.0022C105.447 9.15269 105.16 9.44114 104.91 9.86753C104.686 10.2939 104.424 10.9084 104.124 11.7111L98.4341 27.5128C97.7852 29.3438 97.1613 30.8362 96.5623 31.99C95.9634 33.1437 95.2895 34.0342 94.5408 34.6612C93.8171 35.3134 92.9061 35.7648 91.808 36.0157C90.7099 36.2665 89.3373 36.3919 87.6902 36.3919H87.3533V34.6236Z" fill="#FAF6F1"/>
<path d="M114.959 27.7385C113.711 27.7385 112.626 27.5881 111.702 27.2871C110.779 26.9861 110.055 26.5471 109.531 25.9703C109.032 25.3683 108.782 24.6284 108.782 23.7505C108.782 23.0733 108.92 22.5465 109.194 22.1703C109.469 21.7941 109.781 21.5307 110.13 21.3802C110.504 21.2297 110.841 21.1545 111.141 21.1545C111.141 22.4588 111.428 23.5875 112.002 24.5406C112.601 25.4686 113.661 25.9326 115.184 25.9326C116.506 25.9326 117.517 25.6191 118.216 24.9921C118.94 24.3399 119.302 23.5122 119.302 22.5089C119.302 21.8819 119.164 21.3677 118.89 20.9664C118.64 20.5651 118.178 20.1763 117.505 19.8001C116.856 19.3987 115.92 18.9347 114.697 18.408C113.424 17.8311 112.364 17.2793 111.515 16.7526C110.691 16.2008 110.068 15.5737 109.643 14.8714C109.244 14.144 109.044 13.2411 109.044 12.1625C109.044 10.457 109.681 9.15269 110.954 8.24974C112.251 7.3217 113.961 6.85768 116.082 6.85768C117.28 6.85768 118.278 7.02071 119.077 7.34678C119.901 7.64777 120.512 8.06162 120.911 8.58835C121.336 9.11507 121.548 9.69196 121.548 10.319C121.548 10.9962 121.311 11.548 120.836 11.9744C120.387 12.3757 119.726 12.5764 118.852 12.5764C118.852 11.3223 118.59 10.3441 118.066 9.6418C117.542 8.9395 116.731 8.58835 115.633 8.58835C114.36 8.58835 113.449 8.87679 112.9 9.45368C112.351 10.0055 112.077 10.7203 112.077 11.5982C112.077 12.5513 112.426 13.2912 113.125 13.818C113.848 14.3196 115.046 14.909 116.719 15.5863C118.041 16.1381 119.114 16.6899 119.938 17.2417C120.762 17.7935 121.36 18.4331 121.735 19.1605C122.134 19.8878 122.334 20.7783 122.334 21.8317C122.334 23.7881 121.66 25.268 120.312 26.2712C118.965 27.2494 117.18 27.7385 114.959 27.7385Z" fill="#FAF6F1"/>
<path d="M132.972 27.7385C131.075 27.7385 129.69 27.3122 128.817 26.4594C127.968 25.5815 127.544 24.064 127.544 21.907V9.34081H124.699V7.83588C125.148 7.83588 125.647 7.74809 126.196 7.57252C126.745 7.37186 127.219 7.05834 127.619 6.63194C128.043 6.18046 128.392 5.62866 128.667 4.97652C128.941 4.32438 129.166 3.52176 129.341 2.56864H131.063V7.19629H135.967V9.34081H131.063V22.0198C131.063 23.299 131.325 24.2396 131.849 24.8416C132.373 25.4435 133.059 25.7445 133.908 25.7445C134.357 25.7445 134.769 25.7194 135.143 25.6693C135.517 25.6191 135.904 25.5564 136.304 25.4812V27.1366C135.979 27.2871 135.492 27.425 134.844 27.5504C134.195 27.6758 133.571 27.7385 132.972 27.7385Z" fill="#FAF6F1"/>
<path d="M147.742 27.7385C146.095 27.7385 144.623 27.3874 143.325 26.6851C142.052 25.9828 141.041 24.8792 140.293 23.3743C139.569 21.8443 139.207 19.8502 139.207 17.3922C139.207 14.7084 139.569 12.6015 140.293 11.0715C141.041 9.51639 142.04 8.42531 143.288 7.79826C144.56 7.14612 145.983 6.82006 147.555 6.82006C148.603 6.82006 149.627 6.95801 150.625 7.23391C151.623 7.50981 152.447 7.93621 153.096 8.5131C153.744 9.06491 154.069 9.77975 154.069 10.6576C154.069 11.2345 153.944 11.6985 153.695 12.0497C153.445 12.4008 153.071 12.6517 152.571 12.8021C152.097 12.9526 151.486 13.0279 150.737 13.0279C150.737 12.2253 150.637 11.4979 150.438 10.8457C150.263 10.1936 149.951 9.67942 149.502 9.30319C149.053 8.90187 148.404 8.70122 147.555 8.70122C146.607 8.70122 145.771 8.95204 145.047 9.45368C144.348 9.95532 143.799 10.8332 143.4 12.0873C143.026 13.3414 142.838 15.0972 142.838 17.3545C142.838 19.1354 143.026 20.6152 143.4 21.7941C143.799 22.9729 144.411 23.8508 145.234 24.4277C146.058 25.0046 147.143 25.293 148.491 25.293C149.265 25.293 149.976 25.1802 150.625 24.9544C151.274 24.7287 151.835 24.4152 152.309 24.0139C152.809 23.6125 153.195 23.1611 153.47 22.6594C153.67 22.8099 153.819 23.0106 153.919 23.2614C154.044 23.4871 154.106 23.7756 154.106 24.1267C154.106 24.7036 153.869 25.268 153.395 25.8198C152.921 26.3716 152.21 26.8356 151.261 27.2118C150.338 27.563 149.165 27.7385 147.742 27.7385Z" fill="#2C3E50"/>
<path d="M166.317 27.7385C163.597 27.7385 161.463 26.8356 159.916 25.0297C158.393 23.2238 157.632 20.6905 157.632 17.4298C157.632 13.9183 158.356 11.2721 159.803 9.4913C161.251 7.71047 163.297 6.82006 165.943 6.82006C168.364 6.82006 170.26 7.57252 171.633 9.07745C173.031 10.5824 173.729 12.8272 173.729 15.812V17.5427H161.263C161.313 20.2766 161.8 22.2706 162.723 23.5248C163.672 24.7538 165.044 25.3683 166.841 25.3683C168.139 25.3683 169.237 25.1049 170.136 24.5782C171.059 24.0264 171.745 23.4119 172.195 22.7347C172.369 22.8099 172.531 22.9604 172.681 23.1861C172.831 23.4119 172.906 23.6878 172.906 24.0139C172.906 24.5155 172.669 25.0548 172.195 25.6317C171.72 26.2085 170.997 26.7102 170.023 27.1366C169.05 27.5379 167.815 27.7385 166.317 27.7385ZM169.948 15.511C169.948 13.5044 169.636 11.8992 169.013 10.6952C168.414 9.46622 167.365 8.85171 165.868 8.85171C164.495 8.85171 163.422 9.4286 162.649 10.5824C161.9 11.7111 161.463 13.354 161.338 15.511H169.948Z" fill="#2C3E50"/>
<path d="M176.655 27.3623V25.7821H176.955C177.529 25.7821 178.04 25.7194 178.489 25.594C178.964 25.4686 179.338 25.2178 179.613 24.8416C179.887 24.4403 180.024 23.8508 180.024 23.0733V11.3348C180.024 10.5824 179.887 10.0306 179.613 9.67942C179.338 9.30319 178.976 9.06491 178.527 8.96458C178.078 8.83917 177.579 8.77646 177.029 8.77646H176.842V7.19629H182.907L183.393 10.2438H183.581C184.354 8.83917 185.215 7.92367 186.164 7.49727C187.137 7.0458 188.223 6.82006 189.421 6.82006C191.392 6.82006 192.927 7.40949 194.025 8.58835C195.148 9.74213 195.71 11.6107 195.71 14.1942V23.0733C195.71 23.8508 195.822 24.4403 196.047 24.8416C196.296 25.2178 196.633 25.4686 197.057 25.594C197.482 25.7194 197.968 25.7821 198.517 25.7821H198.704V27.3623H192.191V14.3823C192.191 12.752 191.879 11.4853 191.255 10.5824C190.656 9.67942 189.595 9.22794 188.073 9.22794C186.95 9.22794 186.051 9.51639 185.378 10.0933C184.729 10.6451 184.254 11.385 183.955 12.313C183.68 13.2411 183.543 14.2444 183.543 15.3229V23.2614C183.543 23.9888 183.68 24.5406 183.955 24.9168C184.23 25.268 184.591 25.5062 185.041 25.6317C185.49 25.732 185.989 25.7821 186.538 25.7821H186.725V27.3623H176.655Z" fill="#2C3E50"/>
<path d="M208.72 27.7385C206.823 27.7385 205.438 27.3122 204.564 26.4594C203.716 25.5815 203.291 24.064 203.291 21.907V9.34081H200.446V7.83588C200.896 7.83588 201.395 7.74809 201.944 7.57252C202.493 7.37186 202.967 7.05834 203.366 6.63194C203.791 6.18046 204.14 5.62866 204.414 4.97652C204.689 4.32438 204.914 3.52176 205.088 2.56864H206.81V7.19629H211.714V9.34081H206.81V22.0198C206.81 23.299 207.072 24.2396 207.596 24.8416C208.121 25.4435 208.807 25.7445 209.655 25.7445C210.105 25.7445 210.516 25.7194 210.891 25.6693C211.265 25.6191 211.652 25.5564 212.051 25.4812V27.1366C211.727 27.2871 211.24 27.425 210.591 27.5504C209.942 27.6758 209.318 27.7385 208.72 27.7385Z" fill="#2C3E50"/>
<path d="M223.64 27.7385C220.919 27.7385 218.786 26.8356 217.238 25.0297C215.716 23.2238 214.955 20.6905 214.955 17.4298C214.955 13.9183 215.679 11.2721 217.126 9.4913C218.574 7.71047 220.62 6.82006 223.265 6.82006C225.686 6.82006 227.583 7.57252 228.956 9.07745C230.353 10.5824 231.052 12.8272 231.052 15.812V17.5427H218.586C218.636 20.2766 219.123 22.2706 220.046 23.5248C220.994 24.7538 222.367 25.3683 224.164 25.3683C225.462 25.3683 226.56 25.1049 227.458 24.5782C228.382 24.0264 229.068 23.4119 229.517 22.7347C229.692 22.8099 229.854 22.9604 230.004 23.1861C230.154 23.4119 230.228 23.6878 230.228 24.0139C230.228 24.5155 229.991 25.0548 229.517 25.6317C229.043 26.2085 228.319 26.7102 227.346 27.1366C226.373 27.5379 225.137 27.7385 223.64 27.7385ZM227.271 15.511C227.271 13.5044 226.959 11.8992 226.335 10.6952C225.736 9.46622 224.688 8.85171 223.191 8.85171C221.818 8.85171 220.745 9.4286 219.971 10.5824C219.222 11.7111 218.786 13.354 218.661 15.511H227.271Z" fill="#2C3E50"/>
<path d="M234.165 27.3623V25.7821H234.277C234.851 25.7821 235.363 25.7194 235.812 25.594C236.286 25.4686 236.661 25.2178 236.935 24.8416C237.21 24.4403 237.347 23.8508 237.347 23.0733V11.3348C237.347 10.5824 237.197 10.0306 236.898 9.67942C236.623 9.30319 236.249 9.06491 235.775 8.96458C235.325 8.83917 234.826 8.77646 234.277 8.77646H234.165V7.19629H239.93L240.641 10.921H240.828C241.153 10.1685 241.502 9.47876 241.877 8.85171C242.251 8.22466 242.75 7.73555 243.374 7.3844C243.998 7.00817 244.859 6.82006 245.957 6.82006C247.33 6.82006 248.34 7.05834 248.989 7.5349C249.663 8.01146 250 8.68868 250 9.56655C250 10.3441 249.725 10.9837 249.176 11.4853C248.652 11.987 247.766 12.2378 246.519 12.2378C246.519 11.5355 246.456 10.9711 246.331 10.5448C246.207 10.1184 245.994 9.80483 245.695 9.60417C245.42 9.40352 245.034 9.30319 244.534 9.30319C243.836 9.30319 243.249 9.57909 242.775 10.1309C242.301 10.6827 241.926 11.385 241.652 12.2378C241.377 13.0906 241.178 13.981 241.053 14.909C240.928 15.812 240.866 16.6272 240.866 17.3545V23.2614C240.866 23.9888 241.003 24.5406 241.278 24.9168C241.577 25.268 241.951 25.5062 242.401 25.6317C242.875 25.732 243.386 25.7821 243.936 25.7821H244.984V27.3623H234.165Z" fill="#2C3E50"/>
<path d="M46.6663 58.5725V40.1029H57.8969V41.1803H47.7383V48.799H56.3655V49.8764H47.7383V57.4951H57.8969V58.5725H46.6663Z" fill="#FAF6F1"/>
<path d="M83.0431 58.9572C81.8009 58.9572 80.6821 58.7563 79.6867 58.3544C78.6997 57.944 77.8787 57.3668 77.2236 56.6229C76.577 55.879 76.1431 54.9983 75.9219 53.9807L76.9939 53.7755C77.3257 55.041 78.0319 56.0414 79.1124 56.7768C80.1929 57.5122 81.5031 57.8799 83.0431 57.8799C84.1151 57.8799 85.0509 57.7088 85.8507 57.3668C86.6504 57.0248 87.2715 56.5459 87.7139 55.9303C88.1564 55.3061 88.3776 54.5793 88.3776 53.7499C88.3776 53.1257 88.2627 52.6041 88.033 52.1851C87.8033 51.7661 87.5098 51.4283 87.1524 51.1718C86.8036 50.9067 86.4377 50.6972 86.0549 50.5433C85.672 50.3894 85.3317 50.2697 85.0339 50.1842L80.4396 48.799C79.776 48.6023 79.2017 48.3629 78.7167 48.0807C78.2403 47.7985 77.8489 47.4779 77.5426 47.1188C77.2364 46.7596 77.0066 46.3663 76.8535 45.9388C76.7089 45.5112 76.6365 45.0538 76.6365 44.5664C76.6365 43.6258 76.8875 42.7921 77.3895 42.0653C77.9 41.3299 78.6061 40.757 79.508 40.3466C80.4098 39.9276 81.4521 39.7181 82.6347 39.7181C83.8343 39.7181 84.9106 39.9404 85.8635 40.3851C86.8164 40.8297 87.5948 41.4582 88.1989 42.2705C88.8115 43.0743 89.1943 44.0191 89.3475 45.1051L88.2755 45.3103C88.1564 44.4125 87.8416 43.6258 87.3311 42.9503C86.8206 42.2662 86.1612 41.7361 85.353 41.3599C84.5447 40.9836 83.6386 40.7955 82.6347 40.7955C81.6733 40.7955 80.8267 40.9622 80.095 41.2957C79.3719 41.6292 78.8061 42.0781 78.3977 42.6425C77.9893 43.2068 77.7851 43.8396 77.7851 44.5407C77.7851 45.2761 77.9808 45.8661 78.3722 46.3107C78.772 46.7468 79.257 47.0888 79.827 47.3368C80.3971 47.5762 80.9416 47.7729 81.4606 47.9268L85.2636 49.0812C85.5869 49.1752 85.9826 49.3163 86.4505 49.5044C86.9185 49.684 87.3779 49.9448 87.8288 50.2868C88.2882 50.6288 88.6668 51.082 88.9646 51.6464C89.2709 52.2022 89.4241 52.9033 89.4241 53.7499C89.4241 54.5451 89.2752 55.2633 88.9774 55.9046C88.6796 56.5459 88.25 57.0932 87.6884 57.5464C87.1269 57.9996 86.4548 58.3459 85.672 58.5853C84.8893 58.8333 84.013 58.9572 83.0431 58.9572Z" fill="#FAF6F1"/>
<path d="M108.989 58.5725V40.1029H115.957C116.842 40.1029 117.659 40.2953 118.407 40.6801C119.156 41.0563 119.756 41.5864 120.207 42.2705C120.658 42.9546 120.883 43.7455 120.883 44.6433C120.883 45.6181 120.602 46.5159 120.041 47.3368C119.479 48.1491 118.739 48.722 117.82 49.0555L117.769 48.4399C118.986 48.8332 119.96 49.4659 120.692 50.3381C121.432 51.2017 121.802 52.2877 121.802 53.5959C121.802 54.6477 121.564 55.5455 121.087 56.2894C120.611 57.0248 119.964 57.5891 119.148 57.9825C118.339 58.3758 117.437 58.5725 116.442 58.5725H108.989ZM110.061 57.4951H115.932C116.816 57.4951 117.612 57.3454 118.318 57.0462C119.033 56.7469 119.594 56.3151 120.003 55.7507C120.42 55.1864 120.628 54.5023 120.628 53.6985C120.628 52.8948 120.437 52.168 120.054 51.5181C119.679 50.8597 119.173 50.3381 118.535 49.9533C117.905 49.56 117.208 49.3633 116.442 49.3633H110.061V57.4951ZM110.061 48.3116H115.957C116.646 48.3116 117.276 48.1449 117.846 47.8114C118.424 47.4779 118.884 47.029 119.224 46.4646C119.564 45.9003 119.735 45.2675 119.735 44.5664C119.735 43.5403 119.369 42.7151 118.637 42.0909C117.914 41.4667 117.021 41.1546 115.957 41.1546H110.061V48.3116Z" fill="#FAF6F1"/>
<path d="M144.116 58.9316C143.01 58.9316 142.036 58.6067 141.194 57.9568C140.352 57.307 139.803 56.4433 139.548 55.3659L140.645 55.1094C140.841 55.8875 141.254 56.5417 141.883 57.0718C142.513 57.5934 143.274 57.8542 144.168 57.8542C144.721 57.8542 145.274 57.7259 145.827 57.4694C146.38 57.2129 146.822 56.7854 147.154 56.1868C147.384 55.7593 147.515 55.3104 147.549 54.8401C147.592 54.3698 147.613 53.8012 147.613 53.1342V40.1029H148.685V53.1342C148.685 53.6045 148.681 54.0449 148.673 54.4553C148.664 54.8572 148.617 55.2462 148.532 55.6225C148.456 55.9987 148.311 56.3749 148.098 56.7512C147.69 57.4694 147.133 58.0124 146.426 58.3801C145.729 58.7478 144.959 58.9316 144.116 58.9316Z" fill="#FAF6F1"/>
<path d="M169.567 58.5725V40.1029H180.798V41.1803H170.639V48.799H179.266V49.8764H170.639V57.4951H180.798V58.5725H169.567Z" fill="#FAF6F1"/>
<path d="M200.865 58.5725V40.1029H207.629C207.808 40.1029 207.991 40.1114 208.178 40.1285C208.365 40.1371 208.574 40.1628 208.803 40.2055C209.688 40.3423 210.454 40.6672 211.101 41.1803C211.756 41.6848 212.258 42.3261 212.606 43.1042C212.964 43.8738 213.142 44.7203 213.142 45.6438C213.142 46.9606 212.785 48.1149 212.07 49.1068C211.356 50.0987 210.386 50.7314 209.161 51.0051L208.956 51.1846H201.937V58.5725H200.865ZM212.377 58.5725L208.752 51.0564L209.671 50.3638L213.653 58.5725H212.377ZM201.937 50.1072H207.629C207.774 50.1072 207.944 50.0987 208.14 50.0816C208.344 50.0645 208.548 50.0388 208.752 50.0046C209.458 49.8678 210.05 49.5856 210.526 49.1581C211.011 48.7306 211.377 48.2133 211.624 47.6062C211.87 46.9905 211.994 46.3364 211.994 45.6438C211.994 44.9512 211.87 44.3013 211.624 43.6942C211.377 43.0785 211.011 42.557 210.526 42.1294C210.05 41.7019 209.458 41.4197 208.752 41.2829C208.548 41.2401 208.344 41.2145 208.14 41.2059C207.944 41.1888 207.774 41.1803 207.629 41.1803H201.937V50.1072Z" fill="#FAF6F1"/>
<path d="M240.708 58.9572C239.338 58.9572 238.139 58.7221 237.109 58.2518C236.08 57.7815 235.221 57.1188 234.531 56.2638C233.842 55.4087 233.323 54.3954 232.974 53.224C232.634 52.044 232.464 50.7486 232.464 49.3377C232.464 47.4565 232.77 45.7977 233.383 44.3612C233.995 42.9161 234.91 41.7874 236.127 40.9751C237.352 40.1542 238.879 39.7438 240.708 39.7438C242.461 39.7438 243.92 40.1585 245.086 40.9879C246.251 41.8088 247.081 42.8733 247.574 44.1816L246.528 44.6177C246.085 43.4633 245.366 42.5441 244.371 41.8601C243.375 41.1675 242.155 40.8212 240.708 40.8212C239.134 40.8212 237.824 41.1846 236.778 41.9114C235.74 42.6296 234.957 43.6301 234.429 44.9127C233.902 46.1953 233.63 47.6703 233.613 49.3377C233.596 51.0051 233.851 52.4801 234.378 53.7627C234.906 55.0453 235.697 56.0543 236.752 56.7896C237.815 57.5164 239.134 57.8799 240.708 57.8799C242.282 57.8799 243.554 57.5678 244.524 56.9436C245.494 56.3108 246.2 55.4343 246.643 54.3142C247.093 53.1941 247.319 51.8943 247.319 50.4151H242.418V49.3377H248.416C248.442 49.5771 248.455 49.7909 248.455 49.979C248.463 50.1671 248.467 50.321 248.467 50.4407C248.467 52.0483 248.199 53.4976 247.663 54.7888C247.127 56.0714 246.285 57.0889 245.137 57.8414C243.997 58.5853 242.52 58.9572 240.708 58.9572Z" fill="#FAF6F1"/>
</svg>
