<svg width="222" height="61" viewBox="0 0 222 61" fill="none" xmlns="http://www.w3.org/2000/svg">
<path d="M30.2627 17.686C30.2523 17.3702 29.9943 17.1224 29.6855 17.1327C29.3768 17.1429 29.1344 17.4072 29.1441 17.7231L29.7034 17.7045L30.2627 17.686ZM25.6203 45.2341C25.3988 45.4547 25.3943 45.817 25.6106 46.0432C25.8261 46.2694 26.1804 46.2739 26.4011 46.0533L26.0103 45.6437L25.6203 45.2341ZM39.1016 32.0783C39.3589 31.9034 39.4283 31.5483 39.2575 31.2851C39.0867 31.0219 38.7399 30.9503 38.4826 31.1251L38.7921 31.6017L39.1016 32.0783ZM37.7704 31.3815L37.5385 31.9021L39.3045 32.7256L38.238 31.0671L37.7704 31.3815ZM37.807 31.5323L37.6615 32.0849L37.6623 32.0851L37.807 31.5323ZM37.807 31.5323L37.9613 30.9822L37.9517 30.9796L37.807 31.5323ZM37.8353 31.5404L38.0113 30.9972L38.0076 30.9961L37.8353 31.5404ZM38.1418 31.7555L37.9949 32.3074L38.0218 32.3151L38.0501 32.3198L38.1418 31.7555ZM38.0441 31.7693L37.9039 31.2154L37.8942 31.218L37.8838 31.2211L38.0441 31.7693ZM38.1754 31.6509L38.5453 31.2214L38.5445 31.2209L38.1754 31.6509ZM38.1761 31.6511L37.8062 32.0805L37.807 32.0809L38.1761 31.6511ZM38.156 31.6057L37.6161 31.7538L37.619 31.7643L37.622 31.7746L38.156 31.6057ZM38.1545 31.5833L37.5952 31.5962V31.6009L38.1545 31.5833ZM38.191 31.65L37.9129 32.1465L37.9233 32.1528L37.9345 32.1587L38.191 31.65ZM38.1918 31.6504L37.9352 32.1589L37.936 32.1591L38.1918 31.6504ZM38.2119 31.6604L38.0091 32.1935L38.0367 32.2045L38.0658 32.2125L38.2119 31.6604ZM36.2528 38.7325L35.6987 38.6503L35.6935 38.6911V38.7325H36.2528ZM39.0927 31.3496L38.6348 31.0208L38.6318 31.0253L38.6288 31.03L39.0927 31.3496ZM36.2528 45.5363L36.8114 45.5604L36.8121 45.5483V45.5363H36.2528ZM26.2661 27.7529C26.4347 28.0178 26.7807 28.0928 27.0395 27.9206C27.299 27.7483 27.3721 27.3939 27.2036 27.129L26.7352 27.4409L26.2661 27.7529ZM37.1313 26.3696C36.9642 26.1041 36.6182 26.0277 36.3587 26.199C36.0992 26.3703 36.0238 26.7244 36.1916 26.9899L36.6615 26.6798L37.1313 26.3696ZM29.7034 17.7045L29.1441 17.7231C29.206 19.6592 27.9337 21.0937 26.1177 22.4955C25.2086 23.1975 24.2496 23.8292 23.289 24.5256C22.3531 25.2041 21.4447 25.925 20.7586 26.741L21.183 27.1141L21.6066 27.4873C22.1987 26.7832 23.0123 26.1288 23.9356 25.4592C24.835 24.8075 25.8731 24.1183 26.7919 23.4089C28.6325 21.9878 30.3433 20.2375 30.2627 17.686L29.7034 17.7045ZM21.183 27.1141L20.7586 26.741C19.3297 28.4399 19.2671 30.2374 19.8316 31.8229C20.382 33.3674 21.5223 34.7081 22.5075 35.6407L22.8871 35.2208L23.2666 34.8008C22.3352 33.9188 21.3448 32.7262 20.8832 31.431C20.4357 30.1767 20.4789 28.8282 21.6066 27.4873L21.183 27.1141ZM27.431 40.4323L27.9397 40.1944C26.8874 37.8398 25.1915 36.6226 23.2666 34.8008L22.8871 35.2208L22.5075 35.6407C24.5583 37.5828 25.991 38.5863 26.9224 40.6701L27.431 40.4323ZM26.0103 45.6437C26.4011 46.0533 26.4011 46.0532 26.4019 46.0529C26.4019 46.0527 26.4026 46.052 26.4026 46.0516C26.4034 46.051 26.4041 46.0501 26.4056 46.049C26.4071 46.0471 26.4101 46.0443 26.4131 46.041C26.4198 46.0345 26.4287 46.0253 26.4399 46.0138C26.4615 45.9907 26.4921 45.9579 26.5301 45.9159C26.6062 45.8321 26.7114 45.7114 26.8322 45.5588C27.0731 45.2549 27.3833 44.818 27.6555 44.2886C28.1947 43.2416 28.6295 41.7385 27.9397 40.1944L27.431 40.4323L26.9224 40.6701C27.4049 41.7504 27.1305 42.8529 26.6659 43.7555C26.4362 44.201 26.1714 44.5749 25.9634 44.8381C25.859 44.969 25.771 45.0709 25.7091 45.1389C25.6785 45.1727 25.6546 45.1981 25.6397 45.2142C25.6315 45.2222 25.6263 45.228 25.6225 45.2313C25.6211 45.233 25.6203 45.2341 25.6196 45.2345C25.6196 45.2346 25.6196 45.2348 25.6196 45.2345C25.6203 45.2344 25.6203 45.2341 26.0103 45.6437ZM38.7921 31.6017C38.4826 31.1251 38.4826 31.1252 38.4826 31.1251C38.4826 31.125 38.4826 31.1247 38.4834 31.1246C38.4834 31.1244 38.4834 31.1242 38.4841 31.1241C38.4841 31.1237 38.4849 31.1234 38.4856 31.1231C38.4864 31.1225 38.4871 31.1218 38.4879 31.1213C38.4894 31.1203 38.4908 31.1196 38.4916 31.1189C38.4938 31.1178 38.4938 31.1174 38.4938 31.1177C38.4923 31.1184 38.4871 31.1214 38.4789 31.1255C38.461 31.1343 38.4342 31.1449 38.4043 31.1517C38.3491 31.1642 38.3029 31.1614 38.2492 31.1251L37.9397 31.6017L37.6302 32.0783C38.0031 32.3315 38.382 32.3288 38.6467 32.2689C38.7765 32.2395 38.8831 32.1958 38.9584 32.1594C38.9965 32.1408 39.0278 32.1235 39.0517 32.1095C39.0636 32.1024 39.074 32.0961 39.0822 32.0909C39.086 32.0883 39.0897 32.0858 39.0934 32.0838C39.0949 32.0827 39.0964 32.0817 39.0979 32.0808C39.0979 32.0803 39.0987 32.0799 39.0994 32.0795C39.1001 32.0793 39.1001 32.0791 39.1001 32.0789C39.1009 32.0788 39.1009 32.0786 39.1009 32.0786C39.1009 32.0784 39.1016 32.0783 38.7921 31.6017ZM37.7436 31.4281L37.1857 31.3838C37.1805 31.4474 37.188 31.5031 37.1887 31.5114C37.1917 31.5361 37.1977 31.5758 37.2096 31.621L37.7488 31.4703L38.2887 31.3196C38.2962 31.348 38.2992 31.3689 38.2999 31.3778C38.3007 31.3837 38.3014 31.3911 38.3014 31.4002C38.3022 31.4047 38.3022 31.4117 38.3022 31.4205C38.3029 31.426 38.3029 31.4462 38.3007 31.4725L37.7436 31.4281ZM37.7488 31.4703L37.2096 31.621C37.2491 31.7699 37.3327 31.8619 37.3752 31.9031C37.3901 31.9177 37.411 31.9357 37.402 31.9276C37.4013 31.9271 37.3781 31.9075 37.3528 31.8779L37.7742 31.5013L38.1955 31.1247C38.1657 31.0905 38.1388 31.0665 38.1329 31.0618C38.1194 31.0494 38.1351 31.0632 38.1455 31.0731C38.1784 31.105 38.2529 31.1862 38.2887 31.3196L37.7488 31.4703ZM37.7742 31.5013L37.3528 31.8779C37.405 31.9384 37.4572 31.977 37.4803 31.9939L37.804 31.5274L38.1276 31.0609C38.1276 31.0609 38.1299 31.0623 38.1329 31.0646C38.1359 31.0671 38.1411 31.071 38.147 31.0763C38.1597 31.0874 38.1769 31.1035 38.1955 31.1247L37.7742 31.5013ZM37.804 31.5274L37.4803 31.9939C37.5198 32.0227 37.5564 32.042 37.5817 32.0542L37.8182 31.5356L38.0538 31.0169C38.0702 31.0247 38.0971 31.0386 38.1276 31.0609L37.804 31.5274ZM37.8182 31.5356L37.5817 32.0542C37.6011 32.0632 37.6168 32.0696 37.6272 32.0737C37.6317 32.0757 37.6362 32.0773 37.6384 32.0781C37.6422 32.0794 37.6399 32.0787 37.6392 32.0785L37.8353 31.5426L38.0322 31.0069C38.03 31.0061 38.0285 31.0054 38.027 31.0051C38.027 31.005 38.0262 31.0047 38.0262 31.0047C38.0255 31.0045 38.0255 31.0045 38.0255 31.0044C38.0247 31.0043 38.0262 31.0047 38.0285 31.0056C38.0329 31.0073 38.0419 31.0111 38.0538 31.0169L37.8182 31.5356ZM37.8353 31.5426L37.6392 32.0785C37.6474 32.0817 37.6787 32.0934 37.719 32.1025C37.7361 32.1064 37.7846 32.1167 37.848 32.1157C37.8763 32.1153 38.0934 32.1153 38.2604 31.9205C38.4692 31.6764 38.3872 31.4036 38.3588 31.3319C38.3268 31.248 38.282 31.1929 38.2693 31.1775C38.2373 31.1377 38.2067 31.1112 38.2007 31.1061L37.8375 31.5412L37.4744 31.9764C37.4699 31.9725 37.4401 31.947 37.4087 31.908C37.3961 31.893 37.352 31.8382 37.3192 31.7545C37.2916 31.6831 37.2096 31.4105 37.4184 31.1666C37.5855 30.9719 37.8017 30.972 37.8301 30.9716C37.8927 30.9706 37.9405 30.9808 37.9576 30.9846C37.9971 30.9933 38.0255 31.0046 38.0322 31.0069L37.8353 31.5426ZM37.8375 31.5412L38.2007 31.1061C38.191 31.0979 38.1836 31.0914 38.1784 31.0874C38.1731 31.0832 38.1679 31.0797 38.1649 31.0771C38.1582 31.072 38.1523 31.0677 38.1485 31.0651C38.1448 31.0623 38.1411 31.0596 38.1388 31.0579C38.1359 31.056 38.1344 31.0548 38.1329 31.0538C38.1284 31.0508 38.1321 31.0534 38.1388 31.0588C38.1426 31.0615 38.1515 31.0689 38.1634 31.0797C38.1694 31.0852 38.1784 31.094 38.1896 31.1055C38.1992 31.116 38.2171 31.1353 38.2358 31.162L37.7853 31.5011L37.3349 31.8401C37.355 31.8679 37.3737 31.8884 37.3849 31.9001C37.3968 31.9129 37.4072 31.9231 37.4147 31.9301C37.4296 31.9439 37.443 31.9547 37.4512 31.9609C37.4669 31.9734 37.4811 31.9841 37.4885 31.9892C37.4923 31.9921 37.4967 31.995 37.499 31.9969C37.5019 31.9991 37.5034 32.0001 37.5049 32.0008C37.5057 32.0016 37.5042 32.0005 37.5012 31.9982C37.5005 31.9975 37.4885 31.989 37.4744 31.9764L37.8375 31.5412ZM37.7853 31.5011L38.2358 31.162C38.2634 31.1994 38.2962 31.2553 38.3186 31.3297C38.329 31.3646 38.3462 31.4338 38.3417 31.5228C38.338 31.6063 38.3089 31.7943 38.1381 31.9376L37.7838 31.4947L37.4296 31.0518C37.2581 31.1954 37.2282 31.384 37.2245 31.4684C37.22 31.5583 37.2379 31.6285 37.2484 31.6646C37.2715 31.7413 37.3058 31.8 37.3349 31.8401L37.7853 31.5011ZM37.7838 31.4947L38.1381 31.9376C38.0717 31.9931 37.9919 32.0329 37.9054 32.0523C37.8219 32.0711 37.7473 32.067 37.6899 32.0565C37.5855 32.0373 37.5146 31.992 37.4908 31.9759C37.4415 31.9432 37.4095 31.9084 37.4214 31.9199C37.4214 31.9202 37.4221 31.9207 37.4236 31.9226C37.4251 31.9241 37.4281 31.9268 37.4311 31.9297C37.4363 31.9355 37.4468 31.9454 37.4587 31.9567C37.4758 31.9722 37.5325 32.0246 37.6168 32.0649L37.854 31.5466L38.0904 31.0283C38.162 31.0623 38.2045 31.1039 38.2082 31.1067C38.2134 31.1116 38.2239 31.1222 38.206 31.1041C38.2045 31.1029 38.1605 31.0568 38.1015 31.0173C38.0725 30.9979 37.9971 30.9503 37.8883 30.9303C37.7577 30.9062 37.581 30.9249 37.4296 31.0518L37.7838 31.4947ZM37.854 31.5466L37.6168 32.0649C37.7011 32.1054 37.7771 32.1157 37.8196 32.1189C37.8651 32.1223 37.9017 32.1196 37.9218 32.1176C37.9434 32.1156 37.9606 32.1127 37.9658 32.1119C37.9785 32.1098 37.9643 32.1121 37.9546 32.1134L37.8838 31.5459L37.8137 30.9783C37.7995 30.98 37.7809 30.9833 37.7883 30.982C37.7891 30.9819 37.7921 30.9814 37.7965 30.9808C37.801 30.9803 37.8077 30.9793 37.8159 30.9785C37.8308 30.977 37.8614 30.9747 37.9017 30.9777C37.939 30.9805 38.0098 30.9897 38.0904 31.0283L37.854 31.5466ZM37.8838 31.5459L37.9546 32.1134C37.971 32.1113 38.0993 32.0983 38.2253 32.0031C38.37 31.8933 38.417 31.75 38.4297 31.71L37.8965 31.5365L37.3632 31.3631C37.3737 31.3295 37.4184 31.1902 37.5601 31.0832C37.6817 30.9909 37.8055 30.9793 37.8137 30.9783L37.8838 31.5459ZM37.8965 31.5365L38.4297 31.71C38.4789 31.5506 38.4707 31.3508 38.3596 31.1794L37.8935 31.495L37.4266 31.8108C37.3707 31.7244 37.3498 31.6394 37.3431 31.5763C37.3356 31.5076 37.3409 31.4349 37.3632 31.3631L37.8965 31.5365ZM37.8935 31.495L38.3596 31.1794C38.3119 31.1059 38.2559 31.049 38.2343 31.0282L37.8502 31.4445L37.4669 31.8608C37.4602 31.8545 37.4565 31.8509 37.4542 31.8481C37.4527 31.8462 37.4497 31.8428 37.446 31.8377C37.4423 31.8332 37.4356 31.8239 37.4266 31.8108L37.8935 31.495ZM37.8502 31.4445L38.2343 31.0282C38.1888 30.9848 38.1455 30.9565 38.115 30.9391C38.0844 30.9216 38.0575 30.91 38.0426 30.9036C38.027 30.8972 38.0136 30.8922 38.0098 30.891C38.0039 30.8886 38.0076 30.89 38.0121 30.8918L37.8092 31.4251L37.6071 31.9584C37.619 31.9632 37.631 31.9676 37.6317 31.968C37.6362 31.9696 37.6302 31.9674 37.622 31.9641C37.6138 31.9606 37.5937 31.9521 37.5698 31.9381C37.5452 31.9242 37.5072 31.8998 37.4669 31.8608L37.8502 31.4445ZM37.8092 31.4251L38.0121 30.8918C37.9606 30.8713 37.9062 30.858 37.8987 30.856L37.7577 31.4096L37.6161 31.9632C37.6175 31.9637 37.619 31.9641 37.6205 31.9644C37.622 31.9647 37.6235 31.9651 37.6243 31.9654C37.6265 31.966 37.6287 31.9665 37.6302 31.967C37.634 31.9679 37.6347 31.9681 37.6339 31.968C37.6339 31.9679 37.631 31.967 37.6265 31.9656C37.622 31.9641 37.6153 31.9617 37.6071 31.9584L37.8092 31.4251ZM37.7577 31.4096L37.8987 30.856C37.8845 30.8522 37.8726 30.8495 37.8659 30.8478C37.8622 30.8471 37.8584 30.8462 37.8577 30.846C37.8562 30.8457 37.8554 30.8455 37.8577 30.846C37.8592 30.8463 37.8629 30.8473 37.8689 30.8489C37.8748 30.8504 37.8845 30.8532 37.8972 30.8575C37.9091 30.8617 37.9293 30.8689 37.9531 30.88C37.9755 30.8908 38.0113 30.9098 38.0508 30.9402L37.7152 31.3978L37.3796 31.8554C37.4207 31.8869 37.4579 31.9068 37.4833 31.9185C37.5087 31.9307 37.531 31.9388 37.5452 31.9438C37.5735 31.9532 37.5967 31.9588 37.6041 31.9605C37.6086 31.9617 37.6131 31.9627 37.6153 31.9632C37.6183 31.9639 37.619 31.9641 37.6205 31.9644C37.622 31.9647 37.6198 31.9642 37.6161 31.9632L37.7577 31.4096ZM37.7152 31.3978L38.0508 30.9402C38.0837 30.9648 38.112 30.9928 38.1359 31.0227C38.1597 31.052 38.1761 31.0784 38.1858 31.0961C38.194 31.1112 38.2 31.1242 38.197 31.1182C38.197 31.117 38.1881 31.0983 38.1769 31.0775L37.6899 31.359L37.2029 31.6404C37.1947 31.6266 37.1895 31.6148 37.1925 31.6204C37.1925 31.6211 37.2014 31.6408 37.2141 31.6625C37.2439 31.7169 37.2954 31.7905 37.3796 31.8554L37.7152 31.3978ZM37.6899 31.359L38.1769 31.0775C38.2574 31.2238 38.2612 31.3807 38.2268 31.5051L37.6884 31.3498L37.1499 31.1945C37.1142 31.3244 37.1179 31.4877 37.2029 31.6404L37.6899 31.359ZM37.6884 31.3498L38.2268 31.5051C38.1523 31.7749 37.9338 31.8649 37.8644 31.8868C37.8271 31.8988 37.7965 31.9035 37.7913 31.9043C37.766 31.9084 37.8062 31.9023 37.8271 31.8978L37.7123 31.3379L37.5967 30.778C37.6146 30.7741 37.6511 30.7686 37.6205 30.7734C37.6108 30.775 37.5758 30.7805 37.5333 30.794C37.455 30.8189 37.2275 30.9142 37.1499 31.1945L37.6884 31.3498ZM37.7123 31.3379L37.8271 31.8978C37.6377 31.9386 37.4923 31.8676 37.4296 31.8285C37.3692 31.7905 37.3319 31.7495 37.3245 31.7418C37.317 31.7334 37.3058 31.7202 37.3177 31.7345C37.3207 31.7381 37.3461 31.7681 37.3804 31.799L37.7488 31.3687L38.118 30.9385C38.1344 30.9532 38.1455 30.9656 38.1515 30.972C38.1575 30.9786 38.162 30.9835 38.162 30.9836C38.1679 30.9907 38.1508 30.97 38.1366 30.9548C38.1232 30.9405 38.0799 30.8936 38.0128 30.8516C37.9434 30.8087 37.7921 30.7358 37.5967 30.778L37.7123 31.3379ZM37.7488 31.3687L37.3804 31.799C37.4304 31.8442 37.4796 31.873 37.5146 31.8907C37.5318 31.8997 37.5467 31.906 37.5556 31.9096C37.5586 31.9109 37.5631 31.9127 37.5609 31.9118C37.5601 31.9117 37.5579 31.9109 37.5556 31.9096C37.5527 31.9084 37.5467 31.9058 37.5385 31.9021L37.7704 31.3815L38.0031 30.8609C37.9949 30.8572 37.9882 30.8544 37.9852 30.853C37.9815 30.8516 37.9785 30.8504 37.9778 30.8501C37.9748 30.8487 37.9778 30.8501 37.9792 30.8508C37.9852 30.8531 37.9964 30.8579 38.0098 30.8648C38.0374 30.8786 38.0762 30.9016 38.118 30.9385L37.7488 31.3687ZM37.7704 31.3815C38.238 31.0671 38.238 31.067 38.238 31.0671C38.238 31.0673 38.2388 31.0678 38.2388 31.0679C38.2388 31.0677 38.2388 31.0681 38.2388 31.0679C38.2395 31.0684 38.2395 31.0697 38.2403 31.0702C38.241 31.0713 38.241 31.0723 38.2418 31.0734C38.2432 31.0756 38.2447 31.078 38.2462 31.0804C38.2492 31.0854 38.2529 31.0912 38.2567 31.0977C38.2634 31.1097 38.2738 31.1295 38.2843 31.1551C38.2932 31.1768 38.3126 31.2255 38.3223 31.291C38.3305 31.3456 38.3469 31.4995 38.2544 31.6632L37.7697 31.378L37.2849 31.0929C37.1925 31.2572 37.2089 31.4117 37.2171 31.4671C37.2268 31.5333 37.2462 31.5829 37.2558 31.6054C37.267 31.6317 37.2775 31.6521 37.2849 31.6646C37.2887 31.6713 37.2916 31.6774 37.2954 31.6824C37.2969 31.685 37.2984 31.6874 37.2991 31.6897C37.2998 31.6907 37.3006 31.6918 37.3013 31.6929C37.3021 31.6934 37.3021 31.6939 37.3021 31.6944C37.3028 31.6947 37.3028 31.6949 37.3028 31.6951C37.3028 31.6951 37.3028 31.6953 37.3028 31.6951C37.3036 31.6952 37.3036 31.6957 37.3036 31.6958C37.3036 31.6958 37.3036 31.6959 37.7704 31.3815ZM37.7697 31.378L38.2544 31.6632C38.2179 31.7294 38.1612 31.7986 38.0799 31.8532C37.9986 31.9081 37.9129 31.9348 37.8353 31.9435C37.6944 31.9594 37.5885 31.9154 37.5497 31.8974L37.7809 31.3763L38.0121 30.8553C37.9688 30.835 37.8584 30.7898 37.7138 30.8061C37.5303 30.8266 37.3729 30.9359 37.2849 31.0929L37.7697 31.378ZM37.7809 31.3763L37.5497 31.8974C37.499 31.8738 37.4647 31.8477 37.449 31.8354C37.4303 31.8211 37.4169 31.8084 37.4087 31.8002C37.3938 31.7852 37.3789 31.7685 37.364 31.7478L37.8137 31.4074L38.2634 31.0669C38.241 31.0363 38.2157 31.0066 38.1888 30.9797C38.1724 30.9635 38.109 30.9003 38.0121 30.8553L37.7809 31.3763ZM37.8137 31.4074L37.364 31.7478C37.323 31.6906 37.2991 31.6346 37.2849 31.5897C37.2775 31.5664 37.2693 31.5354 37.2641 31.4981C37.2618 31.4796 37.2588 31.4522 37.2588 31.4188C37.2581 31.3917 37.2596 31.3284 37.2827 31.2517L37.8174 31.4185L38.3529 31.5851C38.3909 31.4562 38.373 31.3479 38.3715 31.3352C38.3656 31.2964 38.3573 31.2635 38.3491 31.2381C38.3342 31.1892 38.3081 31.1283 38.2634 31.0669L37.8137 31.4074ZM37.8174 31.4185L37.2827 31.2517C37.3028 31.1837 37.4057 30.909 37.7264 30.8556C37.8592 30.8334 37.9666 30.8654 38.0277 30.8909C38.0889 30.9166 38.1321 30.9478 38.1545 30.9657C38.1985 31.0004 38.2268 31.0339 38.2335 31.0421C38.2447 31.0546 38.2514 31.0644 38.2529 31.0665C38.2731 31.094 38.2306 31.035 38.2134 31.0129L37.7809 31.3763L37.3491 31.7397C37.3438 31.733 37.3409 31.7288 37.3424 31.731C37.3438 31.7326 37.3438 31.7331 37.3468 31.7373C37.3491 31.7402 37.3535 31.7466 37.3588 31.7537C37.3632 31.7602 37.3737 31.7737 37.3863 31.7894C37.396 31.8007 37.4266 31.8365 37.4729 31.8729C37.4893 31.8859 37.6578 32.0264 37.9062 31.985C38.2283 31.9314 38.332 31.6555 38.3529 31.5851L37.8174 31.4185ZM37.7809 31.3763L38.2134 31.0129C38.2089 31.0076 38.2045 31.0019 38.1992 30.9961L37.7771 31.3715L37.355 31.7467C37.3528 31.7442 37.3506 31.7418 37.3491 31.7397L37.7809 31.3763ZM37.7771 31.3715L38.1992 30.9961C38.1717 30.9634 38.1455 30.9385 38.1291 30.9233C38.1202 30.9156 38.1127 30.9091 38.1083 30.9051C38.1068 30.9035 38.1038 30.9009 38.103 30.9005C38.1016 30.8993 38.1015 30.8992 38.1023 30.8994L37.7354 31.3316L37.3692 31.7639C37.3722 31.7667 37.3752 31.7692 37.3767 31.7709C37.3796 31.7733 37.3796 31.7735 37.3819 31.7749C37.3834 31.7761 37.3841 31.7769 37.3819 31.7749C37.3811 31.7736 37.3774 31.7711 37.3729 31.7666C37.3685 31.7621 37.3625 31.7554 37.355 31.7467L37.7771 31.3715ZM37.7354 31.3316L38.1023 30.8994C38.0359 30.8411 37.9718 30.8104 37.9375 30.7956C37.9024 30.7805 37.8719 30.7715 37.8629 30.7689C37.8599 30.7679 37.8577 30.7672 37.8562 30.7668C37.8554 30.7666 37.8547 30.7665 37.8547 30.7663C37.854 30.7663 37.854 30.7662 37.854 30.7662C37.854 30.7662 37.8547 30.7662 37.8547 30.7663C37.8554 30.7665 37.8562 30.7668 37.8569 30.767C37.8584 30.7676 37.8614 30.7685 37.8651 30.7696C37.8711 30.7719 37.8838 30.7763 37.8994 30.783C37.9151 30.7897 37.9375 30.8006 37.9643 30.8171L37.675 31.3065L37.3849 31.7961C37.4162 31.815 37.443 31.8281 37.4632 31.8368C37.4841 31.8457 37.5012 31.8519 37.5131 31.8559C37.5251 31.8599 37.5348 31.863 37.54 31.8645C37.543 31.8653 37.5452 31.866 37.5467 31.8664C37.5482 31.8669 37.5482 31.8669 37.5482 31.8669C37.5482 31.8669 37.5467 31.8666 37.5452 31.866C37.5437 31.8655 37.5407 31.8647 37.5377 31.8635C37.531 31.8614 37.5199 31.8574 37.5064 31.8515C37.4923 31.8456 37.4729 31.8364 37.4505 31.8232C37.4281 31.81 37.399 31.7908 37.3692 31.7639L37.7354 31.3316ZM37.675 31.3065L37.9643 30.8171C38.0173 30.8496 38.0523 30.8842 38.071 30.9039C38.0874 30.9215 38.1016 30.9396 38.0948 30.9313L37.6645 31.2962L37.2335 31.661C37.2297 31.656 37.2469 31.6779 37.267 31.6993C37.2887 31.7226 37.3282 31.7608 37.3849 31.7961L37.675 31.3065ZM37.6645 31.2962L38.0948 30.9313C38.1784 31.0337 38.2015 31.1367 38.2089 31.1691C38.2179 31.2125 38.2194 31.2467 38.2201 31.2615C38.2209 31.2788 38.2201 31.2917 38.2201 31.2977C38.2201 31.3042 38.2194 31.3084 38.2194 31.3093L37.6623 31.2574L37.1052 31.2055C37.1037 31.2221 37.1007 31.2594 37.1022 31.3029C37.103 31.3245 37.1052 31.3644 37.1156 31.4124C37.1238 31.4497 37.1485 31.5563 37.2335 31.661L37.6645 31.2962ZM37.6623 31.2574L38.2194 31.3093L37.663 31.2508L37.1067 31.192C37.1059 31.1961 37.1059 31.2006 37.1052 31.2055L37.6623 31.2574ZM37.663 31.2508L38.2194 31.3093C38.2194 31.3102 38.2194 31.3094 38.2194 31.3093L37.6638 31.2452L37.1074 31.1817C37.1074 31.1846 37.1067 31.1881 37.1067 31.192L37.663 31.2508ZM37.6638 31.2452L38.2194 31.3093C38.2209 31.2974 38.2268 31.245 38.2201 31.1801C38.2171 31.1554 38.2074 31.0647 38.1538 30.9644C38.1239 30.9093 38.0672 30.826 37.9673 30.7597C37.8577 30.6872 37.7294 30.658 37.6064 30.671C37.3998 30.6926 37.2805 30.8212 37.2588 30.8445C37.2186 30.8876 37.1939 30.9278 37.182 30.9474C37.1574 30.9897 37.1425 31.0275 37.1335 31.0528L37.6615 31.2431L38.1888 31.4334C38.1806 31.4571 38.1664 31.4936 38.1426 31.5348C38.1314 31.5538 38.1068 31.5935 38.0665 31.6363C38.0449 31.6593 37.9263 31.7877 37.7205 31.8093C37.5967 31.8222 37.4691 31.7931 37.3595 31.7207C37.2596 31.6545 37.2029 31.5713 37.1738 31.5163C37.1194 31.4164 37.1104 31.3262 37.1074 31.3023C37.1007 31.239 37.1067 31.1897 37.1074 31.1817L37.6638 31.2452ZM37.6615 31.2431L37.1335 31.0528C37.1194 31.0945 37.1067 31.146 37.1022 31.2055L37.6601 31.2486L38.2179 31.2916C38.2142 31.3473 38.2022 31.3951 38.1888 31.4334L37.6615 31.2431ZM37.6601 31.2486L37.1022 31.2055C37.0992 31.2509 37.1 31.3088 37.1141 31.3739L37.6608 31.2526L38.2067 31.1313C38.2201 31.1938 38.2209 31.2489 38.2179 31.2916L37.6601 31.2486ZM37.6608 31.2526L37.1141 31.3739C37.1283 31.4415 37.1522 31.4985 37.1783 31.5441L37.6623 31.2574L38.1463 30.9707C38.1702 31.0132 38.1933 31.0671 38.2067 31.1313L37.6608 31.2526ZM37.6623 31.2574L37.1783 31.5441C37.2268 31.6298 37.2849 31.683 37.3133 31.7069C37.3438 31.7326 37.3707 31.7505 37.3804 31.7566C37.3864 31.7604 37.3916 31.7638 37.3931 31.765C37.396 31.7667 37.3953 31.7666 37.3946 31.766C37.3938 31.7652 37.3819 31.7578 37.367 31.7458L37.71 31.2939L38.0531 30.842C38.0292 30.8229 38.0083 30.8088 37.9971 30.8017C37.9919 30.7982 37.9867 30.7949 37.9845 30.7937C37.9815 30.7918 37.9822 30.7924 37.9837 30.7932C37.9845 30.7936 38.0039 30.8059 38.027 30.8258C38.0397 30.8366 38.0583 30.853 38.0777 30.8752C38.0978 30.8973 38.1224 30.929 38.1463 30.9707L37.6623 31.2574ZM37.71 31.2939L37.367 31.7458C37.361 31.7411 37.3573 31.7374 37.3558 31.736C37.355 31.7356 37.355 31.7354 37.3565 31.737C37.3573 31.7375 37.3588 31.7388 37.3595 31.7401C37.361 31.7414 37.3632 31.7434 37.3662 31.7456L37.7339 31.3146L38.1015 30.8836C38.103 30.885 38.1045 30.8863 38.1023 30.8839C38.1001 30.8824 38.0963 30.8789 38.0919 30.875C38.0829 30.8666 38.0695 30.8551 38.0531 30.842L37.71 31.2939ZM37.7339 31.3146L37.3662 31.7456C37.367 31.7467 37.3699 31.7489 37.3722 31.7514C37.3729 31.7517 37.3774 31.7559 37.3841 31.761C37.3856 31.7625 37.3893 31.7654 37.3938 31.7689C37.3953 31.7706 37.4072 31.7801 37.4236 31.7912C37.4281 31.7944 37.4527 31.8117 37.487 31.8291C37.5087 31.8396 37.5728 31.8642 37.6168 31.8758C37.7182 31.8888 38.0337 31.8016 38.1978 31.6405C38.2783 31.4589 38.279 31.1784 38.2537 31.0997C38.2388 31.0649 38.2104 31.0128 38.1992 30.9951C38.1799 30.9661 38.162 30.9454 38.1582 30.9408C38.1463 30.9268 38.1359 30.9164 38.1336 30.9143C38.1299 30.9104 38.1269 30.9072 38.1254 30.9056C38.1217 30.9023 38.1194 30.8997 38.118 30.8986C38.1157 30.8962 38.1135 30.8943 38.1127 30.8935C38.1105 30.8916 38.109 30.8899 38.1075 30.8888C38.1023 30.884 38.0948 30.8769 38.0859 30.8693C38.0702 30.8545 38.0449 30.8318 38.0247 30.8147L37.663 31.2508L37.3006 31.6871C37.311 31.6961 37.3297 31.7122 37.3446 31.7263C37.352 31.7331 37.358 31.7383 37.3595 31.7401C37.3603 31.7405 37.3595 31.7398 37.3588 31.7388C37.358 31.7385 37.3565 31.737 37.3543 31.7348C37.3535 31.7338 37.3506 31.7314 37.3476 31.7281C37.3461 31.7265 37.3431 31.7234 37.3394 31.7196C37.3371 31.7175 37.3267 31.7071 37.3148 31.6931C37.311 31.6885 37.2931 31.6678 37.2737 31.6388C37.2626 31.6211 37.2342 31.5691 37.2193 31.5342C37.1939 31.4555 37.1947 31.1751 37.2752 30.9934C37.4393 30.8323 37.7548 30.7451 37.8562 30.7581C37.9002 30.7698 37.9643 30.7944 37.986 30.8049C38.0203 30.8222 38.0449 30.8395 38.0493 30.8428C38.0658 30.8538 38.0777 30.8633 38.0792 30.865C38.0836 30.8685 38.0874 30.8713 38.0889 30.8728C38.0926 30.8758 38.0956 30.8782 38.0963 30.879C38.0978 30.8802 38.0986 30.8811 38.0993 30.8816C38.1016 30.8833 38.1023 30.8843 38.1015 30.8836L37.7339 31.3146ZM37.663 31.2508L38.0247 30.8147C38.024 30.8136 38.0225 30.8124 38.021 30.8111L37.6601 31.2486L37.2998 31.6859C37.2998 31.6862 37.3006 31.6865 37.3006 31.6871L37.663 31.2508ZM37.6601 31.2486L38.021 30.8111C38.0158 30.8065 38.0068 30.7994 37.9979 30.792C37.9942 30.7888 37.9852 30.7816 37.974 30.7734C37.9688 30.7695 37.9576 30.7617 37.9442 30.7527C37.9405 30.7502 37.8965 30.7209 37.8353 30.6984L37.6451 31.2366L37.4557 31.7748C37.4192 31.7614 37.3923 31.7469 37.3804 31.7404C37.3662 31.7325 37.355 31.7256 37.3483 31.7212C37.3349 31.7125 37.3245 31.7052 37.32 31.7019C37.311 31.6949 37.3043 31.6894 37.3028 31.6883C37.2983 31.6851 37.2969 31.6837 37.2998 31.6859L37.6601 31.2486ZM37.6451 31.2366L37.8353 30.6984C37.5899 30.6078 37.3938 30.7164 37.3394 30.7501L37.6287 31.2396L37.9188 31.7292C37.8741 31.7566 37.6899 31.8613 37.4557 31.7748L37.6451 31.2366ZM37.6287 31.2396L37.3394 30.7501C37.2238 30.822 37.1447 30.9263 37.1007 31.0339L37.6168 31.2545L38.1329 31.4751C38.0933 31.5708 38.0232 31.6643 37.9188 31.7292L37.6287 31.2396ZM37.6168 31.2545L37.1007 31.0339C37.0634 31.1247 37.0552 31.2081 37.056 31.2689C37.056 31.3226 37.0642 31.3654 37.0664 31.3794C37.0679 31.3885 37.0694 31.3962 37.0701 31.4004C37.0709 31.4027 37.0716 31.4049 37.0716 31.4063C37.0724 31.408 37.0724 31.4091 37.0724 31.4103C37.0731 31.414 37.0731 31.4151 37.0739 31.4157L37.625 31.3181L38.1761 31.2205C38.1724 31.202 38.1694 31.1869 38.1679 31.177C38.1649 31.162 38.1657 31.1688 38.1664 31.173C38.1672 31.1772 38.1739 31.2119 38.1746 31.2585C38.1746 31.3124 38.1679 31.3899 38.1329 31.4751L37.6168 31.2545ZM37.625 31.3181L37.0739 31.4157C37.0843 31.4801 37.1007 31.5495 37.1298 31.6192C37.1455 31.6563 37.1611 31.6855 37.1738 31.7066C37.1768 31.7119 37.1843 31.7239 37.1805 31.718C37.1798 31.717 37.1731 31.706 37.1656 31.691L37.6593 31.4225L38.153 31.154C38.1433 31.1353 38.1351 31.1207 38.1321 31.1158C38.1306 31.1141 38.1284 31.1102 38.1291 31.1115C38.1291 31.1114 38.1291 31.1116 38.1291 31.1115C38.1291 31.1117 38.1299 31.1122 38.1299 31.1125C38.1299 31.1131 38.1306 31.1141 38.1314 31.1153C38.1344 31.1202 38.1388 31.1282 38.1441 31.1382C38.1493 31.1483 38.1538 31.1586 38.1582 31.169C38.1754 31.2097 38.1784 31.2344 38.1761 31.2205L37.625 31.3181ZM37.6593 31.4225L37.1656 31.691C37.1939 31.7466 37.2215 31.7839 37.232 31.7984L37.6839 31.4619L38.1366 31.1252C38.1336 31.1212 38.1336 31.1215 38.1336 31.1217C38.1344 31.1225 38.1366 31.1253 38.1388 31.1291C38.1441 31.1379 38.1493 31.1466 38.153 31.154L37.6593 31.4225ZM37.6839 31.4619L37.232 31.7984C37.3066 31.9036 37.3983 31.9641 37.4281 31.9836L37.7317 31.503L38.0352 31.0224C38.0352 31.0227 38.0382 31.0244 38.0419 31.0274C38.0464 31.0304 38.0531 31.0354 38.0613 31.0424C38.0762 31.0553 38.106 31.0824 38.1366 31.1252L37.6839 31.4619ZM37.7317 31.503L37.4281 31.9836C37.4751 32.0146 37.5169 32.0333 37.537 32.0419C37.5482 32.0466 37.5579 32.0504 37.5631 32.0523C37.5653 32.0532 37.5683 32.0545 37.5691 32.0546C37.5698 32.0548 37.5706 32.0551 37.5691 32.0546L37.7719 31.5214L37.974 30.988C37.9703 30.9864 37.9666 30.9851 37.9651 30.9843C37.9621 30.9832 37.9613 30.9832 37.9606 30.9826C37.9584 30.9819 37.9613 30.9825 37.9651 30.9843C37.9695 30.9861 37.9785 30.9903 37.9897 30.9959C38.0001 31.0015 38.0165 31.0101 38.0352 31.0224L37.7317 31.503ZM37.7719 31.5214L37.5691 32.0546C37.6138 32.0722 37.6548 32.0831 37.6615 32.0849L37.807 31.5323L37.9517 30.9796C37.9479 30.9787 37.9472 30.9784 37.9464 30.9782C37.9457 30.978 37.9464 30.9782 37.9479 30.9787C37.9516 30.9797 37.9613 30.9828 37.974 30.988L37.7719 31.5214ZM37.807 31.5323L37.6623 32.0851L37.663 32.0854L37.807 31.5323L37.9517 30.9796L37.9509 30.9794L37.807 31.5323ZM37.807 31.5323L37.6533 32.0826C37.6608 32.0848 37.6675 32.0867 37.672 32.088L37.8182 31.5356L37.9636 30.9831C37.9621 30.9826 37.9613 30.9827 37.9606 30.9826L37.807 31.5323ZM37.8182 31.5356L37.672 32.088C37.675 32.0886 37.6772 32.0893 37.6787 32.0896C37.6794 32.0898 37.6794 32.0899 37.6802 32.09C37.6802 32.09 37.6802 32.09 37.6794 32.0899C37.6787 32.0897 37.678 32.0894 37.6765 32.089C37.6742 32.0884 37.669 32.0873 37.6623 32.0851L37.8353 31.5404L38.0076 30.9961C37.9986 30.9932 37.9919 30.9911 37.9874 30.9897C37.9822 30.9883 37.9785 30.9871 37.9755 30.9864C37.9725 30.9855 37.9703 30.9848 37.9681 30.9844C37.9666 30.9838 37.9651 30.9835 37.9636 30.9831L37.8182 31.5356ZM37.8353 31.5404L37.6593 32.0835C37.6586 32.0835 37.6586 32.0832 37.6578 32.0831C37.6571 32.0828 37.6563 32.0825 37.6548 32.0819C37.6518 32.0809 37.6474 32.0793 37.6422 32.0774L37.8375 31.5412L38.0329 31.0051C38.021 31.0007 38.0121 30.9975 38.0113 30.9972L37.8353 31.5404ZM37.8375 31.5412L37.6422 32.0774C37.6287 32.0722 37.6138 32.0658 37.5982 32.0581C37.5832 32.0507 37.5706 32.0437 37.5609 32.0378L37.8458 31.5453L38.1299 31.0527C38.1008 31.035 38.0687 31.0188 38.0329 31.0051L37.8375 31.5412ZM38.0561 31.7379V32.3101C38.0218 32.3101 37.9949 32.3067 37.986 32.3055C37.9733 32.3039 37.9636 32.3022 37.9584 32.3012C37.9479 32.2992 37.9397 32.2974 37.9375 32.2968C37.9345 32.296 37.9323 32.2955 37.9315 32.2953C37.9315 32.2952 37.9308 32.2952 37.9308 32.2951L38.0777 31.743L38.2246 31.191C38.2171 31.1888 38.2052 31.1856 38.1918 31.1824C38.1858 31.1809 38.1739 31.1782 38.1605 31.1757C38.159 31.1754 38.1127 31.1658 38.0561 31.1658V31.7379ZM38.0777 31.743L37.9308 32.2951C37.9666 32.3051 37.9964 32.3093 38.0076 32.3109C38.0225 32.3128 38.0337 32.3138 38.0397 32.3144C38.0464 32.3148 38.0523 32.3153 38.0538 32.3154C38.0553 32.3155 38.0568 32.3156 38.0538 32.3154L38.0963 31.7449L38.1388 31.1743C38.1336 31.174 38.1291 31.1737 38.1284 31.1736C38.1269 31.1735 38.1284 31.1736 38.1314 31.1739C38.1344 31.1741 38.1426 31.1749 38.1545 31.1764C38.1605 31.1772 38.1694 31.1785 38.1799 31.1805C38.1903 31.1825 38.206 31.1857 38.2246 31.191L38.0777 31.743ZM38.0963 31.7449L38.0538 32.3154C38.0501 32.3151 37.9942 32.3119 37.9278 32.2903C37.9084 32.284 37.7898 32.2477 37.6862 32.133C37.6235 32.0638 37.5556 31.9528 37.5407 31.8033C37.5258 31.6549 37.5698 31.5342 37.6146 31.4564C37.6884 31.3265 37.7921 31.2654 37.8092 31.2549C37.8443 31.2335 37.8733 31.2207 37.8868 31.2152C37.9151 31.2035 37.9382 31.1969 37.9449 31.195C37.9688 31.1881 37.9904 31.1842 37.9785 31.1865C37.971 31.188 37.983 31.1857 37.9733 31.1877C37.9703 31.1882 37.9658 31.1891 37.9606 31.1902C37.9546 31.1914 37.9315 31.1964 37.9047 31.2045L38.0643 31.7529L38.2239 32.3013C38.197 32.3095 38.1687 32.3145 38.1955 32.3091C38.1985 32.3086 38.2037 32.3075 38.2097 32.3062C38.2134 32.3054 38.2283 32.302 38.247 32.2968C38.2544 32.2946 38.2783 32.2878 38.3066 32.2759C38.3208 32.2702 38.3499 32.2574 38.3849 32.2359C38.4021 32.2253 38.5058 32.164 38.5803 32.034C38.6243 31.9563 38.6683 31.8355 38.6542 31.6871C38.6385 31.5375 38.5706 31.4265 38.5087 31.3572C38.4051 31.2425 38.2858 31.2061 38.2671 31.1998C38.2 31.1781 38.1433 31.1748 38.1388 31.1743L38.0963 31.7449ZM38.0643 31.7529L37.9047 31.2045C37.9129 31.202 37.8935 31.2077 37.8778 31.2132C37.8681 31.2167 37.8525 31.2224 37.8338 31.2306C37.8159 31.2386 37.7883 31.2518 37.757 31.2717L38.0523 31.7573L38.3484 32.2428C38.3186 32.2619 38.2932 32.2742 38.2768 32.2814C38.2596 32.2888 38.2462 32.2939 38.238 32.2966C38.2298 32.2994 38.2239 32.3013 38.2216 32.3019C38.2209 32.3022 38.2201 32.3024 38.2209 32.3022C38.2209 32.3022 38.2224 32.3018 38.2239 32.3013L38.0643 31.7529ZM38.0523 31.7573L37.757 31.2717C37.7339 31.2862 37.6593 31.3348 37.5952 31.4275C37.5161 31.5419 37.4348 31.7638 37.5467 32.0046C37.631 32.1847 37.7749 32.2574 37.8107 32.2749C37.8636 32.3009 37.9091 32.3124 37.9285 32.317C37.9703 32.3267 38.0039 32.3295 38.0143 32.3302C38.0292 32.3314 38.0419 32.3318 38.0486 32.332C38.0561 32.3322 38.1105 32.3323 38.0866 32.3322L38.0896 31.76L38.0934 31.1878C38.0844 31.1878 38.074 31.1879 38.0717 31.1879C38.0658 31.1879 38.0695 31.1878 38.0755 31.188C38.0792 31.1881 38.0881 31.1884 38.1001 31.1893C38.1068 31.1898 38.1388 31.1922 38.1784 31.2016C38.197 31.206 38.2418 31.2172 38.294 31.2429C38.329 31.2602 38.4729 31.3326 38.5565 31.5124C38.6691 31.7528 38.587 31.9744 38.5087 32.0884C38.4446 32.1807 38.3708 32.2288 38.3484 32.2428L38.0523 31.7573ZM38.0896 31.76L38.0866 32.3322C38.1843 32.3328 38.2589 32.308 38.291 32.2965C38.2984 32.2939 38.3037 32.2916 38.3059 32.2909C38.3096 32.2895 38.3059 32.2907 38.3037 32.2916C38.2984 32.2936 38.2761 32.3021 38.2462 32.3095L38.1157 31.753L37.986 31.1966C37.9509 31.205 37.9248 31.2148 37.9159 31.2183C37.9114 31.2199 37.9062 31.222 37.9076 31.2214C37.9076 31.2214 37.9091 31.221 37.9099 31.2205C37.9114 31.2199 37.9136 31.219 37.9166 31.218C37.9405 31.2096 38.0061 31.1873 38.0934 31.1878L38.0896 31.76ZM38.1157 31.753L38.2462 32.3095C38.1068 32.3435 37.9964 32.3079 37.9949 32.3074L38.1418 31.7555L38.2895 31.2035C38.2656 31.1969 38.1396 31.1588 37.986 31.1966L38.1157 31.753ZM38.1418 31.7555L38.0501 32.3198C38.0583 32.3212 38.065 32.3222 38.0702 32.3229C38.0747 32.3235 38.0792 32.3241 38.0799 32.3242C38.0799 32.3241 38.0792 32.3241 38.0784 32.324C38.0754 32.3236 38.0695 32.3228 38.062 32.3216L38.1493 31.7565L38.2365 31.1913C38.2283 31.19 38.2209 31.1891 38.2171 31.1885C38.2157 31.1883 38.2142 31.1881 38.2127 31.188C38.2127 31.1879 38.2119 31.1879 38.2119 31.1878C38.2119 31.1878 38.2149 31.1881 38.2179 31.1887C38.2224 31.1892 38.2276 31.19 38.2343 31.1911L38.1418 31.7555ZM38.1493 31.7565L38.062 32.3216C38.0538 32.3203 38.0389 32.3177 38.021 32.3133C38.0031 32.3088 37.9852 32.3034 37.9681 32.2973C37.9367 32.286 37.9136 32.2743 37.9047 32.2698L38.1582 31.7598L38.4118 31.2499C38.3723 31.2291 38.3134 31.2037 38.2365 31.1913L38.1493 31.7565ZM38.1739 31.7629V31.1907C38.1754 31.1907 38.1754 31.1908 38.1754 31.1908C38.1754 31.1908 38.1746 31.1907 38.1739 31.1907C38.1724 31.1907 38.1702 31.1907 38.1679 31.1906C38.1664 31.1905 38.1657 31.1905 38.1664 31.1905C38.1672 31.1906 38.1687 31.1907 38.1709 31.1908C38.1724 31.191 38.1746 31.1911 38.1776 31.1913C38.1799 31.1915 38.1836 31.1919 38.1881 31.1924L38.1291 31.7614L38.0702 32.3303C38.1112 32.3347 38.1627 32.3351 38.1739 32.3351V31.7629ZM38.1291 31.7614L38.1881 31.1924C38.1396 31.1871 38.0956 31.1879 38.0717 31.1889C38.0568 31.1894 38.0404 31.1905 38.0225 31.1923C38.0195 31.1925 37.9688 31.1966 37.9121 31.2133L38.0665 31.7633L38.2209 32.3132C38.2015 32.319 38.1858 32.3224 38.1769 32.3241C38.1672 32.3261 38.159 32.3274 38.1538 32.3283C38.1433 32.3299 38.1351 32.3308 38.1306 32.3312C38.1224 32.332 38.1172 32.3322 38.115 32.3324C38.112 32.3325 38.1083 32.3325 38.103 32.3325C38.0993 32.3324 38.0874 32.3322 38.0702 32.3303L38.1291 31.7614ZM38.0665 31.7633L37.9121 31.2133C37.9151 31.2125 37.9159 31.2122 37.9144 31.2126C37.9136 31.2129 37.9129 31.2131 37.9114 31.2135C37.9099 31.214 37.9069 31.2147 37.9039 31.2154L38.0441 31.7693L38.1843 32.3233C38.1843 32.3232 38.2037 32.3182 38.2209 32.3132L38.0665 31.7633ZM38.0441 31.7693L37.8838 31.2211C37.8793 31.2225 37.8756 31.2238 37.8726 31.2248C37.8696 31.2257 37.8674 31.2264 37.8666 31.2268C37.8659 31.227 37.8651 31.2272 37.8651 31.2273C37.8644 31.2274 37.8644 31.2274 37.8644 31.2274C37.8644 31.2273 37.8659 31.227 37.8674 31.2264L38.0382 31.7714L38.2089 32.3163C38.2112 32.3154 38.2134 32.3146 38.2149 32.3142C38.2149 32.3141 38.2157 32.3138 38.2157 32.3138C38.2157 32.3138 38.2164 32.3137 38.2157 32.3138C38.2149 32.3139 38.2149 32.3142 38.2127 32.3148C38.2112 32.3154 38.2082 32.3164 38.2045 32.3175L38.0441 31.7693ZM38.0382 31.7714L37.8674 31.2264C37.8696 31.2257 37.8726 31.2248 37.8756 31.2238C37.8786 31.2229 37.8815 31.2222 37.883 31.2217C37.8838 31.2215 37.8845 31.2213 37.8845 31.2212C37.8853 31.2211 37.8853 31.221 37.8853 31.221C37.8853 31.221 37.8853 31.2208 37.8838 31.2211L38.0277 31.7743L38.1724 32.3271C38.1784 32.3254 38.1918 32.3217 38.2089 32.3163L38.0382 31.7714ZM38.2462 31.6928L38.2611 31.1208C38.2843 31.1214 38.3029 31.1234 38.3126 31.1247C38.3245 31.1261 38.3342 31.1278 38.3424 31.1292C38.3581 31.1322 38.3715 31.1356 38.3827 31.1387C38.4051 31.145 38.423 31.1519 38.4349 31.1575L38.2082 31.6804L37.9815 32.2034C38.0344 32.2275 38.1247 32.2619 38.2321 32.2647L38.2462 31.6928ZM38.2082 31.6804L38.4349 31.1575C38.4498 31.1643 38.4662 31.1727 38.4834 31.1831C38.4998 31.1934 38.5132 31.2029 38.5207 31.2091L38.1843 31.6662L37.848 32.1231C37.883 32.1503 37.9263 32.1786 37.9815 32.2034L38.2082 31.6804ZM38.1843 31.6662L38.5207 31.2091C38.5483 31.2302 38.5677 31.2495 38.5759 31.2589C38.5796 31.2627 38.5818 31.265 38.5811 31.2638C38.5796 31.2626 38.5781 31.261 38.5744 31.2566L38.159 31.6394L37.7428 32.0222C37.7466 32.0259 37.7592 32.0406 37.7719 32.0539C37.7883 32.0715 37.8137 32.0967 37.848 32.1231L38.1843 31.6662ZM38.159 31.6394L38.5744 31.2566C38.6594 31.3528 38.6803 31.455 38.6825 31.4628L38.1388 31.5963L37.5944 31.7298C37.6026 31.764 37.6332 31.8972 37.7428 32.0222L38.159 31.6394ZM38.1388 31.5963L38.6825 31.4628C38.6862 31.4798 38.6892 31.4942 38.6907 31.5047C38.6922 31.5155 38.6937 31.5246 38.6944 31.5313C38.6952 31.5443 38.6959 31.5543 38.6959 31.5583C38.6967 31.5612 38.6967 31.5661 38.6967 31.561C38.6967 31.5597 38.6959 31.5555 38.6959 31.5504C38.6959 31.5462 38.6952 31.5345 38.6937 31.5198L38.1373 31.5824L37.5817 31.645C37.5803 31.6309 37.5795 31.62 37.5788 31.6167C37.5788 31.6124 37.5788 31.6092 37.5788 31.609C37.5788 31.6061 37.5788 31.6135 37.5795 31.619C37.5795 31.6256 37.5803 31.6383 37.5817 31.654C37.5832 31.6679 37.587 31.6958 37.5944 31.7298L38.1388 31.5963ZM38.1373 31.5824L38.6937 31.5198C38.6937 31.5213 38.7012 31.5799 38.6922 31.6523C38.6915 31.6617 38.6788 31.8222 38.5527 31.9647C38.47 32.059 38.3387 32.1428 38.1702 32.1529C38.0203 32.162 37.9084 32.1079 37.8517 32.0737C37.7503 32.0122 37.6958 31.9332 37.6869 31.9212C37.6683 31.8946 37.6556 31.8721 37.6496 31.8615C37.6377 31.8393 37.6295 31.8212 37.6272 31.8155C37.6183 31.7955 37.6123 31.7775 37.6153 31.7858C37.6153 31.7864 37.6153 31.7864 37.6161 31.7888C37.6168 31.7906 37.6175 31.7933 37.619 31.7963C37.6205 31.8017 37.625 31.8122 37.6295 31.8245L38.1463 31.6051L38.6631 31.3858C38.6661 31.3944 38.6698 31.4041 38.6646 31.3905C38.6646 31.3886 38.6631 31.3845 38.6609 31.3797C38.6601 31.3769 38.6557 31.3646 38.6489 31.3498C38.646 31.3436 38.6378 31.3251 38.6258 31.3026C38.6199 31.2919 38.6072 31.2692 38.5878 31.2425C38.5788 31.2304 38.5244 31.1513 38.423 31.0897C38.3671 31.0556 38.2544 31.0015 38.1045 31.0105C37.9367 31.0207 37.8047 31.1044 37.722 31.1988C37.5967 31.3413 37.5832 31.5019 37.5825 31.5114C37.5735 31.5841 37.581 31.643 37.5817 31.645L38.1373 31.5824ZM38.1463 31.6051L37.6295 31.8245C37.6392 31.8485 37.6533 31.8798 37.672 31.9135L38.159 31.6321L38.646 31.3506C38.6512 31.3597 38.6549 31.367 38.6572 31.3721C38.6594 31.3773 38.6616 31.3818 38.6631 31.3858L38.1463 31.6051ZM38.159 31.6321L37.672 31.9135C37.7055 31.9744 37.7428 32.017 37.7645 32.0399C37.7861 32.0625 37.8062 32.0804 37.807 32.0809L38.1754 31.6509L38.5445 31.2209C38.5401 31.2165 38.5535 31.2286 38.5692 31.2449C38.5848 31.2616 38.6161 31.2972 38.646 31.3506L38.159 31.6321ZM38.1754 31.6509L37.8062 32.0805L38.1761 31.6511L38.5453 31.2214L38.1754 31.6509ZM38.1761 31.6511L37.807 32.0809C37.8368 32.1081 37.8651 32.1276 37.8853 32.1406C37.9062 32.1538 37.9233 32.1633 37.9345 32.169C37.9442 32.1742 37.9546 32.1792 37.9524 32.1778C37.9524 32.1777 37.9509 32.1772 37.9494 32.1764C37.9479 32.1758 37.9457 32.1744 37.942 32.1727C37.9375 32.1702 37.9218 32.1622 37.9024 32.1502L38.1963 31.6632L38.4901 31.1761C38.47 31.1636 38.4536 31.1549 38.4476 31.1518C38.4401 31.1482 38.4342 31.1453 38.4334 31.1447C38.4275 31.1418 38.4342 31.1452 38.4401 31.1483C38.4476 31.1521 38.461 31.1594 38.4782 31.17C38.4946 31.1804 38.5184 31.1974 38.5453 31.2214L38.1761 31.6511ZM38.1963 31.6632L37.9024 32.1502C37.9069 32.153 37.936 32.1716 37.9763 32.1891C37.9874 32.1943 38.0516 32.2234 38.1396 32.2327C38.1821 32.2372 38.2858 32.2437 38.4058 32.1945C38.5527 32.134 38.6788 32.0066 38.7317 31.8325C38.7742 31.6905 38.7519 31.5725 38.7392 31.5235C38.7258 31.467 38.7064 31.4251 38.6952 31.4037C38.6743 31.3605 38.6519 31.33 38.6445 31.3195C38.6258 31.2946 38.6094 31.2769 38.6057 31.2724C38.5938 31.2598 38.5841 31.2502 38.5826 31.2483C38.5788 31.2447 38.5751 31.2416 38.5736 31.2402C38.5595 31.2264 38.5736 31.2397 38.5856 31.2524L38.1813 31.6478L37.7771 32.0433C37.7943 32.0619 37.8182 32.0842 37.8114 32.0773C37.8114 32.0773 37.8114 32.0772 37.8107 32.0772C37.8107 32.0774 37.8107 32.0771 37.8107 32.0772C37.8099 32.0767 37.8092 32.0751 37.8077 32.0738C37.807 32.0733 37.798 32.0648 37.7876 32.0531C37.7839 32.049 37.7682 32.0316 37.7496 32.007C37.7421 31.9966 37.7205 31.9663 37.6988 31.9231C37.6884 31.9018 37.669 31.8599 37.6548 31.8035C37.6429 31.7545 37.6198 31.6365 37.663 31.4944C37.7152 31.3204 37.8413 31.1931 37.9889 31.1326C38.1083 31.0834 38.2119 31.0899 38.2544 31.0945C38.3424 31.1037 38.4066 31.1328 38.4178 31.1379C38.4573 31.1552 38.4856 31.1736 38.4901 31.1761L38.1963 31.6632ZM38.1813 31.6478L38.5856 31.2524C38.5811 31.2479 38.5871 31.2536 38.593 31.2611C38.6005 31.2693 38.6154 31.2875 38.6318 31.3135L38.1649 31.6282L37.6981 31.9429C37.719 31.9759 37.7398 32.0008 37.7518 32.0155C37.7645 32.0296 37.7756 32.0416 37.7771 32.0433L38.1813 31.6478ZM38.1649 31.6282L38.6318 31.3135C38.6639 31.3627 38.6803 31.4059 38.687 31.4269C38.6907 31.4374 38.6929 31.4452 38.6937 31.4463C38.6952 31.4529 38.6915 31.44 38.6907 31.4368L38.156 31.6057L37.622 31.7746C37.6213 31.7727 37.6213 31.7713 37.6213 31.7718C37.6213 31.7716 37.6213 31.7719 37.6213 31.7718C37.6213 31.772 37.6213 31.7728 37.6213 31.7732C37.622 31.774 37.622 31.7751 37.6228 31.7765C37.6243 31.7814 37.6272 31.7931 37.6325 31.8074C37.6422 31.8359 37.6615 31.8867 37.6981 31.9429L38.1649 31.6282ZM38.156 31.6057L38.6967 31.4576C38.7071 31.4984 38.7108 31.5304 38.7116 31.5426C38.7131 31.5565 38.7131 31.5655 38.7131 31.5658L38.1545 31.5833L37.5952 31.6009C37.5959 31.6112 37.5967 31.6786 37.6161 31.7538L38.156 31.6057ZM38.1545 31.5833L38.7138 31.5703C38.7138 31.5689 38.7131 31.5461 38.7123 31.5251L38.1538 31.5518L37.5944 31.5786C37.5944 31.5785 37.5944 31.5788 37.5944 31.5796C37.5952 31.5804 37.5952 31.5815 37.5952 31.583C37.5952 31.5845 37.5952 31.5861 37.5952 31.5883C37.5952 31.5901 37.5952 31.5934 37.5952 31.5962L38.1545 31.5833ZM38.159 31.5697H37.5996C37.5996 31.5872 37.6004 31.615 37.6026 31.6419L38.1605 31.5953L38.7176 31.5488C38.7183 31.5529 38.7183 31.5559 38.7183 31.5571C38.7183 31.5584 38.7183 31.5594 38.7183 31.5598C38.7183 31.5602 38.7183 31.5609 38.7183 31.5619C38.7183 31.5624 38.7183 31.5652 38.7183 31.5697H38.159ZM38.1605 31.5953L37.6026 31.6419C37.6026 31.6424 37.6034 31.6525 37.6049 31.6628C37.6056 31.6726 37.6078 31.6945 37.6131 31.7211L38.162 31.6125L38.7108 31.5039C38.7131 31.5156 38.7146 31.5252 38.7153 31.5314C38.7168 31.5379 38.7168 31.5429 38.7176 31.5458C38.7176 31.5502 38.7183 31.5542 38.7176 31.5488L38.1605 31.5953ZM38.162 31.6125L37.6131 31.7211C37.6317 31.8225 37.675 31.8969 37.6772 31.9012L38.1679 31.6272L38.6586 31.3532C38.6594 31.3545 38.6683 31.3702 38.6773 31.3921C38.687 31.4147 38.7019 31.4534 38.7108 31.5039L38.162 31.6125ZM38.1679 31.6272L37.6772 31.9012C37.7018 31.948 37.7302 31.9862 37.7555 32.0165L38.1761 31.6393L38.5967 31.2621C38.6169 31.2851 38.6385 31.3153 38.6586 31.3532L38.1679 31.6272ZM38.1761 31.6393L37.7555 32.0165C37.8018 32.0702 37.8472 32.1035 37.8696 32.1189C37.8823 32.1276 37.8927 32.1343 37.8994 32.1385C37.9062 32.1426 37.9121 32.1462 37.9129 32.1465L38.191 31.65L38.4692 31.1537C38.464 31.1506 38.4789 31.1593 38.4968 31.1715C38.514 31.1833 38.555 31.2128 38.5967 31.2621L38.1761 31.6393ZM38.191 31.65L37.9345 32.1587L37.9352 32.1589L38.1918 31.6504L38.4483 31.1419L38.4476 31.1417L38.191 31.65ZM38.1918 31.6504L37.936 32.1591C37.9382 32.1607 37.9703 32.1782 38.0091 32.1935L38.2119 31.6604L38.4148 31.1272C38.4215 31.1297 38.4275 31.1324 38.4334 31.1352C38.4394 31.1378 38.4446 31.1402 38.4476 31.1417C38.4498 31.1431 38.4521 31.144 38.4513 31.1438C38.4513 31.1436 38.4506 31.1431 38.4476 31.1417L38.1918 31.6504ZM38.2119 31.6604L38.0658 32.2125C38.068 32.2133 38.071 32.214 38.0725 32.2144C38.074 32.2147 38.0747 32.2151 38.0755 32.2153C38.0777 32.2157 38.0769 32.2156 38.0762 32.2155C38.0747 32.2151 38.071 32.2141 38.0665 32.2127L38.2246 31.6639L38.3827 31.1151C38.3723 31.1119 38.3641 31.1096 38.3581 31.108C38.3566 31.1076 38.3551 31.1073 38.3544 31.107C38.3536 31.107 38.3536 31.1068 38.3536 31.1068C38.3529 31.1067 38.3529 31.1067 38.3529 31.1067C38.3521 31.1064 38.3544 31.1069 38.3581 31.108L38.2119 31.6604ZM36.2528 38.7325L36.8061 38.8146C37.0478 37.1079 37.2476 36.1677 37.9024 34.6162L37.3886 34.3896L36.8748 34.1629C36.1693 35.8366 35.95 36.8826 35.6987 38.6503L36.2528 38.7325ZM39.0927 31.3496C39.5506 31.6783 39.5506 31.6782 39.5506 31.6781C39.5506 31.6782 39.5506 31.6781 39.5506 31.6781C39.5506 31.6779 39.5513 31.6774 39.5513 31.6771C39.5513 31.6765 39.5521 31.6758 39.5528 31.6749C39.5543 31.673 39.5558 31.6706 39.558 31.6674C39.5625 31.6611 39.5685 31.6521 39.5759 31.6406C39.5916 31.6176 39.6132 31.5845 39.6408 31.542C39.696 31.4569 39.7736 31.3344 39.8668 31.1812C40.0517 30.8753 40.2979 30.4442 40.5425 29.9427C41.0198 28.9637 41.5381 27.6243 41.4978 26.4085L40.9385 26.4276L40.3799 26.4468C40.4097 27.3608 40.0048 28.4825 39.5416 29.4319C39.3157 29.8947 39.0875 30.2947 38.9152 30.5789C38.8294 30.7207 38.7586 30.8329 38.7086 30.9089C38.684 30.9469 38.6654 30.9758 38.6527 30.9947C38.646 31.0042 38.6415 31.0112 38.6385 31.0156C38.637 31.0178 38.6363 31.0193 38.6355 31.0202C38.6348 31.0206 38.6348 31.0208 38.6348 31.0208C38.6348 31.0208 38.6348 31.0208 39.0927 31.3496ZM40.9385 26.4276L41.4978 26.4085C41.4724 25.6286 41.5612 24.8619 41.1719 23.8939L40.6551 24.1114L40.1375 24.329C40.4261 25.0481 40.3486 25.4981 40.3799 26.4468L40.9385 26.4276ZM36.2528 38.7325H35.6935V45.5363H36.2528H36.8121V38.7325H36.2528ZM36.2528 45.5363C35.6935 45.5122 35.6935 45.5121 35.6935 45.512C35.6935 45.5127 35.6935 45.5143 35.6935 45.5163C35.6935 45.5205 35.6927 45.5273 35.6927 45.5367C35.6912 45.5554 35.6897 45.5842 35.6867 45.6218C35.6808 45.697 35.6711 45.8065 35.6554 45.9398C35.6233 46.2082 35.5674 46.5637 35.4712 46.9238C35.3743 47.2888 35.2438 47.6291 35.076 47.8855C34.9104 48.14 34.7389 48.2674 34.5651 48.3082L34.6904 48.8658L34.8157 49.4235C35.3616 49.2953 35.7449 48.922 36.0067 48.5206C36.2677 48.1211 36.437 47.65 36.5503 47.2249C36.6652 46.7948 36.7301 46.3813 36.7659 46.0782C36.7845 45.9257 36.7957 45.799 36.8024 45.7092C36.8054 45.6643 36.8076 45.6285 36.8091 45.6032C36.8099 45.5906 36.8106 45.5806 36.8106 45.5734C36.8106 45.5698 36.8114 45.5669 36.8114 45.5647C36.8114 45.5636 36.8114 45.5627 36.8114 45.562C36.8114 45.5616 36.8114 45.5607 36.8114 45.5604C36.8114 45.5604 36.8114 45.5602 36.8114 45.5604C36.8114 45.5602 36.8114 45.5603 36.2528 45.5363ZM34.6904 48.8658L34.5651 48.3082C33.9372 48.4557 33.3167 48.2502 32.7469 47.7566C32.1704 47.2578 31.6834 46.4905 31.3829 45.6328L30.8564 45.8258L30.3299 46.0188C30.6826 47.0245 31.268 47.9755 32.0235 48.63C32.7857 49.2896 33.7559 49.6724 34.8157 49.4235L34.6904 48.8658ZM30.8564 45.8258L31.3829 45.6328C31.0756 44.7563 31.1017 43.4598 31.2486 42.0213C31.3202 41.3149 31.4179 40.6065 31.5059 39.9251C31.5924 39.2516 31.6708 38.6002 31.6991 38.0379L31.1405 38.0087L30.5819 37.9795C30.5566 38.4898 30.4842 39.0986 30.3962 39.7754C30.3105 40.4441 30.2098 41.1758 30.136 41.9023C29.9898 43.3294 29.9271 44.8686 30.3299 46.0188L30.8564 45.8258ZM31.1405 38.0087L31.6991 38.0379C31.7327 37.3621 31.723 36.7329 31.5775 36.1009C31.4299 35.462 31.1502 34.8512 30.6826 34.1926L30.2299 34.5286L29.7772 34.8646C30.1718 35.42 30.3798 35.8942 30.4887 36.3642C30.5991 36.8412 30.614 37.3451 30.5819 37.9795L31.1405 38.0087ZM30.2299 34.5286L30.6826 34.1926C30.6476 34.143 30.6118 34.0932 30.5745 34.0431L30.1292 34.3896L29.684 34.7361C29.7161 34.7795 29.7474 34.8223 29.7772 34.8646L30.2299 34.5286ZM40.6551 24.1114L41.1719 23.8939C40.8572 23.1101 40.265 22.6328 39.5849 22.3373C38.9204 22.0484 38.1411 21.9189 37.3849 21.8345C37.003 21.792 36.6122 21.7596 36.2356 21.7268C35.856 21.6936 35.4884 21.6599 35.1364 21.6141C34.4227 21.521 33.8305 21.3842 33.3913 21.1453L33.1287 21.6505L32.8662 22.1557C33.4919 22.4958 34.2511 22.6522 34.9954 22.7492C35.3728 22.7984 35.7606 22.8338 36.1409 22.867C36.525 22.9004 36.8986 22.9314 37.2633 22.9721C38.0001 23.0543 38.6422 23.1709 39.1471 23.3905C39.6371 23.6034 39.9637 23.8968 40.1375 24.329L40.6551 24.1114ZM33.1287 21.6505L33.3913 21.1453C32.6425 20.7384 32.2696 20.2873 32.0205 19.727C31.7506 19.1188 31.6215 18.3848 31.4 17.332L30.8534 17.4523L30.306 17.5726C30.5111 18.5465 30.6677 19.4484 31.0025 20.2009C31.3583 21.0014 31.9102 21.6361 32.8662 22.1557L33.1287 21.6505ZM26.5965 13.1094L26.5108 13.6748C27.6988 13.8632 28.5378 14.3796 29.1321 15.0586C29.734 15.7458 30.1076 16.6279 30.306 17.5726L30.8534 17.4523L31.4 17.332C31.1726 16.25 30.7303 15.1688 29.9659 14.2953C29.194 13.4136 28.1179 12.7717 26.6823 12.544L26.5965 13.1094ZM26.5965 13.1094L26.6823 12.544C25.9067 12.421 25.2273 12.5614 24.6583 12.8941C24.0982 13.2219 23.6761 13.7173 23.3696 14.2587C22.7625 15.3282 22.5477 16.6735 22.6275 17.6448L23.1846 17.5971L23.7424 17.5494C23.6798 16.7836 23.8581 15.6769 24.3368 14.8329C24.5725 14.4174 24.8663 14.0906 25.2139 13.8875C25.5532 13.6892 25.9738 13.5898 26.5108 13.6748L26.5965 13.1094ZM23.1846 17.5971L22.6275 17.6448C22.7707 19.3943 23.3077 21.9645 24.3808 24.3505L24.8887 24.1114L25.3966 23.8723C24.3846 21.6205 23.8759 19.182 23.7424 17.5494L23.1846 17.5971ZM24.8887 24.1114L24.3808 24.3505C24.7202 25.1061 25.1945 25.9594 25.5771 26.615C25.7695 26.9448 25.941 27.2284 26.0648 27.4297C26.1267 27.5305 26.1767 27.6108 26.2117 27.6661C26.2289 27.6938 26.2423 27.7152 26.2512 27.7298C26.2557 27.7372 26.2594 27.7428 26.2617 27.7467C26.2632 27.7486 26.2639 27.7501 26.2647 27.7511C26.2654 27.7517 26.2654 27.752 26.2654 27.7524C26.2654 27.7525 26.2661 27.7527 26.2661 27.7529C26.2661 27.753 26.2661 27.7529 26.7352 27.4409C27.2036 27.129 27.2036 27.129 27.2036 27.129C27.2036 27.1288 27.2036 27.1284 27.2028 27.128C27.2028 27.1272 27.2021 27.126 27.2006 27.1243C27.1984 27.121 27.1954 27.116 27.1909 27.1092C27.1827 27.0957 27.17 27.0754 27.1536 27.049C27.1201 26.9961 27.0723 26.9185 27.0119 26.8207C26.8918 26.6251 26.7248 26.349 26.5376 26.0282C26.1602 25.3828 25.7113 24.5713 25.3966 23.8723L24.8887 24.1114ZM30.1292 34.3896L30.5745 34.0431C29.9398 33.1905 28.9397 32.0802 27.9441 31.3798C27.4519 31.0343 26.9023 30.7456 26.3616 30.6865C26.0812 30.6558 25.7889 30.6852 25.5114 30.8143C25.2318 30.9445 25.0043 31.159 24.8298 31.4385L25.3011 31.7465L25.7724 32.0544C25.8463 31.9358 25.9171 31.8828 25.9753 31.856C26.035 31.8279 26.1192 31.8108 26.2423 31.8243C26.5078 31.8533 26.8725 32.0152 27.3102 32.3229C28.1723 32.9292 29.0896 33.9367 29.684 34.7361L30.1292 34.3896ZM25.3011 31.7465L24.8298 31.4385C24.4957 31.9731 24.442 32.5472 24.5941 33.0824C24.741 33.5983 25.0692 34.0512 25.4592 34.4164C26.2318 35.139 27.3863 35.6482 28.4252 35.6482V35.076V34.5038C27.6988 34.5038 26.8061 34.1256 26.2147 33.5721C25.9231 33.2993 25.7404 33.017 25.6688 32.7628C25.6017 32.528 25.621 32.2972 25.7724 32.0544L25.3011 31.7465ZM28.4252 35.076V35.6482C29.2925 35.6482 29.9943 35.3957 30.5506 34.9975L30.2299 34.5286L29.91 34.0597C29.5438 34.3213 29.0673 34.5038 28.4252 34.5038V35.076ZM30.2299 34.5286L30.5506 34.9975C31.4105 34.3825 31.8714 33.4605 32.1294 32.7501C32.2607 32.3895 32.3457 32.0665 32.4016 31.8454C32.4322 31.7273 32.4493 31.6576 32.4635 31.6126C32.471 31.587 32.4687 31.5995 32.4561 31.6261C32.4508 31.637 32.4285 31.6841 32.3822 31.7364C32.3457 31.7787 32.2092 31.9217 31.975 31.9217V31.3496V30.7774C31.7349 30.7774 31.591 30.9246 31.5477 30.9751C31.4948 31.0356 31.4649 31.0948 31.4515 31.1217C31.4239 31.1802 31.4053 31.2397 31.3941 31.2748C31.3717 31.351 31.3449 31.4569 31.3195 31.5558C31.2651 31.769 31.192 32.0466 31.0809 32.3513C30.8556 32.9715 30.4977 33.639 29.91 34.0597L30.2299 34.5286ZM37.3886 34.3896L37.9024 34.6162C38.0657 34.2282 38.3007 33.7747 38.5475 33.3338L38.062 33.0493L37.5773 32.7649C37.3215 33.2211 37.0627 33.7173 36.8748 34.1629L37.3886 34.3896ZM38.062 33.0493L38.5475 33.3338C38.7459 32.9801 38.9473 32.6418 39.1188 32.3629L38.6445 32.0589L38.1709 31.7548C37.9942 32.0426 37.7846 32.3943 37.5773 32.7649L38.062 33.0493ZM38.6445 32.0589L39.1188 32.3629C39.2463 32.1547 39.3567 31.9805 39.4342 31.8586C39.473 31.7976 39.5044 31.7498 39.5252 31.7174C39.5357 31.7013 39.5439 31.689 39.5491 31.6808C39.5513 31.6768 39.5536 31.6737 39.5551 31.6718C39.5558 31.6708 39.5558 31.67 39.5565 31.6697C39.5565 31.6697 39.5565 31.6694 39.5565 31.6697C39.5565 31.6697 39.5566 31.6691 39.0927 31.3496C38.6288 31.03 38.6288 31.03 38.6288 31.03C38.6288 31.0299 38.6288 31.0301 38.6288 31.03C38.6281 31.0301 38.6281 31.0308 38.6281 31.0311C38.6273 31.0318 38.6266 31.0327 38.6258 31.034C38.6243 31.0364 38.6221 31.04 38.6191 31.0445C38.6131 31.0536 38.6042 31.067 38.593 31.0842C38.5706 31.1187 38.5386 31.1688 38.4983 31.2323C38.417 31.3592 38.3029 31.5395 38.1709 31.7548L38.6445 32.0589ZM31.975 31.3496V31.9217C31.8005 31.9217 31.6849 31.8378 31.6626 31.8216C31.6238 31.7936 31.5984 31.7676 31.591 31.7595C31.5745 31.7418 31.5686 31.7318 31.5775 31.7442C31.5925 31.7654 31.6178 31.8036 31.6618 31.8704C31.7431 31.9955 31.8647 32.1842 32.0175 32.3997C32.3226 32.8283 32.7708 33.3882 33.3532 33.8471C33.9379 34.3074 34.6852 34.6872 35.5741 34.6994C36.4705 34.7118 37.4281 34.3494 38.4237 33.4858L38.062 33.0493L37.7003 32.6129C36.8606 33.3417 36.1558 33.5631 35.589 33.5552C35.0148 33.5473 34.4965 33.3031 34.0363 32.9404C33.574 32.5763 33.1981 32.114 32.9222 31.7263C32.7849 31.5336 32.6768 31.3657 32.5925 31.2361C32.553 31.1755 32.5112 31.1118 32.4762 31.0631C32.4598 31.0405 32.4322 31.0034 32.3986 30.9674C32.3822 30.9502 32.3502 30.9172 32.3047 30.8846C32.2756 30.8638 32.154 30.7774 31.975 30.7774V31.3496ZM38.062 33.0493L38.4938 33.4132C38.7974 33.0363 39.0203 32.6539 39.1665 32.2646L38.6445 32.0589L38.1232 31.8531C38.0247 32.1131 37.8681 32.3905 37.631 32.6855L38.062 33.0493ZM38.6445 32.0589L39.1665 32.2646C39.6095 31.0901 39.3149 29.9967 38.8302 29.0386C38.5885 28.5609 38.291 28.0978 37.9949 27.6577C37.6914 27.207 37.399 26.7935 37.1313 26.3696L36.6615 26.6798L36.1916 26.9899C36.4705 27.4325 36.7897 27.8852 37.0731 28.3067C37.364 28.7385 37.6287 29.1532 37.8368 29.5643C38.2507 30.3842 38.4014 31.114 38.1232 31.8531L38.6445 32.0589Z" fill="#FAF6F1"/>
<path d="M60.5 30.5C60.5 13.9315 47.0685 0.5 30.5 0.5C13.9315 0.5 0.5 13.9315 0.5 30.5C0.5 47.0685 13.9315 60.5 30.5 60.5C47.0685 60.5 60.5 47.0685 60.5 30.5Z" stroke="#FAF6F1" stroke-opacity="0.7"/>
<path d="M90.574 31.72C89.7233 31.72 89.0267 31.544 88.484 31.192C87.9413 30.8253 87.5087 30.356 87.186 29.784H87.054L86.592 31.5H82.896V30.51H83.05C83.3727 30.51 83.666 30.4733 83.93 30.4C84.2087 30.3267 84.4287 30.18 84.59 29.96C84.7513 29.7253 84.832 29.3807 84.832 28.926V17.266C84.832 16.826 84.744 16.5033 84.568 16.298C84.4067 16.078 84.194 15.9387 83.93 15.88C83.666 15.8067 83.3727 15.77 83.05 15.77H82.896V14.78H87.252V18.74C87.252 18.9893 87.2447 19.3047 87.23 19.686C87.23 20.0673 87.2153 20.434 87.186 20.786C87.1713 21.1233 87.1567 21.38 87.142 21.556H87.252C87.5747 20.9253 88 20.4267 88.528 20.06C89.056 19.6787 89.7453 19.488 90.596 19.488C92.0333 19.488 93.1333 19.9793 93.896 20.962C94.6733 21.93 95.062 23.47 95.062 25.582C95.062 26.99 94.886 28.1487 94.534 29.058C94.1967 29.9673 93.6907 30.642 93.016 31.082C92.356 31.5073 91.542 31.72 90.574 31.72ZM90.046 30.246C90.9553 30.246 91.6007 29.8427 91.982 29.036C92.378 28.2293 92.576 27.0707 92.576 25.56C92.576 24.0053 92.378 22.8467 91.982 22.084C91.6007 21.3213 90.948 20.94 90.024 20.94C88.968 20.94 88.242 21.3213 87.846 22.084C87.45 22.8467 87.252 24.0127 87.252 25.582C87.252 26.5793 87.3327 27.43 87.494 28.134C87.67 28.8233 87.9633 29.3513 88.374 29.718C88.7847 30.07 89.342 30.246 90.046 30.246ZM98.4065 31.5V30.51H98.4945C98.8318 30.51 99.1325 30.4733 99.3965 30.4C99.6605 30.3267 99.8658 30.18 100.013 29.96C100.174 29.7253 100.255 29.3807 100.255 28.926V22.194C100.255 21.754 100.174 21.4313 100.013 21.226C99.8512 21.006 99.6385 20.8667 99.3745 20.808C99.1252 20.7347 98.8392 20.698 98.5165 20.698H98.4505V19.708H102.103L102.543 21.864H102.653C102.843 21.4093 103.056 20.9987 103.291 20.632C103.54 20.2653 103.848 19.9867 104.215 19.796C104.596 19.5907 105.102 19.488 105.733 19.488C106.554 19.488 107.155 19.642 107.537 19.95C107.918 20.2433 108.109 20.654 108.109 21.182C108.109 21.6953 107.925 22.106 107.559 22.414C107.207 22.7073 106.642 22.854 105.865 22.854C105.865 22.4433 105.828 22.1133 105.755 21.864C105.696 21.6 105.586 21.4093 105.425 21.292C105.263 21.1747 105.036 21.116 104.743 21.116C104.361 21.116 104.031 21.27 103.753 21.578C103.489 21.8713 103.276 22.2527 103.115 22.722C102.968 23.1913 102.858 23.6827 102.785 24.196C102.711 24.7093 102.675 25.1787 102.675 25.604V29.036C102.675 29.4613 102.755 29.784 102.917 30.004C103.078 30.2093 103.283 30.3487 103.533 30.422C103.797 30.4807 104.09 30.51 104.413 30.51H105.051V31.5H98.4065ZM110.756 35.614C111.504 35.614 112.15 35.504 112.692 35.284C113.235 35.0787 113.697 34.7927 114.078 34.426C114.46 34.0593 114.775 33.6193 115.024 33.106C115.288 32.6073 115.508 32.0647 115.684 31.478L111.636 21.842C111.519 21.534 111.394 21.2993 111.262 21.138C111.13 20.9767 110.976 20.8667 110.8 20.808C110.624 20.7347 110.397 20.698 110.118 20.698H110.052V19.708H115.618V20.698H115.552C115.112 20.698 114.782 20.7787 114.562 20.94C114.342 21.1013 114.232 21.358 114.232 21.71C114.232 21.8273 114.247 21.9593 114.276 22.106C114.306 22.238 114.35 22.3847 114.408 22.546L115.948 26.374C116.095 26.7113 116.227 27.0707 116.344 27.452C116.476 27.8333 116.594 28.2 116.696 28.552C116.814 28.8893 116.887 29.1753 116.916 29.41C117.019 28.9993 117.144 28.5887 117.29 28.178C117.437 27.7527 117.576 27.342 117.708 26.946L119.16 22.7C119.234 22.5387 119.285 22.37 119.314 22.194C119.344 22.0033 119.358 21.842 119.358 21.71C119.358 21.358 119.241 21.1013 119.006 20.94C118.772 20.7787 118.42 20.698 117.95 20.698H117.884V19.708H122.504V20.698H122.438C122.16 20.698 121.925 20.7493 121.734 20.852C121.544 20.94 121.375 21.1087 121.228 21.358C121.082 21.5927 120.928 21.9373 120.766 22.392L117.422 31.566C117.041 32.622 116.674 33.48 116.322 34.14C115.97 34.8147 115.574 35.3353 115.134 35.702C114.709 36.0833 114.159 36.3473 113.484 36.494C112.824 36.6407 111.996 36.714 110.998 36.714H110.756V35.614ZM128.782 31.72C127.975 31.72 127.286 31.632 126.714 31.456C126.142 31.2653 125.709 30.994 125.416 30.642C125.122 30.2753 124.976 29.8427 124.976 29.344C124.976 28.948 125.056 28.64 125.218 28.42C125.394 28.1853 125.599 28.024 125.834 27.936C126.068 27.8333 126.296 27.782 126.516 27.782C126.516 28.5887 126.692 29.256 127.044 29.784C127.41 30.312 128.034 30.576 128.914 30.576C129.676 30.576 130.256 30.4 130.652 30.048C131.048 29.696 131.246 29.2487 131.246 28.706C131.246 28.354 131.165 28.068 131.004 27.848C130.842 27.6133 130.564 27.386 130.168 27.166C129.786 26.946 129.251 26.6967 128.562 26.418C127.784 26.0807 127.139 25.758 126.626 25.45C126.127 25.1273 125.753 24.7533 125.504 24.328C125.254 23.888 125.13 23.3453 125.13 22.7C125.13 21.6587 125.518 20.8667 126.296 20.324C127.088 19.7667 128.129 19.488 129.42 19.488C130.182 19.488 130.806 19.5833 131.29 19.774C131.788 19.9647 132.162 20.214 132.412 20.522C132.661 20.83 132.786 21.1673 132.786 21.534C132.786 21.9447 132.639 22.2747 132.346 22.524C132.067 22.7733 131.642 22.898 131.07 22.898C131.07 22.1647 130.908 21.6 130.586 21.204C130.263 20.7933 129.779 20.588 129.134 20.588C128.444 20.588 127.938 20.742 127.616 21.05C127.293 21.358 127.132 21.754 127.132 22.238C127.132 22.766 127.337 23.1767 127.748 23.47C128.158 23.7633 128.855 24.1007 129.838 24.482C130.63 24.79 131.275 25.1053 131.774 25.428C132.272 25.7507 132.639 26.132 132.874 26.572C133.123 26.9973 133.248 27.5327 133.248 28.178C133.248 29.322 132.844 30.202 132.038 30.818C131.246 31.4193 130.16 31.72 128.782 31.72ZM141.057 31.72C139.943 31.72 139.114 31.4707 138.571 30.972C138.043 30.4587 137.779 29.564 137.779 28.288V21.028H136.107V20.082C136.43 20.082 136.76 20.016 137.097 19.884C137.435 19.752 137.721 19.5613 137.955 19.312C138.205 19.0627 138.41 18.7547 138.571 18.388C138.733 18.0067 138.865 17.5447 138.967 17.002H140.199V19.708H143.081V21.028H140.199V28.288C140.199 29.0067 140.339 29.5347 140.617 29.872C140.911 30.2093 141.314 30.378 141.827 30.378C142.091 30.378 142.341 30.3633 142.575 30.334C142.81 30.3047 143.045 30.268 143.279 30.224V31.302C143.074 31.4047 142.759 31.5 142.333 31.588C141.923 31.676 141.497 31.72 141.057 31.72ZM151.599 31.72C150.602 31.72 149.715 31.522 148.937 31.126C148.175 30.7153 147.573 30.07 147.133 29.19C146.693 28.2953 146.473 27.122 146.473 25.67C146.473 24.086 146.693 22.8467 147.133 21.952C147.588 21.0427 148.189 20.4047 148.937 20.038C149.7 19.6567 150.558 19.466 151.511 19.466C152.215 19.466 152.868 19.554 153.469 19.73C154.071 19.906 154.555 20.1627 154.921 20.5C155.303 20.8227 155.493 21.2333 155.493 21.732C155.493 22.0693 155.413 22.3553 155.251 22.59C155.105 22.81 154.87 22.9787 154.547 23.096C154.239 23.1987 153.814 23.25 153.271 23.25C153.271 22.766 153.22 22.3333 153.117 21.952C153.015 21.556 152.839 21.2407 152.589 21.006C152.355 20.7567 152.003 20.632 151.533 20.632C151.02 20.632 150.565 20.7787 150.169 21.072C149.788 21.3653 149.487 21.8787 149.267 22.612C149.062 23.3307 148.959 24.3427 148.959 25.648C148.959 26.6747 149.062 27.5327 149.267 28.222C149.487 28.8967 149.825 29.4027 150.279 29.74C150.734 30.0627 151.335 30.224 152.083 30.224C152.553 30.224 152.978 30.158 153.359 30.026C153.755 29.8793 154.1 29.6887 154.393 29.454C154.687 29.2047 154.914 28.926 155.075 28.618C155.207 28.7207 155.31 28.8453 155.383 28.992C155.457 29.1387 155.493 29.3147 155.493 29.52C155.493 29.872 155.347 30.2167 155.053 30.554C154.775 30.8913 154.349 31.17 153.777 31.39C153.205 31.61 152.479 31.72 151.599 31.72ZM164.314 31.72C162.642 31.72 161.344 31.192 160.42 30.136C159.511 29.08 159.056 27.5987 159.056 25.692C159.056 23.6387 159.496 22.0913 160.376 21.05C161.256 19.994 162.496 19.466 164.094 19.466C165.561 19.466 166.712 19.9133 167.548 20.808C168.399 21.688 168.824 23.0007 168.824 24.746V25.78H161.542C161.572 27.3493 161.85 28.4933 162.378 29.212C162.921 29.916 163.713 30.268 164.754 30.268C165.517 30.268 166.155 30.1067 166.668 29.784C167.196 29.4467 167.592 29.0653 167.856 28.64C167.988 28.684 168.106 28.7793 168.208 28.926C168.311 29.0727 168.362 29.2487 168.362 29.454C168.362 29.762 168.216 30.092 167.922 30.444C167.644 30.796 167.204 31.0967 166.602 31.346C166.016 31.5953 165.253 31.72 164.314 31.72ZM166.294 24.526C166.294 23.3673 166.126 22.4433 165.788 21.754C165.451 21.0647 164.879 20.72 164.072 20.72C163.324 20.72 162.738 21.05 162.312 21.71C161.887 22.3553 161.645 23.294 161.586 24.526H166.294ZM171.991 31.5V30.51H172.145C172.482 30.51 172.783 30.4733 173.047 30.4C173.311 30.3267 173.516 30.18 173.663 29.96C173.824 29.7253 173.905 29.388 173.905 28.948V22.172C173.905 21.7467 173.824 21.4313 173.663 21.226C173.516 21.006 173.318 20.8667 173.069 20.808C172.819 20.7347 172.533 20.698 172.211 20.698H172.101V19.708H175.951L176.237 21.424H176.347C176.772 20.6613 177.263 20.148 177.821 19.884C178.378 19.6053 179.023 19.466 179.757 19.466C180.93 19.466 181.832 19.8107 182.463 20.5C183.108 21.1747 183.431 22.26 183.431 23.756V28.926C183.431 29.3807 183.497 29.7253 183.629 29.96C183.761 30.18 183.944 30.3267 184.179 30.4C184.428 30.4733 184.714 30.51 185.037 30.51H185.147V31.5H181.011V23.998C181.011 23.0593 180.849 22.326 180.527 21.798C180.204 21.27 179.625 21.006 178.789 21.006C178.187 21.006 177.703 21.1673 177.337 21.49C176.97 21.8127 176.706 22.2453 176.545 22.788C176.398 23.3307 176.325 23.91 176.325 24.526V29.036C176.325 29.4613 176.398 29.784 176.545 30.004C176.706 30.2093 176.911 30.3487 177.161 30.422C177.41 30.4807 177.696 30.51 178.019 30.51H178.129V31.5H171.991ZM192.657 31.72C191.542 31.72 190.713 31.4707 190.171 30.972C189.643 30.4587 189.379 29.564 189.379 28.288V21.028H187.707V20.082C188.029 20.082 188.359 20.016 188.697 19.884C189.034 19.752 189.32 19.5613 189.555 19.312C189.804 19.0627 190.009 18.7547 190.171 18.388C190.332 18.0067 190.464 17.5447 190.567 17.002H191.799V19.708H194.681V21.028H191.799V28.288C191.799 29.0067 191.938 29.5347 192.217 29.872C192.51 30.2093 192.913 30.378 193.427 30.378C193.691 30.378 193.94 30.3633 194.175 30.334C194.409 30.3047 194.644 30.268 194.879 30.224V31.302C194.673 31.4047 194.358 31.5 193.933 31.588C193.522 31.676 193.097 31.72 192.657 31.72ZM203.331 31.72C201.659 31.72 200.361 31.192 199.437 30.136C198.528 29.08 198.073 27.5987 198.073 25.692C198.073 23.6387 198.513 22.0913 199.393 21.05C200.273 19.994 201.512 19.466 203.111 19.466C204.578 19.466 205.729 19.9133 206.565 20.808C207.416 21.688 207.841 23.0007 207.841 24.746V25.78H200.559C200.588 27.3493 200.867 28.4933 201.395 29.212C201.938 29.916 202.73 30.268 203.771 30.268C204.534 30.268 205.172 30.1067 205.685 29.784C206.213 29.4467 206.609 29.0653 206.873 28.64C207.005 28.684 207.122 28.7793 207.225 28.926C207.328 29.0727 207.379 29.2487 207.379 29.454C207.379 29.762 207.232 30.092 206.939 30.444C206.66 30.796 206.22 31.0967 205.619 31.346C205.032 31.5953 204.27 31.72 203.331 31.72ZM205.311 24.526C205.311 23.3673 205.142 22.4433 204.805 21.754C204.468 21.0647 203.896 20.72 203.089 20.72C202.341 20.72 201.754 21.05 201.329 21.71C200.904 22.3553 200.662 23.294 200.603 24.526H205.311ZM211.073 31.5V30.51H211.161C211.498 30.51 211.799 30.4733 212.063 30.4C212.327 30.3267 212.532 30.18 212.679 29.96C212.84 29.7253 212.921 29.3807 212.921 28.926V22.194C212.921 21.754 212.84 21.4313 212.679 21.226C212.518 21.006 212.305 20.8667 212.041 20.808C211.792 20.7347 211.506 20.698 211.183 20.698H211.117V19.708H214.769L215.209 21.864H215.319C215.51 21.4093 215.722 20.9987 215.957 20.632C216.206 20.2653 216.514 19.9867 216.881 19.796C217.262 19.5907 217.768 19.488 218.399 19.488C219.22 19.488 219.822 19.642 220.203 19.95C220.584 20.2433 220.775 20.654 220.775 21.182C220.775 21.6953 220.592 22.106 220.225 22.414C219.873 22.7073 219.308 22.854 218.531 22.854C218.531 22.4433 218.494 22.1133 218.421 21.864C218.362 21.6 218.252 21.4093 218.091 21.292C217.93 21.1747 217.702 21.116 217.409 21.116C217.028 21.116 216.698 21.27 216.419 21.578C216.155 21.8713 215.942 22.2527 215.781 22.722C215.634 23.1913 215.524 23.6827 215.451 24.196C215.378 24.7093 215.341 25.1787 215.341 25.604V29.036C215.341 29.4613 215.422 29.784 215.583 30.004C215.744 30.2093 215.95 30.3487 216.199 30.422C216.463 30.4807 216.756 30.51 217.079 30.51H217.717V31.5H211.073Z" fill="#FAF6F1"/>
<path d="M86.4816 48.5005V48.0805H86.6116C86.7582 48.0805 86.8916 48.0672 87.0116 48.0405C87.1382 48.0072 87.2382 47.9438 87.3116 47.8505C87.3916 47.7505 87.4316 47.6038 87.4316 47.4105V42.5005C87.4316 42.2872 87.3949 42.1305 87.3216 42.0305C87.2482 41.9305 87.1482 41.8638 87.0216 41.8305C86.9016 41.7972 86.7649 41.7805 86.6116 41.7805H86.4816V41.3605H91.5216L91.5716 43.1105H91.0516L91.0016 42.6805C90.9882 42.5338 90.9482 42.4005 90.8816 42.2805C90.8216 42.1538 90.7282 42.0538 90.6016 41.9805C90.4816 41.9005 90.3216 41.8605 90.1216 41.8605H88.4416V44.5205H90.8516V45.0105H88.4416V48.0005H90.3716C90.5849 48.0005 90.7549 47.9638 90.8816 47.8905C91.0149 47.8105 91.1149 47.7105 91.1816 47.5905C91.2549 47.4638 91.3016 47.3272 91.3216 47.1805L91.3916 46.7505H91.9116L91.8416 48.5005H86.4816ZM98.402 48.6005C98.0754 48.6005 97.7854 48.5672 97.532 48.5005C97.2854 48.4338 97.0787 48.3372 96.912 48.2105C96.7454 48.0838 96.6187 47.9338 96.532 47.7605C96.452 47.5872 96.412 47.3972 96.412 47.1905C96.412 47.0572 96.4387 46.9405 96.492 46.8405C96.552 46.7405 96.6354 46.6638 96.742 46.6105C96.8487 46.5505 96.9787 46.5205 97.132 46.5205C97.1454 46.7938 97.1987 47.0538 97.292 47.3005C97.3854 47.5405 97.5287 47.7372 97.722 47.8905C97.9154 48.0372 98.1687 48.1105 98.482 48.1105C98.9287 48.1105 99.2787 48.0038 99.532 47.7905C99.7854 47.5705 99.912 47.2572 99.912 46.8505C99.912 46.6038 99.862 46.3972 99.762 46.2305C99.6687 46.0572 99.5087 45.8972 99.282 45.7505C99.062 45.6038 98.7554 45.4505 98.362 45.2905C97.9487 45.1172 97.6054 44.9305 97.332 44.7305C97.0587 44.5305 96.8554 44.2972 96.722 44.0305C96.5887 43.7572 96.522 43.4372 96.522 43.0705C96.522 42.6905 96.6154 42.3672 96.802 42.1005C96.9954 41.8272 97.2554 41.6205 97.582 41.4805C97.9154 41.3338 98.292 41.2605 98.712 41.2605C99.112 41.2605 99.4487 41.3138 99.722 41.4205C100.002 41.5272 100.215 41.6672 100.362 41.8405C100.509 42.0072 100.582 42.1872 100.582 42.3805C100.582 42.5938 100.509 42.7572 100.362 42.8705C100.222 42.9772 100.032 43.0305 99.792 43.0305C99.792 42.8238 99.7554 42.6238 99.682 42.4305C99.6154 42.2372 99.4987 42.0772 99.332 41.9505C99.172 41.8238 98.952 41.7605 98.672 41.7605C98.2854 41.7605 97.9854 41.8638 97.772 42.0705C97.5587 42.2772 97.452 42.5538 97.452 42.9005C97.452 43.1672 97.4987 43.3938 97.592 43.5805C97.692 43.7605 97.8554 43.9238 98.082 44.0705C98.3087 44.2105 98.6154 44.3605 99.002 44.5205C99.3954 44.6805 99.7287 44.8572 100.002 45.0505C100.282 45.2372 100.495 45.4538 100.642 45.7005C100.789 45.9472 100.862 46.2438 100.862 46.5905C100.862 47.0172 100.762 47.3805 100.562 47.6805C100.362 47.9738 100.075 48.2005 99.702 48.3605C99.3354 48.5205 98.902 48.6005 98.402 48.6005ZM105.351 48.5005V48.0805H105.481C105.635 48.0805 105.771 48.0638 105.891 48.0305C106.018 47.9972 106.118 47.9305 106.191 47.8305C106.265 47.7238 106.301 47.5672 106.301 47.3605V42.4605C106.301 42.2605 106.261 42.1138 106.181 42.0205C106.108 41.9205 106.008 41.8572 105.881 41.8305C105.761 41.7972 105.628 41.7805 105.481 41.7805H105.351V41.3605H108.031C108.898 41.3605 109.541 41.5072 109.961 41.8005C110.388 42.0872 110.601 42.5372 110.601 43.1505C110.601 43.4438 110.548 43.6938 110.441 43.9005C110.335 44.1072 110.188 44.2772 110.001 44.4105C109.815 44.5372 109.601 44.6405 109.361 44.7205V44.7605C109.668 44.8138 109.935 44.9172 110.161 45.0705C110.395 45.2172 110.575 45.4172 110.701 45.6705C110.835 45.9172 110.901 46.2172 110.901 46.5705C110.901 47.2172 110.688 47.7005 110.261 48.0205C109.841 48.3405 109.198 48.5005 108.331 48.5005H105.351ZM108.281 48.0005C108.848 48.0005 109.248 47.8905 109.481 47.6705C109.715 47.4505 109.831 47.0738 109.831 46.5405C109.831 46.1938 109.785 45.9072 109.691 45.6805C109.598 45.4538 109.441 45.2872 109.221 45.1805C109.001 45.0672 108.695 45.0105 108.301 45.0105H107.311V48.0005H108.281ZM108.001 44.5105C108.395 44.5105 108.701 44.4638 108.921 44.3705C109.141 44.2772 109.298 44.1305 109.391 43.9305C109.485 43.7305 109.531 43.4705 109.531 43.1505C109.531 42.6572 109.415 42.3205 109.181 42.1405C108.948 41.9538 108.548 41.8605 107.981 41.8605H107.311V44.5105H108.001ZM115.004 50.9005V50.4305H115.094C115.381 50.4305 115.624 50.3738 115.824 50.2605C116.024 50.1538 116.178 49.9638 116.284 49.6905C116.391 49.4238 116.444 49.0572 116.444 48.5905V42.4605C116.444 42.2605 116.404 42.1138 116.324 42.0205C116.251 41.9205 116.151 41.8572 116.024 41.8305C115.904 41.7972 115.771 41.7805 115.624 41.7805H115.494V41.3605H118.404V41.7805H118.274C118.128 41.7805 117.991 41.7972 117.864 41.8305C117.738 41.8638 117.638 41.9305 117.564 42.0305C117.491 42.1305 117.454 42.2872 117.454 42.5005V48.5805C117.454 49.0272 117.394 49.4005 117.274 49.7005C117.161 50.0005 117.001 50.2372 116.794 50.4105C116.588 50.5838 116.344 50.7072 116.064 50.7805C115.791 50.8605 115.494 50.9005 115.174 50.9005H115.004ZM122.669 48.5005V48.0805H122.799C122.945 48.0805 123.079 48.0672 123.199 48.0405C123.325 48.0072 123.425 47.9438 123.499 47.8505C123.579 47.7505 123.619 47.6038 123.619 47.4105V42.5005C123.619 42.2872 123.582 42.1305 123.509 42.0305C123.435 41.9305 123.335 41.8638 123.209 41.8305C123.089 41.7972 122.952 41.7805 122.799 41.7805H122.669V41.3605H127.709L127.759 43.1105H127.239L127.189 42.6805C127.175 42.5338 127.135 42.4005 127.069 42.2805C127.009 42.1538 126.915 42.0538 126.789 41.9805C126.669 41.9005 126.509 41.8605 126.309 41.8605H124.629V44.5205H127.039V45.0105H124.629V48.0005H126.559C126.772 48.0005 126.942 47.9638 127.069 47.8905C127.202 47.8105 127.302 47.7105 127.369 47.5905C127.442 47.4638 127.489 47.3272 127.509 47.1805L127.579 46.7505H128.099L128.029 48.5005H122.669ZM132.499 48.5005V48.0805H132.629C132.776 48.0805 132.909 48.0672 133.029 48.0405C133.156 48.0072 133.256 47.9438 133.329 47.8505C133.409 47.7505 133.449 47.6038 133.449 47.4105V42.4605C133.449 42.2605 133.409 42.1138 133.329 42.0205C133.256 41.9205 133.156 41.8572 133.029 41.8305C132.909 41.7972 132.776 41.7805 132.629 41.7805H132.499V41.3605H135.189C135.769 41.3605 136.249 41.4338 136.629 41.5805C137.009 41.7205 137.292 41.9338 137.479 42.2205C137.666 42.5005 137.759 42.8572 137.759 43.2905C137.759 43.6438 137.686 43.9438 137.539 44.1905C137.392 44.4305 137.206 44.6238 136.979 44.7705C136.759 44.9172 136.529 45.0305 136.289 45.1105L137.659 47.2805C137.832 47.5472 137.999 47.7472 138.159 47.8805C138.319 48.0138 138.502 48.0805 138.709 48.0805H138.739V48.5005H138.599C138.186 48.5005 137.862 48.4805 137.629 48.4405C137.402 48.3938 137.219 48.3072 137.079 48.1805C136.939 48.0472 136.792 47.8538 136.639 47.6005L135.289 45.3505H134.459V47.4105C134.459 47.6038 134.496 47.7505 134.569 47.8505C134.649 47.9438 134.749 48.0072 134.869 48.0405C134.996 48.0672 135.132 48.0805 135.279 48.0805H135.409V48.5005H132.499ZM135.159 44.8805C135.746 44.8805 136.146 44.7505 136.359 44.4905C136.579 44.2305 136.689 43.8405 136.689 43.3205C136.689 42.9605 136.639 42.6738 136.539 42.4605C136.439 42.2405 136.276 42.0838 136.049 41.9905C135.822 41.8905 135.519 41.8405 135.139 41.8405H134.459V44.8805H135.159ZM146.096 48.6005C145.323 48.6005 144.68 48.4472 144.166 48.1405C143.66 47.8338 143.28 47.4072 143.026 46.8605C142.78 46.3072 142.656 45.6605 142.656 44.9205C142.656 44.2005 142.786 43.5672 143.046 43.0205C143.313 42.4672 143.706 42.0372 144.226 41.7305C144.746 41.4172 145.39 41.2605 146.156 41.2605C146.65 41.2605 147.06 41.3105 147.386 41.4105C147.713 41.5038 147.956 41.6372 148.116 41.8105C148.283 41.9772 148.366 42.1672 148.366 42.3805C148.366 42.5938 148.276 42.7638 148.096 42.8905C147.916 43.0172 147.696 43.0805 147.436 43.0805C147.436 42.8738 147.393 42.6738 147.306 42.4805C147.226 42.2805 147.09 42.1172 146.896 41.9905C146.703 41.8572 146.443 41.7905 146.116 41.7905C145.55 41.7905 145.093 41.9138 144.746 42.1605C144.406 42.4005 144.156 42.7538 143.996 43.2205C143.843 43.6872 143.766 44.2538 143.766 44.9205C143.766 45.5872 143.846 46.1538 144.006 46.6205C144.173 47.0805 144.436 47.4305 144.796 47.6705C145.163 47.9105 145.65 48.0305 146.256 48.0305C146.45 48.0305 146.636 48.0205 146.816 48.0005C146.996 47.9805 147.156 47.9505 147.296 47.9105V46.3005C147.296 46.1005 147.256 45.9538 147.176 45.8605C147.103 45.7605 147.003 45.6972 146.876 45.6705C146.756 45.6372 146.623 45.6205 146.476 45.6205H146.436V45.2005H149.036V45.6205H148.996C148.87 45.6205 148.753 45.6372 148.646 45.6705C148.546 45.7038 148.463 45.7705 148.396 45.8705C148.336 45.9705 148.306 46.1272 148.306 46.3405V48.1405C147.973 48.2938 147.63 48.4105 147.276 48.4905C146.923 48.5638 146.53 48.6005 146.096 48.6005Z" fill="#FAF6F1" fill-opacity="0.85"/>
</svg>
